<?xml version="1.0" encoding="UTF-8"?>
<svg width="306px" height="35px" viewBox="0 0 306 35" version="1.1" xmlns="http://www.w3.org/2000/svg" xmlns:xlink="http://www.w3.org/1999/xlink">
    <!-- Generator: Sketch 55.2 (78181) - https://sketchapp.com -->
    <title>KOMMUNITY</title>
    <desc>Created with Sketch.</desc>
    <g id="Logos" stroke="none" stroke-width="1" fill="none" fill-rule="evenodd">
        <g id="A" transform="translate(-448.000000, -583.000000)" fill="#333333" fill-rule="nonzero">
            <path d="M463.648,607.64 L460.192,611.768 L460.192,617 L448.96,617 L448.96,584.36 L460.192,584.36 L460.192,595.88 L469.936,584.36 L483.088,584.36 L471.28,598.52 L483.568,617 L470.416,617 L463.648,607.64 Z M498.352,583.64 C509.104,583.64 516.256,590.936 516.256,600.68 C516.256,610.424 509.104,617.72 498.352,617.72 C487.6,617.72 480.448,610.424 480.448,600.68 C480.448,590.936 487.6,583.64 498.352,583.64 Z M498.352,607.208 C502.24,607.208 504.832,604.136 504.832,600.68 C504.832,597.224 502.24,594.152 498.352,594.152 C494.464,594.152 491.872,597.224 491.872,600.68 C491.872,604.136 494.464,607.208 498.352,607.208 Z M557.104,584.36 L557.104,617 L545.872,617 L545.872,604.088 L541.072,611.096 L541.072,611.24 L535.408,611.24 L535.408,611.096 L530.608,604.088 L530.608,617 L519.376,617 L519.376,584.36 L528.256,584.36 L538.24,597.416 L548.224,584.36 L557.104,584.36 Z M598.672,584.36 L598.672,617 L587.44,617 L587.44,604.088 L582.64,611.096 L582.64,611.24 L576.976,611.24 L576.976,611.096 L572.176,604.088 L572.176,617 L560.944,617 L560.944,584.36 L569.824,584.36 L579.808,597.416 L589.792,584.36 L598.672,584.36 Z M634.672,584.36 L634.672,600.68 C634.672,611.912 628.816,617.72 618.352,617.72 C607.888,617.72 602.032,611.912 602.032,600.68 L602.032,584.36 L613.456,584.36 L613.456,601.16 C613.456,605.048 615.232,607.208 618.352,607.208 C621.472,607.208 623.248,605.048 623.248,601.16 L623.248,584.36 L634.672,584.36 Z M669.616,584.36 L669.616,617 L660.784,617 L660.736,616.856 L649.264,604.04 L649.264,617 L638.032,617 L638.032,584.36 L646.912,584.36 L658.384,597.464 L658.384,584.36 L669.616,584.36 Z M684.688,584.36 L684.688,617 L673.456,617 L673.456,584.36 L684.688,584.36 Z M716.608,593.96 L707.584,593.96 L707.584,617 L696.352,617 L696.352,593.96 L687.328,593.96 L687.328,584.36 L716.608,584.36 L716.608,593.96 Z M741.28,609.032 L741.328,617 L730.096,617 L730.048,609.032 L717.328,584.36 L729.76,584.36 L735.616,595.784 L741.568,584.36 L754,584.36 L741.28,609.032 Z" id="KOMMUNITY"></path>
        </g>
    </g>
</svg>