<svg width="275" height="239" viewBox="0 0 275 239" fill="none" xmlns="http://www.w3.org/2000/svg">
<g clip-path="url(#clip0)" filter="url(#filter0_d)">
<path d="M157.415 139.177L126.505 148.362L132.168 167.296L163.078 158.111L157.415 139.177Z" fill="url(#paint0_linear)"/>
<path d="M156.886 139.844L127.023 148.718L132.309 166.39L162.172 157.516L156.886 139.844Z" fill="white"/>
<g opacity="0.6">
<path opacity="0.6" d="M129.576 152.448L133.376 151.318L132.538 148.516L128.738 149.645L129.576 152.448Z" fill="#007CC4"/>
<path opacity="0.6" d="M134.324 156.973L148.912 152.638L148.64 151.729L134.052 156.064L134.324 156.973Z" fill="#007CC4"/>
<path opacity="0.6" d="M138.865 157.767L149.502 154.606L149.321 154.001L138.684 157.161L138.865 157.767Z" fill="#007CC4"/>
</g>
<path d="M205.586 94.2905L201.797 113.684L233.456 119.829L237.245 100.436L205.586 94.2905Z" fill="url(#paint1_linear)"/>
<path d="M205.381 95.1443L201.866 113.216L232.404 119.118L235.919 101.046L205.381 95.1443Z" fill="white"/>
<g opacity="0.6">
<path opacity="0.6" d="M206.372 99.3558L210.264 100.111L210.825 97.2406L206.932 96.485L206.372 99.3558Z" fill="#007CC4"/>
<path opacity="0.6" d="M208.473 105.559L223.414 108.459L223.596 107.529L208.654 104.628L208.473 105.559Z" fill="#007CC4"/>
<path opacity="0.6" d="M212.127 108.364L223.021 110.479L223.143 109.858L212.248 107.744L212.127 108.364Z" fill="#007CC4"/>
</g>
<path d="M225.274 132.577L207.089 140.439L219.925 169.934L238.11 162.071L225.274 132.577Z" fill="url(#paint2_linear)"/>
<path d="M224.98 133.136L208.007 140.474L220.408 168.969L237.381 161.631L224.98 133.136Z" fill="white"/>
<g opacity="0.6">
<path opacity="0.6" d="M221.523 136.096L223.101 139.722L225.793 138.558L224.215 134.932L221.523 136.096Z" fill="#47E6B1"/>
<path opacity="0.6" d="M217.581 141.335L223.639 155.254L224.512 154.877L218.454 140.957L217.581 141.335Z" fill="#47E6B1"/>
<path opacity="0.6" d="M217.328 145.923L221.745 156.073L222.327 155.821L217.91 145.672L217.328 145.923Z" fill="#47E6B1"/>
</g>
<path d="M136.953 46.0404L106.043 55.2251L111.706 74.159L142.616 64.9743L136.953 46.0404Z" fill="url(#paint3_linear)"/>
<path d="M136.425 46.71L106.562 55.5835L111.847 73.2558L141.71 64.3823L136.425 46.71Z" fill="white"/>
<g opacity="0.6">
<path opacity="0.6" d="M109.097 59.3194L112.898 58.1902L112.059 55.3874L108.259 56.5167L109.097 59.3194Z" fill="#F55F44"/>
<path opacity="0.6" d="M113.848 63.8439L128.436 59.5093L128.164 58.6005L113.576 62.9351L113.848 63.8439Z" fill="#F55F44"/>
<path opacity="0.6" d="M118.387 64.6389L129.023 61.4783L128.842 60.8724L118.205 64.0331L118.387 64.6389Z" fill="#F55F44"/>
</g>
<path d="M185.116 1.15819L181.327 20.5513L212.987 26.6967L216.776 7.30362L185.116 1.15819Z" fill="url(#paint4_linear)"/>
<path d="M185.411 1.71755L181.875 19.8184L212.462 25.7555L215.998 7.65473L185.411 1.71755Z" fill="white"/>
<g opacity="0.6">
<path opacity="0.6" d="M185.902 6.22539L189.794 6.98096L190.355 4.11025L186.462 3.35469L185.902 6.22539Z" fill="#007CC4"/>
<path opacity="0.6" d="M188.003 12.4289L202.944 15.3291L203.126 14.3983L188.184 11.4981L188.003 12.4289Z" fill="#007CC4"/>
<path opacity="0.6" d="M191.657 15.2314L202.552 17.3462L202.673 16.7257L191.778 14.6109L191.657 15.2314Z" fill="#007CC4"/>
</g>
<path d="M204.801 39.4474L186.617 47.3098L199.452 76.804L217.637 68.9416L204.801 39.4474Z" fill="url(#paint5_linear)"/>
<path d="M204.51 40.0047L187.537 47.3433L199.937 75.838L216.911 68.4995L204.51 40.0047Z" fill="white"/>
<g opacity="0.6">
<path opacity="0.6" d="M201.054 42.966L202.633 46.5923L205.324 45.4284L203.746 41.8022L201.054 42.966Z" fill="#47E6B1"/>
<path opacity="0.6" d="M197.11 48.2051L203.167 62.1245L204.04 61.7471L197.982 47.8278L197.11 48.2051Z" fill="#47E6B1"/>
<path opacity="0.6" d="M196.858 52.7965L201.275 62.946L201.857 62.6945L197.44 52.5449L196.858 52.7965Z" fill="#47E6B1"/>
</g>
<path d="M50.1122 116.131L19.2019 125.316L24.8648 144.25L55.7752 135.065L50.1122 116.131Z" fill="url(#paint6_linear)"/>
<path d="M49.5865 116.8L19.7236 125.674L25.0091 143.346L54.872 134.472L49.5865 116.8Z" fill="white"/>
<g opacity="0.6">
<path opacity="0.6" d="M22.2735 129.421L26.0739 128.292L25.2356 125.49L21.4353 126.619L22.2735 129.421Z" fill="#007CC4"/>
<path opacity="0.6" d="M27.0243 133.946L41.6121 129.611L41.3403 128.703L26.7525 133.037L27.0243 133.946Z" fill="#007CC4"/>
<path opacity="0.6" d="M31.5658 134.74L42.2026 131.58L42.0214 130.974L31.3846 134.134L31.5658 134.74Z" fill="#007CC4"/>
</g>
<path d="M98.2848 71.2544L94.4958 90.6475L126.156 96.7929L129.945 77.3998L98.2848 71.2544Z" fill="url(#paint7_linear)"/>
<path d="M98.24 71.9678L94.7248 90.0398L125.263 95.9412L128.778 77.8692L98.24 71.9678Z" fill="white"/>
<g opacity="0.6">
<path opacity="0.6" d="M99.0671 76.3184L102.96 77.074L103.521 74.2033L99.628 73.4477L99.0671 76.3184Z" fill="#F55F44"/>
<path opacity="0.6" d="M101.171 82.5226L116.113 85.4229L116.295 84.4921L101.353 81.5918L101.171 82.5226Z" fill="#F55F44"/>
<path opacity="0.6" d="M104.825 85.3276L115.72 87.4424L115.841 86.8218L104.946 84.7071L104.825 85.3276Z" fill="#F55F44"/>
</g>
<path d="M117.971 109.542L99.7864 117.404L112.622 146.898L130.807 139.036L117.971 109.542Z" fill="url(#paint8_linear)"/>
<path d="M117.68 110.099L100.707 117.438L113.107 145.933L130.08 138.594L117.68 110.099Z" fill="white"/>
<g opacity="0.6">
<path opacity="0.6" d="M114.222 113.061L115.8 116.687L118.492 115.523L116.914 111.897L114.222 113.061Z" fill="#47E6B1"/>
<path opacity="0.6" d="M110.28 118.297L116.338 132.216L117.21 131.839L111.153 117.92L110.28 118.297Z" fill="#47E6B1"/>
<path opacity="0.6" d="M110.028 122.887L114.445 133.037L115.027 132.785L110.61 122.636L110.028 122.887Z" fill="#47E6B1"/>
</g>
<path d="M53.7493 60.5147L22.839 69.6995L28.5019 88.6334L59.4122 79.4487L53.7493 60.5147Z" fill="url(#paint9_linear)"/>
<path d="M53.7755 60.8859L23.8603 69.8933L29.2257 87.5965L59.1408 78.5891L53.7755 60.8859Z" fill="white"/>
<g opacity="0.6">
<path opacity="0.6" d="M25.9017 73.806L29.702 72.6768L28.8638 69.874L25.0634 71.0033L25.9017 73.806Z" fill="#007CC4"/>
<path opacity="0.6" d="M30.6495 78.3312L45.2372 73.9966L44.9654 73.0878L30.3777 77.4224L30.6495 78.3312Z" fill="#007CC4"/>
<path opacity="0.6" d="M35.1909 79.1255L45.8278 75.9648L45.6466 75.359L35.0097 78.5197L35.1909 79.1255Z" fill="#007CC4"/>
</g>
<path d="M101.659 15.8675L97.8933 35.2297L129.503 41.3381L133.269 21.9759L101.659 15.8675Z" fill="url(#paint10_linear)"/>
<path d="M102.211 16.1983L98.6747 34.2991L129.262 40.2362L132.798 22.1355L102.211 16.1983Z" fill="white"/>
<g opacity="0.6">
<path opacity="0.6" d="M102.702 20.7059L106.594 21.4614L107.155 18.5907L103.263 17.8352L102.702 20.7059Z" fill="#007CC4"/>
<path opacity="0.6" d="M104.803 26.9064L119.745 29.8066L119.927 28.8758L104.985 25.9756L104.803 26.9064Z" fill="#007CC4"/>
<path opacity="0.6" d="M108.454 29.7114L119.349 31.8262L119.47 31.2056L108.576 29.0909L108.454 29.7114Z" fill="#F55F44"/>
</g>
<path d="M121.604 53.9283L103.419 61.7908L116.255 91.285L134.44 83.4225L121.604 53.9283Z" fill="url(#paint11_linear)"/>
<path d="M121.31 54.4869L104.337 61.8254L116.737 90.3202L133.71 82.9816L121.31 54.4869Z" fill="white"/>
<g opacity="0.6">
<path opacity="0.6" d="M117.857 57.447L119.435 61.0732L122.126 59.9094L120.548 56.2831L117.857 57.447Z" fill="#47E6B1"/>
<path opacity="0.6" d="M113.912 62.6861L119.969 76.6055L120.842 76.2281L114.784 62.3087L113.912 62.6861Z" fill="#47E6B1"/>
<path opacity="0.6" d="M113.661 67.2704L118.078 77.4199L118.66 77.1683L114.243 67.0188L113.661 67.2704Z" fill="#47E6B1"/>
</g>
<path opacity="0.25" d="M23.6742 20.4784C24.6044 20.4784 25.3584 19.7269 25.3584 18.7998C25.3584 17.8727 24.6044 17.1211 23.6742 17.1211C22.7441 17.1211 21.9901 17.8727 21.9901 18.7998C21.9901 19.7269 22.7441 20.4784 23.6742 20.4784Z" fill="#535461"/>
<path opacity="0.25" d="M199.498 167.508C200.429 167.508 201.183 166.756 201.183 165.829C201.183 164.902 200.429 164.151 199.498 164.151C198.568 164.151 197.814 164.902 197.814 165.829C197.814 166.756 198.568 167.508 199.498 167.508Z" fill="#535461"/>
<path opacity="0.25" d="M50.7348 159.161C51.6649 159.161 52.4189 158.409 52.4189 157.482C52.4189 156.555 51.6649 155.803 50.7348 155.803C49.8046 155.803 49.0506 156.555 49.0506 157.482C49.0506 158.409 49.8046 159.161 50.7348 159.161Z" fill="#535461"/>
<path opacity="0.25" d="M215.155 135.794C216.085 135.794 216.839 135.043 216.839 134.116C216.839 133.189 216.085 132.437 215.155 132.437C214.225 132.437 213.471 133.189 213.471 134.116C213.471 135.043 214.225 135.794 215.155 135.794Z" fill="#535461"/>
<path opacity="0.25" d="M231.002 58.7905C231.932 58.7905 232.686 58.0389 232.686 57.1118C232.686 56.1847 231.932 55.4331 231.002 55.4331C230.072 55.4331 229.318 56.1847 229.318 57.1118C229.318 58.0389 230.072 58.7905 231.002 58.7905Z" fill="#535461"/>
<path opacity="0.25" d="M106.663 1.49454H105.167V0H104.554V1.49454H103.058V2.10218H104.554V3.59365H105.167V2.10218H106.663V1.49454Z" fill="#535461"/>
<path opacity="0.25" d="M49.0414 24.3667H47.545V22.8752H46.9323V24.3667H45.436V24.9774H46.9323V26.4689H47.545V24.9774H49.0414V24.3667Z" fill="#535461"/>
<path opacity="0.25" d="M25.6016 109.599H24.1053V108.107H23.4926V109.599H21.9962V110.209H23.4926V111.701H24.1053V110.209H25.6016V109.599Z" fill="#535461"/>
<path opacity="0.25" d="M22.2364 48.8166H20.737V47.322H20.1273V48.8166H18.6279V49.4242H20.1273V50.9187H20.737V49.4242H22.2364V48.8166Z" fill="#535461"/>
<path opacity="0.25" d="M7.6054 90.5839H6.10905V89.0894H5.49943V90.5839H4V91.1915H5.49943V92.683H6.10905V91.1915H7.6054V90.5839Z" fill="#535461"/>
<path opacity="0.25" d="M271 69.0466H269.504V67.5552H268.891V69.0466H267.395V69.6573H268.891V71.1488H269.504V69.6573H271V69.0466Z" fill="#535461"/>
<path opacity="0.25" d="M218.834 88.4633H217.338V86.9688H216.725V88.4633H215.229V89.0709H216.725V90.5655H217.338V89.0709H218.834V88.4633Z" fill="#535461"/>
<path opacity="0.25" d="M174.288 36.096H172.789V34.6045H172.179V36.096H170.68V36.7067H172.179V38.1981H172.789V36.7067H174.288V36.096Z" fill="#535461"/>
<path d="M88.3313 121.448C87.2537 124.934 88.8702 129.055 92.026 130.89C93.3469 131.658 94.871 132.047 96.1549 132.879C98.9413 134.687 100.04 138.154 100.946 141.343C101.983 145.01 103.027 148.886 102.076 152.575C101.46 154.926 100.09 157.007 99.3046 159.308C98.6488 161.235 98.4209 163.281 98.6365 165.305C98.7504 166.379 99.0213 167.496 99.7572 168.288C100.822 169.432 102.528 169.604 104.068 169.88C107.328 170.497 110.395 171.876 113.018 173.903C115.64 175.93 117.743 178.548 119.154 181.542" stroke="url(#paint12_linear)" stroke-width="2" stroke-miterlimit="10"/>
<path d="M88.6608 121.448C87.5832 124.934 89.1996 129.055 92.3555 130.89C93.6764 131.658 95.2004 132.047 96.4843 132.879C99.2707 134.687 100.37 138.154 101.275 141.343C102.313 145.01 103.356 148.886 102.405 152.575C101.789 154.926 100.419 157.007 99.6341 159.308C98.9783 161.235 98.7503 163.281 98.9659 165.305C99.0798 166.379 99.3508 167.496 100.087 168.288C101.152 169.432 102.858 169.604 104.397 169.88C107.658 170.497 110.725 171.876 113.347 173.903C115.97 175.93 118.073 178.548 119.484 181.542" stroke="#535461" stroke-width="2" stroke-miterlimit="10"/>
<path d="M129.447 95.3989C126.79 99.0816 124.031 103.071 123.803 107.604C123.456 114.579 129.038 120.284 131.553 126.809C132.635 129.682 133.124 132.743 132.992 135.81C132.86 138.876 132.109 141.884 130.783 144.654C129.552 147.168 127.825 149.663 128.037 152.446C128.166 154.146 129.019 155.69 129.706 157.252C131.391 161.166 132.126 165.422 131.852 169.672C131.578 173.923 130.303 178.05 128.129 181.717" stroke="url(#paint13_linear)" stroke-width="2" stroke-miterlimit="10"/>
<path d="M129.777 95.3989C127.12 99.0816 124.361 103.071 124.133 107.604C123.785 114.579 129.367 120.284 131.883 126.809C132.965 129.682 133.455 132.743 133.323 135.809C133.191 138.876 132.441 141.884 131.116 144.654C129.884 147.168 128.157 149.663 128.37 152.446C128.499 154.146 129.352 155.69 130.038 157.252C131.723 161.166 132.459 165.422 132.185 169.672C131.911 173.923 130.636 178.05 128.462 181.717" stroke="#535461" stroke-width="2" stroke-miterlimit="10"/>
<path d="M166.751 128.622L168.035 139.056C168.204 140.444 168.343 141.957 167.604 143.138C166.896 144.258 165.569 144.792 164.525 145.621C161.138 148.337 161.446 153.554 162.604 157.737C163.762 161.92 165.461 166.412 163.835 170.436C163.164 172.096 161.988 173.505 161.092 175.039C159.591 177.703 158.995 180.78 159.396 183.81" stroke="url(#paint14_linear)" stroke-width="2" stroke-miterlimit="10"/>
<path d="M167.059 128.622L168.343 139.056C168.512 140.444 168.651 141.957 167.912 143.138C167.204 144.258 165.877 144.792 164.833 145.621C161.446 148.337 161.754 153.554 162.912 157.737C164.069 161.92 165.769 166.412 164.143 170.436C163.472 172.096 162.296 173.505 161.4 175.039C159.898 177.703 159.303 180.78 159.704 183.81" stroke="#535461" stroke-width="2" stroke-miterlimit="10"/>
<g opacity="0.7">
<path opacity="0.7" d="M200.071 85.6982C200.067 80.8146 198.904 76.0011 196.678 71.6509C194.451 67.3007 191.224 63.5371 187.259 60.6675C183.294 57.798 178.705 55.9038 173.866 55.1396C169.026 54.3755 164.074 54.7631 159.414 56.2708C159.671 54.5311 159.804 52.7754 159.811 51.0169C159.861 42.9693 156.764 35.2188 151.176 29.4095C145.588 23.6002 137.95 20.1891 129.881 19.8997C121.812 19.6102 113.947 22.4653 107.955 27.8592C101.963 33.2531 98.3143 40.7616 97.7836 48.792C93.1226 47.2814 88.1692 46.8915 83.3281 47.654C78.487 48.4166 73.8956 50.31 69.9291 53.1795C65.9626 56.0491 62.7336 59.8134 60.5058 64.1647C58.2781 68.5161 57.1149 73.3311 57.1112 78.2163C57.1112 93.7448 68.5832 115.831 83.5437 119.744L85.8682 121.07L84.6059 125.385H92.0876L90.462 121.064L92.7773 119.744C104.336 116.721 113.809 102.85 117.523 89.5343C119.554 90.8845 121.79 91.899 124.145 92.5387L126.47 93.8645L125.207 98.1793H132.689L131.064 93.8584L133.379 92.5387C135.097 92.078 136.751 91.408 138.305 90.544C140.303 105.474 150.929 123.706 164.396 127.226L166.72 128.552L165.458 132.867H172.94L171.314 128.546L173.63 127.226C188.611 123.313 200.071 101.227 200.071 85.6982Z" fill="url(#paint15_linear)"/>
</g>
<path d="M93.2668 123.801H86.0283L87.2937 119.471H91.6381L93.2668 123.801Z" fill="#F55F44"/>
<path d="M119.511 78.1609C119.511 94.699 106.06 118.931 89.4675 118.931C72.8752 118.931 59.4235 94.6867 59.4235 78.1609C59.4235 70.2187 62.5888 62.6018 68.2231 56.9858C73.8575 51.3699 81.4993 48.2148 89.4675 48.2148C97.4356 48.2148 105.077 51.3699 110.712 56.9858C116.346 62.6018 119.511 70.2187 119.511 78.1609Z" fill="#F55F44"/>
<path d="M91.6381 119.652H87.2938L84.7598 118.21H94.1721L91.6381 119.652Z" fill="#535461"/>
<path opacity="0.1" d="M78.6081 54.8896C78.6081 54.8896 65.9384 61.7455 64.1373 75.4511L78.6081 54.8896Z" fill="white"/>
<path d="M132.557 97.4764H125.318L126.584 93.1462H130.928L132.557 97.4764Z" fill="#4D8AF0"/>
<path d="M158.801 51.8332C158.801 68.3714 145.35 92.6032 128.757 92.6032C112.165 92.6032 98.7073 68.3745 98.7073 51.8332C98.7073 43.8911 101.873 36.2742 107.507 30.6582C113.141 25.0422 120.783 21.8872 128.751 21.8872C136.719 21.8872 144.361 25.0422 149.996 30.6582C155.63 36.2742 158.795 43.8911 158.795 51.8332H158.801Z" fill="#4D8AF0"/>
<path d="M130.928 93.3275H126.584L124.05 91.8821H133.462L130.928 93.3275Z" fill="#535461"/>
<path opacity="0.1" d="M117.898 28.562C117.898 28.562 105.228 35.4179 103.427 49.1234L117.898 28.562Z" fill="white"/>
<path d="M171.517 131.041H164.276L165.544 126.714H169.886L171.517 131.041Z" fill="#3AD29F"/>
<path d="M197.762 85.4006C197.762 101.939 184.31 126.171 167.718 126.171C151.126 126.171 137.674 101.926 137.674 85.4006C137.674 77.4584 140.839 69.8416 146.474 64.2256C152.108 58.6096 159.75 55.4546 167.718 55.4546C175.686 55.4546 183.328 58.6096 188.962 64.2256C194.597 69.8416 197.762 77.4584 197.762 85.4006Z" fill="#3AD29F"/>
<path d="M169.886 126.892H165.544L163.01 125.449H172.419L169.886 126.892Z" fill="#535461"/>
<path opacity="0.1" d="M156.856 62.1294C156.856 62.1294 144.186 68.9853 142.385 82.6908L156.856 62.1294Z" fill="white"/>
<path d="M178.01 176.449L94.9222 180.59L97.4754 231.487L180.563 227.346L178.01 176.449Z" fill="url(#paint16_linear)"/>
<path d="M176.208 177.29L96.043 181.38L98.479 228.818L178.644 224.728L176.208 177.29Z" fill="#EEEEEE"/>
<path d="M100.072 192.348L110.272 191.828L109.885 184.303L99.686 184.824L100.072 192.348Z" fill="#007CC4"/>
<path d="M109.189 206.562L148.354 204.564L148.229 202.124L109.064 204.122L109.189 206.562Z" fill="#007CC4"/>
<path d="M120.064 211.307L148.624 209.85L148.54 208.223L119.98 209.68L120.064 211.307Z" fill="#007CC4"/>
</g>
<defs>
<filter id="filter0_d" x="0" y="0" width="275" height="239" filterUnits="userSpaceOnUse" color-interpolation-filters="sRGB">
<feFlood flood-opacity="0" result="BackgroundImageFix"/>
<feColorMatrix in="SourceAlpha" type="matrix" values="0 0 0 0 0 0 0 0 0 0 0 0 0 0 0 0 0 0 127 0"/>
<feOffset dy="4"/>
<feGaussianBlur stdDeviation="2"/>
<feColorMatrix type="matrix" values="0 0 0 0 0 0 0 0 0 0 0 0 0 0 0 0 0 0 0.15 0"/>
<feBlend mode="normal" in2="BackgroundImageFix" result="effect1_dropShadow"/>
<feBlend mode="normal" in="SourceGraphic" in2="effect1_dropShadow" result="shape"/>
</filter>
<linearGradient id="paint0_linear" x1="147.623" y1="162.704" x2="141.994" y2="143.76" gradientUnits="userSpaceOnUse">
<stop stop-color="#808080" stop-opacity="0.25"/>
<stop offset="0.54" stop-color="#808080" stop-opacity="0.12"/>
<stop offset="1" stop-color="#808080" stop-opacity="0.1"/>
</linearGradient>
<linearGradient id="paint1_linear" x1="1626.82" y1="11253.3" x2="2021.26" y2="9221.22" gradientUnits="userSpaceOnUse">
<stop stop-color="#808080" stop-opacity="0.25"/>
<stop offset="0.54" stop-color="#808080" stop-opacity="0.12"/>
<stop offset="1" stop-color="#808080" stop-opacity="0.1"/>
</linearGradient>
<linearGradient id="paint2_linear" x1="-11382.6" y1="10102.3" x2="-9479.54" y2="9274.09" gradientUnits="userSpaceOnUse">
<stop stop-color="#808080" stop-opacity="0.25"/>
<stop offset="0.54" stop-color="#808080" stop-opacity="0.12"/>
<stop offset="1" stop-color="#808080" stop-opacity="0.1"/>
</linearGradient>
<linearGradient id="paint3_linear" x1="2143.84" y1="5698.34" x2="1781.44" y2="4478.73" gradientUnits="userSpaceOnUse">
<stop stop-color="#808080" stop-opacity="0.25"/>
<stop offset="0.54" stop-color="#808080" stop-opacity="0.12"/>
<stop offset="1" stop-color="#808080" stop-opacity="0.1"/>
</linearGradient>
<linearGradient id="paint4_linear" x1="1024.79" y1="1701.28" x2="1419.23" y2="-330.821" gradientUnits="userSpaceOnUse">
<stop stop-color="#808080" stop-opacity="0.25"/>
<stop offset="0.54" stop-color="#808080" stop-opacity="0.12"/>
<stop offset="1" stop-color="#808080" stop-opacity="0.1"/>
</linearGradient>
<linearGradient id="paint5_linear" x1="-11925.2" y1="3793.63" x2="-10022.1" y2="2965.42" gradientUnits="userSpaceOnUse">
<stop stop-color="#808080" stop-opacity="0.25"/>
<stop offset="0.54" stop-color="#808080" stop-opacity="0.12"/>
<stop offset="1" stop-color="#808080" stop-opacity="0.1"/>
</linearGradient>
<linearGradient id="paint6_linear" x1="-7341.08" y1="11440.9" x2="-7703.54" y2="10221.1" gradientUnits="userSpaceOnUse">
<stop stop-color="#808080" stop-opacity="0.25"/>
<stop offset="0.54" stop-color="#808080" stop-opacity="0.12"/>
<stop offset="1" stop-color="#808080" stop-opacity="0.1"/>
</linearGradient>
<linearGradient id="paint7_linear" x1="-5154.6" y1="9682.29" x2="-4760.16" y2="7650.19" gradientUnits="userSpaceOnUse">
<stop stop-color="#808080" stop-opacity="0.25"/>
<stop offset="0.54" stop-color="#808080" stop-opacity="0.12"/>
<stop offset="1" stop-color="#808080" stop-opacity="0.1"/>
</linearGradient>
<linearGradient id="paint8_linear" x1="-21533" y1="10137.9" x2="-19629.9" y2="9309.67" gradientUnits="userSpaceOnUse">
<stop stop-color="#808080" stop-opacity="0.25"/>
<stop offset="0.54" stop-color="#808080" stop-opacity="0.12"/>
<stop offset="1" stop-color="#808080" stop-opacity="0.1"/>
</linearGradient>
<linearGradient id="paint9_linear" x1="-6374.77" y1="7584.74" x2="-6737.17" y2="6365.12" gradientUnits="userSpaceOnUse">
<stop stop-color="#808080" stop-opacity="0.25"/>
<stop offset="0.54" stop-color="#808080" stop-opacity="0.12"/>
<stop offset="1" stop-color="#808080" stop-opacity="0.1"/>
</linearGradient>
<linearGradient id="paint10_linear" x1="-4474.72" y1="3852.57" x2="-4082.65" y2="1823.7" gradientUnits="userSpaceOnUse">
<stop stop-color="#808080" stop-opacity="0.25"/>
<stop offset="0.54" stop-color="#808080" stop-opacity="0.12"/>
<stop offset="1" stop-color="#808080" stop-opacity="0.1"/>
</linearGradient>
<linearGradient id="paint11_linear" x1="-20303.5" y1="6122.76" x2="-18400.4" y2="5294.55" gradientUnits="userSpaceOnUse">
<stop stop-color="#808080" stop-opacity="0.25"/>
<stop offset="0.54" stop-color="#808080" stop-opacity="0.12"/>
<stop offset="1" stop-color="#808080" stop-opacity="0.1"/>
</linearGradient>
<linearGradient id="paint12_linear" x1="13741.2" y1="34214.9" x2="16955.9" y2="34214.9" gradientUnits="userSpaceOnUse">
<stop stop-color="#808080" stop-opacity="0.25"/>
<stop offset="0.54" stop-color="#808080" stop-opacity="0.12"/>
<stop offset="1" stop-color="#808080" stop-opacity="0.1"/>
</linearGradient>
<linearGradient id="paint13_linear" x1="5238.9" y1="45422.8" x2="5533.84" y2="45422.8" gradientUnits="userSpaceOnUse">
<stop stop-color="#808080" stop-opacity="0.25"/>
<stop offset="0.54" stop-color="#808080" stop-opacity="0.12"/>
<stop offset="1" stop-color="#808080" stop-opacity="0.1"/>
</linearGradient>
<linearGradient id="paint14_linear" x1="6116.27" y1="32286.9" x2="6391.14" y2="32286.9" gradientUnits="userSpaceOnUse">
<stop stop-color="#808080" stop-opacity="0.25"/>
<stop offset="0.54" stop-color="#808080" stop-opacity="0.12"/>
<stop offset="1" stop-color="#808080" stop-opacity="0.1"/>
</linearGradient>
<linearGradient id="paint15_linear" x1="81695.8" y1="57258" x2="81695.8" y2="15727.4" gradientUnits="userSpaceOnUse">
<stop stop-color="#808080" stop-opacity="0.25"/>
<stop offset="0.54" stop-color="#808080" stop-opacity="0.12"/>
<stop offset="1" stop-color="#808080" stop-opacity="0.1"/>
</linearGradient>
<linearGradient id="paint16_linear" x1="412.679" y1="40214.9" x2="-8.01711" y2="31773.4" gradientUnits="userSpaceOnUse">
<stop stop-color="#808080" stop-opacity="0.25"/>
<stop offset="0.54" stop-color="#808080" stop-opacity="0.12"/>
<stop offset="1" stop-color="#808080" stop-opacity="0.1"/>
</linearGradient>
<clipPath id="clip0">
<rect width="267" height="231" fill="white" transform="translate(4)"/>
</clipPath>
</defs>
</svg>
