<svg width="309" height="233" viewBox="0 0 309 233" fill="none" xmlns="http://www.w3.org/2000/svg">
<g clip-path="url(#clip0)">
<path opacity="0.1" d="M276.728 231.89C291.673 231.89 303.788 228.901 303.788 225.213C303.788 221.525 291.673 218.535 276.728 218.535C261.783 218.535 249.667 221.525 249.667 225.213C249.667 228.901 261.783 231.89 276.728 231.89Z" fill="#4EA13B"/>
<path opacity="0.1" d="M37.8539 233.003C52.799 233.003 64.9144 230.013 64.9144 226.325C64.9144 222.637 52.799 219.648 37.8539 219.648C22.9088 219.648 10.7933 222.637 10.7933 226.325C10.7933 230.013 22.9088 233.003 37.8539 233.003Z" fill="#4EA13B"/>
<path d="M185.091 62.8788C185.091 62.8788 181.287 61.337 169.194 66.8804C157.1 72.4239 155.581 71.7164 152.456 70.8686C149.332 70.0207 147.591 69.8209 144.223 65.1982C144.223 65.1982 141.855 52.3778 139.565 50.3905C137.276 48.4032 127.537 51.5219 127.537 51.5219C127.537 51.5219 115.862 54.1977 113.637 38.6124C113.637 38.6124 115.216 26.8639 113.067 23.2592C113.067 23.2592 117.392 25.1304 124.566 22.1117C131.74 19.0929 137.457 25.3519 137.457 25.3519C137.457 25.3519 139.263 30.0231 139.079 32.807C138.895 35.5909 140.033 36.6358 143.45 35.2912C143.45 35.2912 145.126 32.9069 142.75 28.9674C140.374 25.0278 138.679 22.09 139.344 19.0308C140.009 15.9715 141.912 11.7403 148.037 9.60718C154.162 7.47405 162.482 7.07443 166.477 5.41383C170.472 3.75322 171.437 2.67316 171.437 2.67316C171.437 2.67316 168.975 5.14111 174.773 15.5665C180.571 25.9918 176.873 30.52 176.873 30.52C176.873 30.52 173.792 37.8536 160.195 37.2704C160.195 37.2704 147.094 37.7483 154.249 43.2999C154.249 43.2999 158.825 42.3683 165.664 40.1974C172.502 38.0264 177.441 46.9883 178.665 53.2257C179.89 59.4631 185.091 62.8788 185.091 62.8788Z" fill="#4EA13B"/>
<path d="M167.475 10.5874L167.548 10.5685C168.072 12.5585 162.215 20.5591 157.211 26.9126L157.152 26.8666C164.215 17.8994 167.883 12.1183 167.475 10.5874Z" fill="#444053"/>
<path d="M157.257 26.7343L157.287 26.8153C153.289 31.8944 148.261 37.9535 144.236 42.4412C143.853 42.8705 143.471 43.3188 143.104 43.7778L142.99 43.6833C143.358 43.2243 143.742 42.7733 144.126 42.3332C148.148 37.859 153.262 31.8107 157.257 26.7343Z" fill="#444053"/>
<path d="M143.088 43.5645L143.166 43.6995C135.841 52.8342 135.357 67.0181 135.327 67.1423L133.781 65.3602C133.813 65.236 135.711 52.7613 143.088 43.5645Z" fill="#444053"/>
<path d="M176.595 57.924C176.595 57.924 167.945 53.439 161.228 55.0483C154.511 56.6576 139.333 49.3617 139.333 49.3617C139.333 49.3617 132.897 46.748 131.605 43.7724C131.605 43.7724 127.191 39.1119 126.939 36.698C126.688 34.284 122.39 28.2194 119.587 27.9845" stroke="#444053" stroke-miterlimit="10"/>
<path d="M175.346 62.2415C175.346 62.2415 170.989 59.3145 171.502 55.9042" stroke="#444053" stroke-miterlimit="10"/>
<path d="M168.672 66.0245C168.672 66.0245 162.455 63.7671 161.828 54.9241" stroke="#444053" stroke-miterlimit="10"/>
<path d="M158.636 68.3142C158.636 68.3142 152.689 63.3864 154.665 54.7783" stroke="#444053" stroke-miterlimit="10"/>
<path d="M146.575 65.9056C146.575 65.9056 142.615 57.6134 146.137 52.2185" stroke="#444053" stroke-miterlimit="10"/>
<path d="M176.698 52.4588C176.698 52.4588 172.197 53.8845 173.162 56.2391" stroke="#444053" stroke-miterlimit="10"/>
<path d="M171.259 44.3016C171.259 44.3016 165.239 46.2107 165.096 54.7162" stroke="#444053" stroke-miterlimit="10"/>
<path d="M162.88 42.3386C162.88 42.3386 157.403 49.089 157.806 55.2319" stroke="#444053" stroke-miterlimit="10"/>
<path d="M153.278 44.9875C153.278 44.9875 147.837 50.1826 148.532 53.0745" stroke="#444053" stroke-miterlimit="10"/>
<path d="M149.997 43.1514C149.997 43.1514 144.893 44.0667 144.18 42.3926" stroke="#444053" stroke-miterlimit="10"/>
<path d="M143.366 36.9977C143.366 36.9977 145.945 40.408 146.61 39.6438" stroke="#444053" stroke-miterlimit="10"/>
<path d="M168.924 34.8402C168.924 34.8402 156.062 35.7664 153.148 31.8997" stroke="#444053" stroke-miterlimit="10"/>
<path d="M140.66 19.8111C140.66 19.8111 146.696 32.753 151.078 34.392" stroke="#444053" stroke-miterlimit="10"/>
<path d="M146.991 13.6466C146.991 13.6466 150.699 25.5517 155.292 29.2671" stroke="#444053" stroke-miterlimit="10"/>
<path d="M174.338 25.017C174.338 25.017 164.555 29.2104 158.682 24.9684" stroke="#444053" stroke-width="0.75" stroke-miterlimit="10"/>
<path d="M155.706 11.1085C155.706 11.1085 157.941 19.8597 160.952 21.9739" stroke="#444053" stroke-width="0.75" stroke-miterlimit="10"/>
<path d="M172.859 15.2154C172.859 15.2154 167.364 17.2946 165.31 15.7015" stroke="#444053" stroke-width="0.75" stroke-miterlimit="10"/>
<path d="M138.657 39.8571C138.657 39.8571 138.657 47.4851 136.579 48.0278" stroke="#444053" stroke-miterlimit="10"/>
<path d="M121.663 49.7398C121.663 49.7398 129.918 50.4472 133.727 46.1917" stroke="#444053" stroke-miterlimit="10"/>
<path d="M136.527 30.8467C136.527 30.8467 134.53 38.5827 129.018 40.6672" stroke="#444053" stroke-miterlimit="10"/>
<path d="M116.711 41.5907C116.711 41.5907 122.555 43.6212 127.58 38.4531" stroke="#444053" stroke-miterlimit="10"/>
<path d="M130.029 24.1962C130.029 24.1962 129.488 30.7657 125.901 33.8412" stroke="#444053" stroke-miterlimit="10"/>
<path d="M116.927 31.5784C116.927 31.5784 121.776 31.6135 122.912 30.0339" stroke="#444053" stroke-miterlimit="10"/>
<path d="M274.128 40.5322H23.998C22.1334 40.5322 20.6218 42.0421 20.6218 43.9047V182.518C20.6218 184.38 22.1334 185.89 23.998 185.89H274.128C275.992 185.89 277.504 184.38 277.504 182.518V43.9047C277.504 42.0421 275.992 40.5322 274.128 40.5322Z" fill="url(#paint0_linear)"/>
<path d="M273.749 42.5762H24.4062C22.5416 42.5762 21.03 44.0861 21.03 45.9487V182.034C21.03 183.897 22.5416 185.407 24.4062 185.407H273.749C275.614 185.407 277.125 183.897 277.125 182.034V45.9487C277.125 44.0861 275.614 42.5762 273.749 42.5762Z" fill="white"/>
<path d="M273.749 42.5762H24.4062C22.5416 42.5762 21.03 44.0861 21.03 45.9487V182.034C21.03 183.897 22.5416 185.407 24.4062 185.407H273.749C275.614 185.407 277.125 183.897 277.125 182.034V45.9487C277.125 44.0861 275.614 42.5762 273.749 42.5762Z" fill="white"/>
<path opacity="0.04" d="M273.749 42.5762H24.4062C22.5416 42.5762 21.03 44.0861 21.03 45.9487V182.034C21.03 183.897 22.5416 185.407 24.4062 185.407H273.749C275.614 185.407 277.125 183.897 277.125 182.034V45.9487C277.125 44.0861 275.614 42.5762 273.749 42.5762Z" fill="#5A5773"/>
<path d="M275.825 40.9372H22.3193C21.9745 40.9372 21.6438 41.0741 21.4 41.3176C21.1561 41.5612 21.0192 41.8916 21.0192 42.236V47.7281H277.114V42.2468C277.116 42.0762 277.084 41.9071 277.02 41.749C276.956 41.5908 276.861 41.4469 276.741 41.3253C276.622 41.2036 276.479 41.1068 276.322 41.0402C276.165 40.9736 275.996 40.9386 275.825 40.9372Z" fill="#5A5773"/>
<path d="M26.1442 46.0864C27.1146 46.0864 27.9012 45.3006 27.9012 44.3313C27.9012 43.362 27.1146 42.5762 26.1442 42.5762C25.1738 42.5762 24.3872 43.362 24.3872 44.3313C24.3872 45.3006 25.1738 46.0864 26.1442 46.0864Z" fill="white"/>
<path d="M30.8746 46.0864C31.8449 46.0864 32.6316 45.3006 32.6316 44.3313C32.6316 43.362 31.8449 42.5762 30.8746 42.5762C29.9042 42.5762 29.1176 43.362 29.1176 44.3313C29.1176 45.3006 29.9042 46.0864 30.8746 46.0864Z" fill="white"/>
<path d="M35.605 46.0864C36.5754 46.0864 37.362 45.3006 37.362 44.3313C37.362 43.362 36.5754 42.5762 35.605 42.5762C34.6347 42.5762 33.848 43.362 33.848 44.3313C33.848 45.3006 34.6347 46.0864 35.605 46.0864Z" fill="white"/>
<path d="M248.962 79.3471H40.9274C39.4062 79.3471 38.173 80.579 38.173 82.0985V182.653C38.173 184.172 39.4062 185.404 40.9274 185.404H248.962C250.483 185.404 251.716 184.172 251.716 182.653V82.0985C251.716 80.579 250.483 79.3471 248.962 79.3471Z" fill="white"/>
<path opacity="0.2" d="M89.499 54.9349H30.1609C29.5847 54.9349 29.1176 55.4015 29.1176 55.9771V60.3325C29.1176 60.9081 29.5847 61.3748 30.1609 61.3748H89.499C90.0752 61.3748 90.5424 60.9081 90.5424 60.3325V55.9771C90.5424 55.4015 90.0752 54.9349 89.499 54.9349Z" fill="#5A5773"/>
<path opacity="0.2" d="M205.326 91.6571H145.988C145.412 91.6571 144.945 92.1238 144.945 92.6994V97.0548C144.945 97.6304 145.412 98.097 145.988 98.097H205.326C205.902 98.097 206.369 97.6304 206.369 97.0548V92.6994C206.369 92.1238 205.902 91.6571 205.326 91.6571Z" fill="#4EA13B"/>
<path opacity="0.2" d="M239.815 109.689H145.988C145.412 109.689 144.945 110.155 144.945 110.731V115.086C144.945 115.662 145.412 116.129 145.988 116.129H239.815C240.391 116.129 240.858 115.662 240.858 115.086V110.731C240.858 110.155 240.391 109.689 239.815 109.689Z" fill="#4EA13B"/>
<path opacity="0.2" d="M239.815 120.22H145.988C145.412 120.22 144.945 120.686 144.945 121.262V125.617C144.945 126.193 145.412 126.659 145.988 126.659H239.815C240.391 126.659 240.858 126.193 240.858 125.617V121.262C240.858 120.686 240.391 120.22 239.815 120.22Z" fill="#4EA13B"/>
<path opacity="0.2" d="M239.815 130.75H145.988C145.412 130.75 144.945 131.217 144.945 131.792V136.148C144.945 136.723 145.412 137.19 145.988 137.19H239.815C240.391 137.19 240.858 136.723 240.858 136.148V131.792C240.858 131.217 240.391 130.75 239.815 130.75Z" fill="#4EA13B"/>
<path opacity="0.2" d="M239.815 141.281H145.988C145.412 141.281 144.945 141.747 144.945 142.323V146.678C144.945 147.254 145.412 147.721 145.988 147.721H239.815C240.391 147.721 240.858 147.254 240.858 146.678V142.323C240.858 141.747 240.391 141.281 239.815 141.281Z" fill="#4EA13B"/>
<path opacity="0.2" d="M239.815 152.891H50.7936C50.2174 152.891 49.7502 153.358 49.7502 153.934V158.289C49.7502 158.865 50.2174 159.331 50.7936 159.331H239.815C240.391 159.331 240.858 158.865 240.858 158.289V153.934C240.858 153.358 240.391 152.891 239.815 152.891Z" fill="#4EA13B"/>
<path opacity="0.2" d="M239.815 163.422H50.7936C50.2174 163.422 49.7502 163.889 49.7502 164.464V168.82C49.7502 169.395 50.2174 169.862 50.7936 169.862H239.815C240.391 169.862 240.858 169.395 240.858 168.82V164.464C240.858 163.889 240.391 163.422 239.815 163.422Z" fill="#4EA13B"/>
<path opacity="0.2" d="M239.815 173.953H50.7936C50.2174 173.953 49.7502 174.419 49.7502 174.995V179.35C49.7502 179.926 50.2174 180.393 50.7936 180.393H239.815C240.391 180.393 240.858 179.926 240.858 179.35V174.995C240.858 174.419 240.391 173.953 239.815 173.953Z" fill="#4EA13B"/>
<path d="M197.136 178.211C197.136 178.211 198.739 180.304 196.395 183.465C194.052 186.627 192.122 189.295 192.903 191.266C192.903 191.266 196.436 185.396 199.314 185.326C202.193 185.256 200.301 181.74 197.136 178.211Z" fill="#4EA13B"/>
<path opacity="0.1" d="M197.136 178.211C197.275 178.413 197.385 178.634 197.463 178.867C200.271 182.161 201.766 185.237 199.068 185.312C196.555 185.385 193.538 189.876 192.816 191.007C192.839 191.099 192.868 191.189 192.903 191.277C192.903 191.277 196.436 185.407 199.314 185.337C202.193 185.266 200.301 181.74 197.136 178.211Z" fill="black"/>
<path d="M200.114 180.879C200.114 181.616 200.033 182.213 199.931 182.213C199.828 182.213 199.747 181.616 199.747 180.879C199.747 180.142 199.85 180.49 199.952 180.49C200.055 180.49 200.114 180.142 200.114 180.879Z" fill="#FFD037"/>
<path d="M201.139 181.759C200.49 182.11 199.925 182.323 199.877 182.234C199.828 182.145 200.315 181.786 200.958 181.424C201.601 181.062 201.35 181.327 201.399 181.424C201.447 181.521 201.785 181.405 201.139 181.759Z" fill="#FFD037"/>
<path d="M188.67 178.211C188.67 178.211 187.067 180.304 189.408 183.465C191.748 186.627 193.684 189.295 192.903 191.266C192.903 191.266 189.367 185.396 186.491 185.326C183.615 185.256 185.504 181.74 188.67 178.211Z" fill="#4EA13B"/>
<path opacity="0.1" d="M188.67 178.211C188.528 178.413 188.417 178.634 188.34 178.867C185.534 182.161 184.039 185.237 186.737 185.312C189.251 185.385 192.265 189.876 192.986 191.007C192.965 191.099 192.937 191.189 192.903 191.277C192.903 191.277 189.367 185.407 186.491 185.337C183.615 185.266 185.504 181.74 188.67 178.211Z" fill="black"/>
<path d="M185.688 180.879C185.688 181.616 185.772 182.213 185.875 182.213C185.977 182.213 186.059 181.616 186.059 180.879C186.059 180.142 185.956 180.495 185.856 180.495C185.756 180.495 185.688 180.142 185.688 180.879Z" fill="#FFD037"/>
<path d="M184.666 181.759C185.315 182.11 185.88 182.323 185.929 182.234C185.977 182.145 185.491 181.786 184.848 181.424C184.204 181.062 184.456 181.327 184.407 181.424C184.358 181.521 184.018 181.405 184.666 181.759Z" fill="#FFD037"/>
<path opacity="0.1" d="M192.903 207.281C202.159 207.281 209.662 206.131 209.662 204.713C209.662 203.295 202.159 202.145 192.903 202.145C183.647 202.145 176.144 203.295 176.144 204.713C176.144 206.131 183.647 207.281 192.903 207.281Z" fill="#4EA13B"/>
<path d="M201.534 188.445L201.452 189.098L201.342 190.021L201.293 190.408L201.182 191.331L201.134 191.717L201.02 192.638L199.739 203.142C199.622 204.079 198.09 204.81 196.225 204.81H189.57C187.718 204.81 186.188 204.079 186.075 203.142L184.788 192.646L184.677 191.725L184.629 191.339L184.515 190.416L184.469 190.03L184.355 189.106L184.274 188.453C184.212 187.913 185.042 187.475 186.088 187.475H199.717C200.763 187.467 201.593 187.913 201.534 188.445Z" fill="#65617D"/>
<path d="M201.447 189.098L201.336 190.021H184.469L184.356 189.098H201.447Z" fill="#9D9CB5"/>
<path d="M201.288 190.405L201.177 191.328H184.629L184.515 190.405H201.288Z" fill="#9D9CB5"/>
<path d="M201.128 191.714L201.015 192.638H184.788L184.677 191.714H201.128Z" fill="#9D9CB5"/>
<path opacity="0.2" d="M129.086 88.0848H52.0479C50.7789 88.0848 49.7502 89.1124 49.7502 90.3799V145.609C49.7502 146.877 50.7789 147.904 52.0479 147.904H129.086C130.355 147.904 131.383 146.877 131.383 145.609V90.3799C131.383 89.1124 130.355 88.0848 129.086 88.0848Z" fill="#4EA13B"/>
<path d="M304.11 154.614C304.213 154.344 303.451 152.8 303.451 152.724C303.451 152.648 302.664 151.793 302.664 151.315C302.664 150.837 301.623 149.802 301.623 149.802C301.623 149.802 300.226 149.225 300.075 147.964C299.923 146.703 298.401 146.681 298.399 146.681C298.399 146.681 298.399 146.568 298.399 146.392C298.429 145.894 298.366 145.395 298.212 144.921C298.033 144.573 297.723 144.309 297.35 144.189C297.35 144.189 297.196 143.206 296.893 142.904C296.724 142.727 296.603 142.511 296.54 142.274C296.478 142.038 296.477 141.79 296.536 141.553C296.69 141.078 296.333 139.869 295.598 139.69C294.863 139.512 294.022 139.237 294.022 139.237L293.82 139.272L293.72 139.237C293.541 139.271 293.36 139.293 293.179 139.304C293.024 139.309 292.872 139.259 292.749 139.164C292.495 138.894 290.438 138.354 290.046 138.354C289.654 138.354 288.573 137.849 288.573 137.849C288.573 137.849 287.811 137.271 287.492 137.017C287.173 136.763 286.619 135.843 286.535 135.702V135.683C286.442 135.469 286.365 135.248 286.305 135.022C286.677 134.633 286.994 134.196 287.248 133.723C287.275 133.674 287.3 133.626 287.324 133.574C287.38 133.575 287.435 133.566 287.489 133.55L287.557 133.523C287.684 133.457 287.798 133.366 287.891 133.256C287.984 133.145 288.054 133.018 288.097 132.881C288.116 132.826 288.132 132.77 288.146 132.713C288.146 132.694 288.146 132.675 288.146 132.656L288.17 132.543C288.169 132.521 288.169 132.5 288.17 132.478L288.186 132.365V132.3C288.186 132.251 288.186 132.206 288.205 132.157C288.222 131.976 288.248 131.795 288.284 131.617C288.435 130.934 288.849 130.356 289.138 129.727C289.178 129.638 289.219 129.546 289.254 129.457C289.289 129.368 289.324 129.254 289.354 129.152L289.378 129.057C289.397 128.982 289.414 128.906 289.43 128.83C289.446 128.755 289.43 128.763 289.449 128.728C289.465 128.625 289.478 128.52 289.489 128.412C289.537 127.809 289.445 127.204 289.219 126.643C289.03 126.171 288.746 125.744 288.554 125.271C288.262 124.556 288.184 123.743 287.83 123.06C287.541 122.506 287.064 122.072 286.485 121.837C285.905 121.601 285.261 121.579 284.667 121.775C284.126 121.98 283.634 122.377 283.075 122.555C282.323 122.795 281.523 122.615 280.745 122.509C279.966 122.404 279.123 122.39 278.485 122.898C277.766 123.481 277.571 124.578 276.896 125.217C276.625 125.488 276.26 125.658 275.96 125.906C275.749 126.075 275.587 126.297 275.49 126.549L275.474 126.6C275.467 126.622 275.461 126.645 275.458 126.667C275.451 126.692 275.447 126.718 275.444 126.743C275.443 126.76 275.443 126.777 275.444 126.794C275.439 126.839 275.439 126.885 275.444 126.929C275.448 126.972 275.454 127.014 275.463 127.056V127.091C275.463 127.127 275.482 127.162 275.495 127.197C275.509 127.232 275.495 127.21 275.495 127.216C275.495 127.221 275.525 127.294 275.541 127.332L275.566 127.388C275.566 127.405 275.566 127.421 275.587 127.434C275.684 127.622 275.763 127.818 275.822 128.02C275.854 128.148 275.845 128.283 275.798 128.406C275.734 128.547 275.642 128.673 275.528 128.776C275.022 129.301 274.632 129.925 274.382 130.61C274.351 130.689 274.324 130.767 274.301 130.845H274.336C274.408 130.865 274.483 130.881 274.557 130.891C274.6 130.893 274.642 130.893 274.684 130.891C274.858 130.901 275.033 130.888 275.203 130.853L275.333 130.82C275.51 130.774 275.682 130.712 275.847 130.634C275.847 130.685 275.847 130.737 275.847 130.788C275.847 130.839 275.847 130.845 275.847 130.874C275.848 131.989 276.161 133.08 276.75 134.027C277.339 134.973 278.18 135.737 279.18 136.231C279.18 136.285 279.193 136.339 279.201 136.393L279.218 136.531L279.15 136.466C279.15 136.466 278.693 136.24 278.261 136.893C277.943 137.322 277.513 137.654 277.017 137.852C277.017 137.852 272.395 138.581 272.217 139.185L270.054 139.312C270.054 139.312 269.292 139.412 269.216 141C269.14 142.588 268.735 142.736 268.735 142.736C268.735 142.736 267.846 144.3 267.924 145.104C267.934 145.35 267.874 145.593 267.753 145.807C267.632 146.02 267.453 146.196 267.237 146.314L267.137 147.75C267.137 147.75 266.3 147.623 266.056 148.606C265.959 149.127 265.743 149.618 265.424 150.04C265.424 150.04 264.026 151.201 263.951 152.181L263.086 152.721C263.086 152.721 261.08 152.268 260.623 151.463C260.623 151.463 260.569 151.409 260.482 151.331V151.312C260.182 151.042 259.547 150.437 259.645 150.575C259.704 150.701 259.719 150.844 259.685 150.98L259.536 150.815L259.136 150.372C259.136 150.372 255.893 147.337 254.001 147.097C253.976 147.048 253.852 146.557 253.527 146.867C253.259 147.114 253.044 147.413 252.897 147.746C252.749 148.079 252.672 148.439 252.67 148.803C252.669 149.168 252.742 149.528 252.886 149.863C253.031 150.197 253.242 150.499 253.509 150.748L256.547 153.58L256.625 153.637L257.277 154.474C257.166 154.744 257.074 154.992 257.006 155.224V155.249L256.958 155.395C256.952 155.41 256.947 155.427 256.944 155.443C256.928 155.492 256.914 155.538 256.901 155.584L256.877 155.665C256.877 155.681 256.877 155.697 256.877 155.713C256.804 155.967 256.758 156.161 256.736 156.269L256.566 156.215L256.731 156.288V156.313C256.731 156.348 256.731 156.367 256.731 156.367L256.887 156.434C257.777 156.82 262.215 158.767 262.442 159.061C262.669 159.356 264.372 160.347 265.897 159.539C267.421 158.732 267.748 157.501 267.748 157.501C267.748 157.501 269.222 155.459 269.273 155.157C269.324 154.854 270.465 154.503 270.465 154.503C270.465 154.503 270.568 157.876 269.984 159.113C269.4 160.349 268.308 165.812 268.308 165.812C268.38 165.802 268.452 165.802 268.524 165.812L268.459 166.128C268.549 166.111 268.64 166.111 268.73 166.128C268.648 166.749 268.189 169.638 268.189 169.638C268.189 169.638 268.038 170.947 267.784 171.401C267.529 171.855 267.513 174.223 267.513 174.223L267.105 175.935C267.105 175.935 267.159 176.054 267.259 176.229C267.533 176.812 267.931 177.327 268.427 177.738C268.394 178.008 268.325 178.271 268.221 178.521C268.064 178.904 267.994 179.318 268.019 179.731C268.019 179.731 267.589 181.67 267.638 182.223C267.686 182.777 267.367 184.138 267.367 184.138L266.91 188.52C266.91 188.52 266.608 192.322 266.759 193.356C266.832 194.167 266.797 194.984 266.656 195.786C266.656 195.786 266.962 198.783 266.886 199.11C266.81 199.437 266.429 200.849 266.656 201.629C266.883 202.41 266.759 204.551 266.759 204.551C266.759 204.551 266.91 207.373 267.089 208.28C267.184 208.967 267.167 209.664 267.037 210.346C267.037 210.346 266.859 212.284 266.783 212.284C266.708 212.284 266.048 213.618 267.392 214.928C268.735 216.237 267.902 216.035 267.902 216.035C267.902 216.035 266.821 215.495 266.962 216.591C267.081 217.62 267.248 217.353 267.265 217.323L267.01 218.152L267.189 218.176L267.043 218.352C266.89 218.548 266.718 218.729 266.529 218.892C266.332 219.085 266.214 219.345 266.199 219.621C266.199 219.621 264.321 221.662 262.569 222.693C261.648 223.233 260.853 223.695 260.507 224.079C260.193 224.419 260.237 224.694 260.893 224.91C262.264 225.364 264.678 225.591 266.402 225.01C267.436 224.669 268.366 224.071 269.105 223.274C269.105 223.274 270.187 222.718 271.268 222.92C272.349 223.123 274.468 221.738 274.468 221.738L274.428 221.381L274.317 220.35C274.245 220.263 274.193 220.163 274.162 220.055C274.131 219.947 274.123 219.834 274.138 219.723C274.152 219.418 274.122 219.113 274.049 218.816C274.03 218.716 274.011 218.616 273.992 218.524L274.187 218.487C274.187 218.487 273.936 217.204 274.393 216.95C274.849 216.696 274.72 213.399 274.72 213.399C274.72 213.399 274.138 212.643 273.833 212.519C273.528 212.395 273.806 210.829 273.86 210.629C273.914 210.429 274.317 206.522 274.317 206.522C274.317 206.522 274.163 205.291 274.365 204.762C274.568 204.232 274.111 202.191 274.111 202.191C274.069 202.098 274.059 201.993 274.082 201.893C274.105 201.793 274.16 201.703 274.238 201.638C274.509 201.335 274.417 198.64 274.417 198.64C274.417 198.64 274.393 197.29 274.393 196.926C274.393 196.561 274.695 195.289 274.976 194.863C275.258 194.436 275.076 193.1 275.076 193.1L275.093 193C275.093 192.962 275.093 192.913 275.114 192.857L275.136 192.722C275.26 191.984 275.426 191.253 275.633 190.534C275.963 189.479 276.344 187.616 276.344 187.616L278.704 181.465L278.731 181.392C278.731 181.392 279.812 183.406 279.812 185.272C279.812 185.272 280.083 187.513 280.018 188.118C279.953 188.723 280.193 191.566 280.193 191.566C280.193 191.566 280.523 195.646 280.523 195.821C280.523 195.997 280.931 199.145 281.185 199.626C281.439 200.107 280.931 201.565 280.777 201.716C280.623 201.867 280.829 205.569 280.829 205.569C280.829 205.569 280.447 208.491 280.372 209.095C280.296 209.7 279.991 212.017 280.245 212.924C280.499 213.832 280.396 213.956 280.396 213.956C280.396 213.956 281.312 214.89 280.777 214.966C280.583 215.008 280.4 215.091 280.241 215.21C280.081 215.329 279.949 215.48 279.853 215.654C279.757 215.828 279.699 216.02 279.683 216.218C279.667 216.416 279.694 216.615 279.761 216.802C280.079 217.723 280.453 218.625 280.88 219.502L281.302 219.413V219.712L281.331 221.214C281.331 221.214 281.51 222.648 281.407 222.977C281.334 223.215 281.231 224.343 281.183 224.935C281.164 225.151 281.153 225.294 281.153 225.294C281.153 225.294 281.153 226.628 283.972 226.225C286.792 225.823 287.297 224.713 287.297 224.713L287.319 224.575C287.359 224.322 287.451 223.782 287.527 223.479C287.627 223.077 286.716 221.262 286.716 221.262C286.716 221.262 286.564 220.028 286.31 219.753C286.204 219.59 286.134 219.406 286.105 219.213C286.083 219.11 286.062 219.005 286.046 218.902C286.109 218.91 286.172 218.921 286.235 218.935C286.235 218.935 286.081 218.055 286.667 217.776C287.254 217.498 287.097 216.92 287.021 216.669C286.946 216.418 287.248 215.006 287.248 215.006C287.205 214.865 287.202 214.716 287.237 214.573C287.273 214.43 287.347 214.3 287.451 214.196C287.808 213.842 288.086 211.374 288.086 211.374L288.138 201.854C288.138 201.854 288.316 200.166 288.113 199.486C287.911 198.805 287.708 197.496 287.986 197.142C288.265 196.788 288.011 195.154 288.011 195.154C288.011 195.154 288.011 191.704 288.392 190.834C288.773 189.965 288.646 184.562 288.646 184.562L288.746 181.011C288.746 181.011 289.576 180.228 289.381 176.151C290.265 176.094 291.273 176.062 291.414 176.186C291.684 176.413 293.495 177.571 294.563 176.839C295.004 176.537 295.427 176.21 295.831 175.859L295.382 168.299C295.652 168.72 295.831 168.998 295.831 168.998C295.831 167.942 298.828 164.516 298.828 164.516C298.828 164.516 301.621 160.914 302.229 160.487C302.837 160.06 304.032 157.787 304.032 157.787C304.208 157.355 304.412 156.935 304.643 156.529C304.924 156.099 304.01 154.89 304.11 154.614ZM297.561 157.258C296.798 157.333 295.198 159.072 295.174 159.45C295.118 159.699 295.002 159.931 294.836 160.125C294.836 159.974 294.812 159.82 294.798 159.663C294.62 157.436 294.425 154.725 294.528 154.463C294.679 154.009 294.628 151.968 294.628 151.968L294.658 151.928C295.168 153.51 296.758 155.373 296.758 155.373C296.758 155.373 297.028 156.183 297.369 156.202C297.709 156.221 297.561 157.258 297.561 157.258Z" fill="url(#paint1_linear)"/>
<path d="M256.852 156.683C256.852 156.683 257.779 151.822 260.755 151.822L262.934 156.296L261.483 157.295C261.483 157.295 258.328 157.382 256.852 156.683Z" fill="#65617D"/>
<path opacity="0.1" d="M262.934 156.283L261.483 157.282C261.483 157.282 259.263 157.352 257.677 156.963C257.394 156.901 257.117 156.81 256.852 156.693L256.868 156.615V156.599C257.004 155.99 257.192 155.393 257.431 154.817C257.523 154.598 257.625 154.374 257.739 154.15C258.174 153.313 258.788 152.489 259.631 152.084C259.94 151.928 260.277 151.836 260.623 151.814H260.755L260.804 151.914L261.539 153.426L262.934 156.283Z" fill="black"/>
<path d="M287.656 176.429C287.656 176.429 290.784 176.129 291.06 176.356C291.335 176.583 293.111 177.73 294.16 177.004C295.209 176.278 294.512 173.764 294.512 173.656C294.512 173.548 294.412 169.981 294.412 169.981L292.536 167.456L290.184 163.033L285.378 162.558L285.502 169.579L285.478 173.178L287.656 176.429Z" fill="#65617D"/>
<path opacity="0.1" d="M287.656 176.429C287.656 176.429 290.784 176.129 291.06 176.356C291.335 176.583 293.111 177.73 294.16 177.004C295.209 176.278 294.512 173.764 294.512 173.656C294.512 173.548 294.412 169.981 294.412 169.981L292.536 167.456L290.184 163.033L285.378 162.558L285.502 169.579L285.478 173.178L287.656 176.429Z" fill="black"/>
<path d="M260.131 151.685C260.131 151.685 259.88 154.733 257.969 154.784C257.969 154.784 257.428 154.46 256.703 153.918C255.033 152.667 252.379 150.267 253.114 148.034C254.165 144.834 259.269 150.734 259.269 150.734L259.663 151.174L260.131 151.685Z" fill="#FBBEBE"/>
<path opacity="0.1" d="M260.131 151.685C260.131 151.685 259.88 154.733 257.968 154.784C257.968 154.784 257.428 154.46 256.703 153.918L256.541 153.71C256.865 153.875 257.221 153.967 257.585 153.98C257.87 153.991 258.153 153.915 258.394 153.762C258.635 153.609 258.824 153.387 258.936 153.124C259.141 152.731 259.322 152.326 259.477 151.911C259.566 151.669 259.63 151.419 259.669 151.163L260.131 151.685Z" fill="black"/>
<path d="M259.304 157.209L258.877 156.669L257.436 154.817L256.704 153.869C257.026 154.034 257.382 154.126 257.744 154.139C258.03 154.151 258.313 154.076 258.555 153.923C258.796 153.77 258.985 153.547 259.096 153.283C259.297 152.891 259.473 152.487 259.623 152.073C259.861 151.398 259.855 151.053 259.772 150.934C259.688 150.815 260.312 151.388 260.599 151.668L260.737 151.798L260.788 151.901L261.542 153.359C261.544 153.379 261.544 153.4 261.542 153.421C261.596 153.88 261.839 156.793 259.304 157.209Z" fill="#E7EFFD"/>
<path d="M274.295 221.538C274.295 221.538 272.192 222.915 271.141 222.712C270.413 222.621 269.673 222.743 269.013 223.063C268.29 223.854 267.378 224.448 266.362 224.789C264.659 225.364 262.283 225.137 260.931 224.689C260.293 224.476 260.242 224.2 260.55 223.863C260.858 223.525 261.675 223.028 262.583 222.488C264.31 221.462 266.162 219.44 266.162 219.44C266.173 219.165 266.289 218.906 266.486 218.713C266.672 218.551 266.841 218.37 266.991 218.173C267.262 217.858 267.513 217.525 267.513 217.525L273.706 217.758C273.706 217.758 273.811 218.203 273.895 218.659C273.966 218.954 273.995 219.256 273.982 219.559C273.966 219.669 273.974 219.781 274.004 219.889C274.035 219.996 274.087 220.096 274.157 220.182L274.268 221.203L274.295 221.538Z" fill="#65617D"/>
<path d="M287.221 223.271C287.148 223.571 287.056 224.106 287.016 224.351C287.016 224.435 286.997 224.489 286.997 224.489C286.997 224.489 286.497 225.588 283.718 225.988C280.939 226.387 280.942 225.064 280.942 225.064L280.969 224.705C281.018 224.122 281.118 223.001 281.191 222.764C281.291 222.44 281.118 221.014 281.118 221.014L281.088 219.523L281.066 218.489L285.662 218.014C285.691 218.358 285.741 218.7 285.81 219.037C285.837 219.23 285.906 219.415 286.013 219.577C286.262 219.848 286.413 221.076 286.413 221.076C286.413 221.076 287.329 222.872 287.221 223.271Z" fill="#65617D"/>
<path opacity="0.1" d="M273.706 217.758C273.706 217.758 273.811 218.203 273.895 218.659C273.227 218.781 270.308 219.286 269.57 218.929C268.743 218.53 266.967 218.306 266.967 218.306L266.997 218.203C267.267 217.887 267.518 217.555 267.518 217.555L273.706 217.758Z" fill="black"/>
<path opacity="0.1" d="M285.826 219.046C284.661 218.848 282.102 219.316 281.096 219.532L281.074 218.497L285.67 218.022C285.702 218.366 285.754 218.708 285.826 219.046Z" fill="black"/>
<path d="M288.43 181.154L288.332 184.664C288.332 184.664 288.457 190.038 288.081 190.875C287.705 191.712 287.705 195.149 287.705 195.149C287.705 195.149 287.957 196.769 287.681 197.123C287.405 197.477 287.605 198.773 287.805 199.448C288.005 200.123 287.83 201.797 287.83 201.797L287.781 211.248C287.781 211.248 287.511 213.697 287.154 214.048C287.051 214.153 286.979 214.283 286.943 214.425C286.908 214.568 286.912 214.717 286.954 214.858C286.954 214.858 286.654 216.256 286.729 216.507C286.805 216.759 286.954 217.331 286.381 217.606C285.808 217.882 285.954 218.757 285.954 218.757C284.578 218.43 280.674 219.297 280.674 219.297C280.253 218.428 279.885 217.534 279.572 216.621C279.504 216.436 279.477 216.238 279.492 216.042C279.507 215.845 279.564 215.654 279.659 215.481C279.754 215.309 279.885 215.158 280.043 215.04C280.201 214.921 280.382 214.838 280.574 214.796C281.099 214.723 280.199 213.796 280.199 213.796C280.199 213.796 280.299 213.672 280.047 212.77C279.796 211.869 280.099 209.571 280.174 208.971C280.25 208.372 280.623 205.461 280.623 205.461C280.623 205.461 280.423 201.786 280.574 201.638C280.726 201.489 281.223 200.036 280.975 199.564C280.726 199.091 280.323 195.965 280.323 195.784C280.323 195.603 279.999 191.558 279.999 191.558C279.999 191.558 279.699 188.734 279.774 188.134C279.85 187.535 279.572 185.31 279.572 185.31C279.572 183.46 278.49 181.459 278.49 181.459L278.463 181.532L276.139 187.678C276.139 187.678 275.763 189.527 275.439 190.578C275.234 191.288 275.07 192.009 274.949 192.738L274.928 192.873L274.906 193.013L274.89 193.113C274.89 193.113 275.063 194.436 274.787 194.863C274.48 195.508 274.286 196.201 274.214 196.912C274.214 197.263 274.238 198.613 274.238 198.613C274.238 198.613 274.338 201.287 274.063 201.584C273.987 201.649 273.934 201.736 273.912 201.833C273.889 201.93 273.899 202.032 273.938 202.124C273.938 202.124 274.387 204.149 274.187 204.673C273.987 205.196 274.138 206.422 274.138 206.422C274.138 206.422 273.738 210.297 273.687 210.497C273.636 210.697 273.363 212.247 273.663 212.371C273.963 212.495 274.538 213.246 274.538 213.246C274.538 213.246 274.663 216.521 274.214 216.769C273.765 217.018 274.011 218.295 274.011 218.295C274.011 218.295 270.384 218.994 269.559 218.595C268.735 218.195 266.956 217.971 266.956 217.971L267.205 217.161C267.189 217.191 267.024 217.458 266.908 216.435C266.781 215.354 267.832 215.894 267.832 215.894C267.832 215.894 268.659 216.094 267.332 214.796C266.005 213.497 266.656 212.171 266.732 212.171C266.808 212.171 266.981 210.246 266.981 210.246C267.109 209.57 267.126 208.878 267.032 208.196C266.856 207.297 266.708 204.497 266.708 204.497C266.708 204.497 266.832 202.372 266.605 201.597C266.378 200.822 266.756 199.437 266.832 199.097C266.908 198.757 266.605 195.797 266.605 195.797C266.746 194.995 266.781 194.178 266.708 193.367C266.556 192.341 266.856 188.566 266.856 188.566L267.308 184.219C267.308 184.219 267.632 182.869 267.578 182.329C267.524 181.789 267.954 179.855 267.954 179.855C267.929 179.445 267.998 179.034 268.154 178.654C268.405 178.154 268.505 176.494 268.505 176.494L270.908 170.996L272.084 166.136L287.973 165.985C287.973 165.985 288.03 166.406 288.127 167.17C288.224 167.934 288.359 169.06 288.511 170.461C288.649 171.731 288.8 173.224 288.949 174.884C289.432 180.204 288.43 181.154 288.43 181.154Z" fill="#3F3D56"/>
<path d="M286.951 137.387L283.25 141.343C283.25 141.343 278.498 139.453 278.999 138.791C279.19 138.54 279.161 137.746 279.05 136.871C278.874 135.486 278.509 133.901 278.509 133.901C278.509 133.901 286.816 132.551 286.113 133.95C285.889 134.478 285.871 135.07 286.062 135.61C286.262 136.246 286.562 136.846 286.951 137.387Z" fill="#FBBEBE"/>
<path opacity="0.1" d="M286.102 133.936C285.848 134.449 285.727 134.498 285.886 135.049C284.805 136.213 283.418 137.479 281.699 137.479C280.78 137.48 279.873 137.267 279.05 136.858C278.874 135.473 278.509 133.888 278.509 133.888C278.509 133.888 286.805 132.538 286.102 133.936Z" fill="black"/>
<path d="M287.656 131.387C287.656 132.965 287.029 134.479 285.912 135.595C284.795 136.71 283.28 137.337 281.7 137.337C280.121 137.337 278.606 136.71 277.489 135.595C276.372 134.479 275.744 132.965 275.744 131.387C275.744 131.358 275.744 131.331 275.744 131.301C275.75 130.52 275.909 129.747 276.214 129.028C276.518 128.308 276.962 127.656 277.519 127.107C278.076 126.559 278.735 126.126 279.46 125.832C280.185 125.538 280.96 125.39 281.742 125.396C282.524 125.401 283.297 125.561 284.018 125.865C284.738 126.169 285.391 126.612 285.94 127.169C286.489 127.725 286.923 128.384 287.217 129.108C287.511 129.832 287.659 130.606 287.654 131.387H287.656Z" fill="#FBBEBE"/>
<path opacity="0.1" d="M288.519 170.634C287.73 170.634 285.102 170.661 282.167 170.71H282.131L281.161 170.726H281.131C277.65 170.78 274.22 170.102 272.841 170.229C269.914 170.499 273.892 167.529 273.892 167.529C276.074 168.057 278.318 168.283 280.561 168.201L281.404 168.158C284.064 168.007 286.738 167.759 288.135 167.348C288.232 168.115 288.367 169.238 288.519 170.634Z" fill="black"/>
<path d="M288.519 170.483C287.73 170.483 285.102 170.513 282.167 170.559H282.131L281.161 170.575H281.131C277.65 170.632 274.22 169.951 272.841 170.081C269.914 170.351 273.892 167.381 273.892 167.381C276.074 167.91 278.318 168.136 280.561 168.053L281.404 168.01C284.064 167.861 286.738 167.61 288.135 167.2C288.232 167.964 288.367 169.087 288.519 170.483Z" fill="#5F5D7E"/>
<path opacity="0.1" d="M280.099 139.037L275.503 141.197L271.949 168.642C271.949 168.642 274.052 167.691 275.252 168.291C276.452 168.89 280.155 168.342 280.155 168.342C280.155 168.342 282.858 168.191 283.259 168.493C283.659 168.795 288.365 167.243 288.365 167.243C288.365 167.243 289.216 165.353 288.565 165.042C287.913 164.732 288.765 161.802 288.765 161.802L288.365 142.004L287.554 139.455L285.391 138.154L283.191 139.904L282.139 140.055L280.099 139.037Z" fill="black"/>
<path d="M280.099 138.737L275.503 140.897L271.941 168.345C271.941 168.345 274.044 167.394 275.244 167.994C276.444 168.593 280.147 168.045 280.147 168.045C280.147 168.045 282.85 167.894 283.25 168.193C283.65 168.493 288.356 166.946 288.356 166.946C288.356 166.946 289.208 165.056 288.556 164.745C287.905 164.435 288.757 161.505 288.757 161.505L288.356 141.707L287.545 139.158L285.383 137.857L283.183 139.607L282.131 139.758L280.099 138.737Z" fill="#E7EFFD"/>
<path opacity="0.1" d="M280.023 140.012C280.023 140.012 281.35 141.586 281.326 141.902C281.302 142.218 281.25 143.003 281.25 143.003L280.25 145.026C280.25 145.026 279.709 147.551 279.709 148.077C279.709 148.604 278.834 153.151 278.834 153.151L277.761 160.158L276.433 169.338L277.785 171.663L279.388 170.313L281.515 153.966L281.964 150.742C281.964 150.742 282.44 144.942 282.44 144.343C282.389 143.614 282.298 142.888 282.169 142.169C282.169 142.169 282.496 140.668 283.848 140.32C285.199 139.971 283.745 140.244 283.745 140.244L282.972 139.62L282.296 139.89C282.296 139.89 280.423 139.312 280.023 140.012Z" fill="black"/>
<path d="M279.874 139.86C279.874 139.86 281.199 141.435 281.174 141.751C281.15 142.067 281.099 142.85 281.099 142.85L280.099 144.875C280.099 144.875 279.558 147.399 279.558 147.923C279.558 148.447 278.682 152.997 278.682 152.997L277.633 159.996L276.306 169.176L277.658 171.501L279.258 170.151L281.385 153.804L281.837 150.58C281.837 150.58 282.312 144.78 282.312 144.181C282.261 143.451 282.171 142.725 282.042 142.004C282.042 142.004 282.366 140.506 283.718 140.155C285.07 139.804 283.618 140.082 283.618 140.082L282.842 139.455L282.166 139.725C282.166 139.725 280.274 139.161 279.874 139.86Z" fill="#4EA13B"/>
<path opacity="0.1" d="M278.998 137.236C278.998 137.236 278.798 137.387 278.747 138.386C278.696 139.385 277.996 141.626 277.996 141.626C277.996 141.626 280.599 139.828 281.899 140.028L278.998 137.236Z" fill="black"/>
<path d="M278.998 136.936C278.998 136.936 278.798 137.087 278.747 138.086C278.696 139.086 277.996 141.327 277.996 141.327C277.996 141.327 280.599 139.528 281.899 139.728L278.998 136.936Z" fill="#E7EFFD"/>
<path opacity="0.1" d="M286.105 136.437L282.002 140.036C282.002 140.036 285.453 142.085 285.905 142.585C286.356 143.085 286.805 137.687 286.805 137.687L286.105 136.437Z" fill="black"/>
<path d="M286.254 136.137L282.15 139.736C282.15 139.736 285.605 141.786 286.054 142.285C286.502 142.785 286.954 137.387 286.954 137.387L286.254 136.137Z" fill="#E7EFFD"/>
<path opacity="0.1" d="M279.147 137.236C279.147 137.236 278.698 137.012 278.271 137.663C277.96 138.086 277.535 138.415 277.047 138.61C277.047 138.61 272.492 139.337 272.316 139.936L270.189 140.06C270.189 140.06 269.438 140.16 269.378 141.737C269.319 143.314 268.902 143.46 268.902 143.46C268.902 143.46 268.027 145.01 268.092 145.809C268.101 146.052 268.043 146.293 267.924 146.505C267.805 146.717 267.629 146.892 267.416 147.011L270.543 155.133C270.543 155.133 270.643 158.484 270.067 159.707C269.492 160.93 268.416 166.357 268.416 166.357C268.416 166.357 268.867 166.257 268.84 166.557C268.813 166.857 268.3 170.132 268.3 170.132C268.3 170.132 268.148 171.431 267.9 171.882C267.651 172.333 267.629 174.679 267.629 174.679L267.229 176.38C267.229 176.38 268.178 178.505 269.63 178.206C271.081 177.906 273.706 172.23 273.706 172.23L275.382 166.106L276.685 160.058L277.06 155.959L277.66 146.884L278.536 140.887C278.536 140.887 279.499 137.663 279.147 137.236Z" fill="black"/>
<path d="M278.999 136.936C278.999 136.936 278.547 136.712 278.123 137.363C277.81 137.786 277.385 138.115 276.896 138.311C276.896 138.311 272.341 139.037 272.165 139.636L270.04 139.761C270.04 139.761 269.289 139.86 269.213 141.435C269.138 143.009 268.738 143.16 268.738 143.16C268.738 143.16 267.862 144.71 267.927 145.509C267.937 145.752 267.879 145.994 267.76 146.206C267.64 146.418 267.464 146.593 267.251 146.711L270.389 154.844C270.389 154.844 270.489 158.195 269.913 159.418C269.338 160.641 268.262 166.068 268.262 166.068C268.262 166.068 268.713 165.968 268.689 166.268C268.665 166.568 268.148 169.84 268.148 169.84C268.148 169.84 268 171.142 267.748 171.59C267.497 172.038 267.478 174.39 267.478 174.39L267.078 176.091C267.078 176.091 268.029 178.216 269.481 177.914C270.933 177.611 273.56 171.941 273.56 171.941L275.236 165.817L276.536 159.769L276.896 155.654L277.496 146.578L278.371 140.581C278.371 140.581 279.347 137.363 278.999 136.936Z" fill="#65617D"/>
<path opacity="0.1" d="M262.934 156.283L261.483 157.282C261.483 157.282 259.263 157.352 257.677 156.963L256.866 156.604L256.704 156.534L256.871 156.588C257.516 156.817 258.215 156.842 258.874 156.658C260.929 155.967 260.701 152.581 260.62 151.814C260.62 151.736 260.607 151.687 260.604 151.668V151.687C260.633 151.733 260.665 151.777 260.699 151.82L260.791 151.917L261.542 153.359C261.544 153.379 261.544 153.4 261.542 153.421L262.934 156.283Z" fill="black"/>
<path d="M267.962 146.511L267.262 146.711L267.162 148.134C267.162 148.134 266.351 148.01 266.11 148.984C266.014 149.501 265.801 149.989 265.486 150.41C265.486 150.41 264.11 151.56 264.034 152.535L263.183 153.059C263.183 153.059 261.207 152.608 260.75 151.809C260.75 151.809 261.653 158.257 256.847 156.669C256.847 156.669 262.226 159.018 262.477 159.345C262.729 159.672 264.369 160.619 265.88 159.82C267.392 159.021 267.708 157.795 267.708 157.795C267.708 157.795 269.159 155.77 269.208 155.47C269.257 155.17 270.384 154.819 270.384 154.819L272.546 149.622L267.962 146.511Z" fill="#65617D"/>
<path opacity="0.1" d="M285.529 139.437L286.254 136.137C286.254 136.137 286.581 137.217 286.905 137.463L287.986 138.273C287.986 138.273 289.067 138.772 289.438 138.772C289.808 138.772 291.841 139.312 292.089 139.582C292.338 139.852 293.341 139.658 293.341 139.658C293.341 139.658 294.165 139.928 294.893 140.109C295.62 140.29 295.974 141.483 295.817 141.959C295.757 142.195 295.757 142.443 295.819 142.679C295.88 142.915 296 143.132 296.168 143.309C296.468 143.608 296.62 144.583 296.62 144.583C296.987 144.703 297.292 144.963 297.469 145.307C297.72 145.847 297.644 147.056 297.644 147.056L293.917 152.306C293.917 152.306 293.965 154.331 293.817 154.782C293.668 155.233 294.341 162.882 294.341 162.882L295.117 176.029C294.719 176.378 294.301 176.704 293.865 177.004C293.641 177.104 293.417 172.354 293.417 172.182C293.417 172.009 287.635 163.541 287.635 163.541C287.635 163.541 286.859 162.291 286.859 162.015C286.859 161.74 286.135 159.215 286.135 159.215L285.034 154.355L285.529 139.437Z" fill="black"/>
<path d="M297.95 146.773C297.95 146.946 297.95 147.059 297.95 147.059L294.225 152.303C294.225 152.303 294.276 154.328 294.125 154.779C294.038 155.049 294.228 157.73 294.395 159.939C294.522 161.532 294.638 162.877 294.638 162.877L294.968 168.453L295.414 176.013C295.016 176.362 294.599 176.687 294.163 176.988C293.938 177.088 293.714 172.338 293.714 172.163C293.714 171.987 287.932 163.522 287.932 163.522C287.932 163.522 287.156 162.272 287.156 161.996C287.156 161.721 286.432 159.196 286.432 159.196L285.332 154.336L285.832 139.439L286.256 136.14C286.256 136.14 286.883 137.22 287.208 137.463L288.289 138.289C288.289 138.289 289.37 138.789 289.74 138.789C290.111 138.789 292.144 139.329 292.392 139.599C292.641 139.869 293.644 139.674 293.644 139.674C293.644 139.674 294.471 139.944 295.195 140.125C295.92 140.306 296.277 141.5 296.12 141.975C296.06 142.211 296.06 142.459 296.122 142.695C296.183 142.931 296.303 143.148 296.471 143.325C296.771 143.625 296.923 144.599 296.923 144.599C297.29 144.719 297.595 144.979 297.771 145.323C297.918 145.791 297.979 146.283 297.95 146.773Z" fill="#65617D"/>
<path opacity="0.1" d="M267.362 213.372C267.486 213.372 272.741 213.572 272.641 214.423C272.541 215.273 267.362 213.372 267.362 213.372Z" fill="black"/>
<path opacity="0.1" d="M268.538 214.787C268.538 214.787 272.065 215.363 271.141 215.886C270.216 216.41 268.538 214.787 268.538 214.787Z" fill="black"/>
<path opacity="0.1" d="M281.65 212.824C281.65 212.824 287.505 213.324 286.629 213.972C285.753 214.62 283.677 214.723 283.577 214.747C283.477 214.771 281.65 212.824 281.65 212.824Z" fill="black"/>
<path opacity="0.1" d="M280.95 215.398C280.95 215.398 284.194 215.938 284.302 216.572C284.41 217.207 280.95 215.398 280.95 215.398Z" fill="black"/>
<path opacity="0.1" d="M282.75 200.35C282.75 200.35 285.724 201.049 285.905 201.524L282.75 200.35Z" fill="black"/>
<path opacity="0.1" d="M271.273 202.499C271.273 202.499 269.722 202.95 271.224 203.849C272.727 204.748 271.273 202.499 271.273 202.499Z" fill="black"/>
<path opacity="0.1" d="M278.147 178.478C278.323 178.478 281.05 177.579 282.002 177.979C282.682 178.232 283.4 178.368 284.126 178.378L278.147 178.478Z" fill="black"/>
<path opacity="0.1" d="M278.498 181.327L278.471 181.575L276.139 187.678C276.139 187.678 275.763 189.527 275.439 190.578C275.234 191.288 275.07 192.009 274.949 192.738L277.014 179.947L278.498 181.327Z" fill="black"/>
<path d="M282.131 170.559L281.161 170.575H281.131L280.561 168.056L281.404 168.01L282.131 170.559Z" fill="#3F3D56"/>
<path d="M293.936 167.508L293.314 168.021L291.233 169.73C291.233 169.73 285.605 172.73 284.053 169.881C282.685 167.37 289.067 165.577 290.606 165.185L290.933 165.107L293.936 167.508Z" fill="#FBBEBE"/>
<path opacity="0.1" d="M269.889 142.936C269.889 142.936 270.989 143.436 271.241 144.135C271.492 144.834 269.889 142.936 269.889 142.936Z" fill="black"/>
<path opacity="0.1" d="M266.486 150.434C266.486 150.434 264.886 152.384 265.535 153.134C266.183 153.885 266.486 150.434 266.486 150.434Z" fill="black"/>
<path opacity="0.1" d="M295.112 144.043C295.112 144.043 293.611 144.194 293.56 145.493L295.112 144.043Z" fill="black"/>
<path opacity="0.1" d="M281.199 164.532C281.35 164.381 284.802 159.283 285.605 159.734L281.199 164.532Z" fill="black"/>
<path opacity="0.1" d="M287.657 131.387C287.657 132.367 287.414 133.332 286.951 134.196H286.908C286.529 134.115 286.332 133.677 286.046 133.402C285.868 133.233 285.643 133.124 285.4 133.09C285.158 133.056 284.911 133.099 284.694 133.213C284.475 133.344 284.296 133.533 284.179 133.759C284.061 133.986 284.009 134.241 284.029 134.495C283.84 133.685 283.899 132.843 283.713 132.041C283.526 131.239 282.967 130.421 282.199 130.421C281.869 130.421 281.483 130.542 281.245 130.294C281.102 130.145 281.072 129.91 280.975 129.729C280.434 128.841 278.758 129.289 278.077 129.746C277.396 130.202 276.604 130.926 275.758 131.314C275.769 129.737 276.407 128.228 277.532 127.121C278.657 126.013 280.176 125.398 281.756 125.409C283.335 125.421 284.845 126.058 285.954 127.182C287.062 128.306 287.679 129.823 287.667 131.401L287.657 131.387Z" fill="black"/>
<path d="M280.964 129.565C281.072 129.746 281.101 129.981 281.234 130.132C281.472 130.378 281.858 130.251 282.188 130.256C282.956 130.27 283.518 131.082 283.702 131.876C283.886 132.67 283.829 133.529 284.021 134.328C283.999 134.074 284.05 133.819 284.167 133.592C284.284 133.366 284.463 133.177 284.683 133.048C284.9 132.935 285.146 132.892 285.389 132.925C285.631 132.959 285.857 133.067 286.035 133.234C286.321 133.504 286.518 133.95 286.897 134.028C287.275 134.106 287.638 133.745 287.773 133.348C287.87 132.938 287.942 132.522 287.989 132.103C288.159 131.325 288.67 130.685 288.951 129.943C289.287 129.041 289.278 128.047 288.927 127.151C288.738 126.681 288.459 126.26 288.27 125.801C287.981 125.091 287.905 124.286 287.554 123.608C287.272 123.059 286.803 122.629 286.232 122.394C285.66 122.16 285.024 122.136 284.437 122.328C283.896 122.534 283.421 122.928 282.869 123.106C282.129 123.344 281.339 123.165 280.574 123.057C279.809 122.949 278.953 122.941 278.347 123.443C277.639 124.024 277.444 125.112 276.779 125.747C276.509 126.017 276.152 126.184 275.857 126.43C275.698 126.547 275.569 126.7 275.479 126.876C275.389 127.053 275.342 127.247 275.341 127.445C275.387 127.964 275.882 128.433 275.706 128.914C275.641 129.052 275.549 129.176 275.436 129.279C274.879 129.863 274.464 130.568 274.225 131.339C275.576 131.755 277.014 130.28 278.061 129.584C278.747 129.127 280.415 128.679 280.964 129.565Z" fill="#7C5C5C"/>
<path opacity="0.1" d="M293.936 167.508L293.314 168.021C292.773 167.105 290.508 165.28 290.508 165.28L290.605 165.185L290.933 165.107L293.936 167.508Z" fill="black"/>
<path d="M294.536 166.581C294.536 166.581 294.314 167.138 294.082 167.618C293.849 168.099 293.598 168.536 293.587 168.183C293.56 167.481 290.66 165.131 290.66 165.131L291.052 164.748L291.508 164.305L294.536 166.581Z" fill="#E7EFFD"/>
<path opacity="0.1" d="M294.636 162.882L294.966 168.458C294.187 167.251 292.054 164.157 290.684 164.256L294.011 160.433C294.15 160.279 294.277 160.116 294.393 159.944C294.52 161.537 294.636 162.882 294.636 162.882Z" fill="black"/>
<path opacity="0.1" d="M294.536 166.581C294.536 166.581 294.314 167.138 294.082 167.618C293.209 166.425 292.011 165.013 291.052 164.748L291.508 164.305L294.536 166.581Z" fill="black"/>
<path d="M297.039 146.36L297.939 147.059C297.939 147.059 299.442 147.086 299.59 148.334C299.739 149.581 301.118 150.159 301.118 150.159C301.118 150.159 302.142 151.185 302.142 151.66C302.142 152.135 302.918 152.983 302.918 153.059C302.918 153.135 303.669 154.657 303.569 154.933C303.469 155.208 304.38 156.407 304.094 156.858C303.869 157.262 303.669 157.68 303.494 158.108C303.494 158.108 302.318 160.357 301.718 160.781C301.118 161.205 298.366 164.783 298.366 164.783C298.366 164.783 295.412 168.18 295.412 169.23C295.412 169.23 292.535 164.432 290.833 164.556L294.16 160.733C294.16 160.733 294.736 160.106 294.763 159.734C294.79 159.361 296.363 157.633 297.114 157.557C297.114 157.557 297.239 156.534 296.914 156.507C296.59 156.48 296.314 155.697 296.314 155.697C296.314 155.697 294.111 153.097 294.087 151.447C294.063 149.797 297.039 146.36 297.039 146.36Z" fill="#65617D"/>
<path opacity="0.1" d="M298.366 148.733C298.366 148.733 296.263 150.283 296.714 150.785C297.166 151.288 298.366 148.733 298.366 148.733Z" fill="black"/>
<path opacity="0.1" d="M298.466 155.133C298.466 155.133 302.369 153.882 302.769 155.133H298.466Z" fill="black"/>
<path opacity="0.1" d="M274.295 221.538C274.295 221.538 272.192 222.915 271.141 222.712C270.413 222.621 269.673 222.743 269.013 223.063C268.29 223.854 267.378 224.448 266.362 224.789C264.659 225.364 262.283 225.137 260.931 224.689C260.293 224.476 260.242 224.2 260.55 223.863C262.018 224.154 265.302 224.735 266.186 224.314C267.16 223.797 268.097 223.212 268.989 222.564C268.989 222.564 271.152 222.264 271.441 222.264C271.654 222.264 273.317 221.578 274.255 221.184L274.295 221.538Z" fill="black"/>
<path opacity="0.1" d="M287.024 224.359C287.024 224.443 287.005 224.497 287.005 224.497C287.005 224.497 286.505 225.596 283.726 225.996C280.947 226.395 280.95 225.072 280.95 225.072L280.977 224.713C281.856 225.048 283.775 225.418 287.024 224.359Z" fill="black"/>
<path opacity="0.1" d="M270.927 148.434C270.927 148.434 270.927 154.134 270.441 154.695C269.954 155.257 270.927 148.434 270.927 148.434Z" fill="black"/>
<path opacity="0.1" d="M293.484 150.272L294.211 152.308C294.211 152.308 294.498 150.31 293.484 150.272Z" fill="black"/>
<g opacity="0.1">
<path opacity="0.1" d="M275.793 128.423C275.976 127.955 275.495 127.494 275.433 126.991C275.368 127.133 275.341 127.288 275.352 127.442C275.384 127.823 275.666 128.177 275.739 128.522C275.76 128.491 275.778 128.457 275.793 128.423Z" fill="black"/>
<path opacity="0.1" d="M284.096 133.807C283.918 133.018 283.972 132.187 283.788 131.395C283.604 130.604 283.042 129.775 282.275 129.775C281.945 129.775 281.558 129.894 281.32 129.648C281.174 129.5 281.147 129.265 281.05 129.081C280.509 128.196 278.834 128.647 278.15 129.1C277.128 129.778 275.717 131.201 274.409 130.877C274.346 131.028 274.287 131.182 274.238 131.341C275.59 131.757 277.028 130.283 278.074 129.586C278.758 129.133 280.426 128.684 280.974 129.57C281.082 129.751 281.112 129.986 281.245 130.137C281.483 130.383 281.869 130.256 282.199 130.261C282.967 130.275 283.529 131.088 283.713 131.881C283.896 132.675 283.84 133.534 284.032 134.333C284.018 134.155 284.04 133.976 284.096 133.807Z" fill="black"/>
<path opacity="0.1" d="M287.859 132.87C287.724 133.267 287.367 133.631 286.981 133.55C286.594 133.469 286.407 133.032 286.121 132.756C285.943 132.589 285.718 132.48 285.475 132.447C285.233 132.413 284.987 132.455 284.769 132.567C284.561 132.692 284.389 132.87 284.272 133.083C284.155 133.296 284.097 133.537 284.104 133.78C284.205 133.474 284.415 133.216 284.694 133.056C284.91 132.943 285.157 132.9 285.399 132.933C285.642 132.967 285.867 133.075 286.045 133.242C286.332 133.512 286.529 133.958 286.908 134.036C287.286 134.115 287.648 133.753 287.783 133.356C287.857 133.122 287.903 132.881 287.921 132.638C287.906 132.716 287.885 132.794 287.859 132.87Z" fill="black"/>
<path opacity="0.1" d="M289.038 129.462C288.767 130.202 288.246 130.842 288.075 131.622C288.043 131.779 288.021 131.941 288.002 132.103C288.175 131.325 288.681 130.688 288.962 129.943C289.087 129.61 289.165 129.261 289.192 128.906C289.155 129.095 289.103 129.281 289.038 129.462Z" fill="black"/>
</g>
<path d="M252.876 147.561C252.91 147.561 252.938 147.534 252.938 147.499C252.938 147.465 252.91 147.437 252.876 147.437C252.842 147.437 252.814 147.465 252.814 147.499C252.814 147.534 252.842 147.561 252.876 147.561Z" fill="#E6E8EC"/>
<path d="M276.712 148.893H231.311C230.324 148.893 229.524 149.692 229.524 150.677V203.331C229.524 204.316 230.324 205.115 231.311 205.115H276.712C277.699 205.115 278.498 204.316 278.498 203.331V150.677C278.498 149.692 277.699 148.893 276.712 148.893Z" fill="white"/>
<path opacity="0.1" d="M276.712 148.893H231.311C230.324 148.893 229.524 149.692 229.524 150.677V203.331C229.524 204.316 230.324 205.115 231.311 205.115H276.712C277.699 205.115 278.498 204.316 278.498 203.331V150.677C278.498 149.692 277.699 148.893 276.712 148.893Z" fill="#5A5773"/>
<path d="M274.214 151.76H233.808C232.822 151.76 232.022 152.559 232.022 153.545V200.463C232.022 201.449 232.822 202.248 233.808 202.248H274.214C275.201 202.248 276.001 201.449 276.001 200.463V153.545C276.001 152.559 275.201 151.76 274.214 151.76Z" fill="white"/>
<path d="M266.962 161.886H240.05C239.15 161.886 238.42 162.615 238.42 163.514V170.659C238.42 171.558 239.15 172.287 240.05 172.287H266.962C267.862 172.287 268.592 171.558 268.592 170.659V163.514C268.592 162.615 267.862 161.886 266.962 161.886Z" fill="#4EA13B"/>
<path d="M267.486 176.091H239.528V178.214H267.486V176.091Z" fill="#4EA13B"/>
<path d="M273.246 180.571H234.776V182.693H273.246V180.571Z" fill="#4EA13B"/>
<path d="M273.246 185.285H234.776V187.408H273.246V185.285Z" fill="#4EA13B"/>
<path d="M273.246 190H234.776V192.122H273.246V190Z" fill="#4EA13B"/>
<path d="M113.529 130.307H1.78674C0.799949 130.307 0 131.106 0 132.092V184.745C0 185.731 0.799949 186.53 1.78674 186.53H113.529C114.516 186.53 115.316 185.731 115.316 184.745V132.092C115.316 131.106 114.516 130.307 113.529 130.307Z" fill="white"/>
<path opacity="0.1" d="M113.529 130.307H1.78674C0.799949 130.307 0 131.106 0 132.092V184.745C0 185.731 0.799949 186.53 1.78674 186.53H113.529C114.516 186.53 115.316 185.731 115.316 184.745V132.092C115.316 131.106 114.516 130.307 113.529 130.307Z" fill="#5A5773"/>
<path d="M107.645 133.175H7.66869C6.68191 133.175 5.88196 133.974 5.88196 134.96V181.878C5.88196 182.863 6.68191 183.663 7.66869 183.663H107.645C108.632 183.663 109.432 182.863 109.432 181.878V134.96C109.432 133.974 108.632 133.175 107.645 133.175Z" fill="white"/>
<path d="M90.3613 143.303H22.5815C21.6813 143.303 20.9515 144.032 20.9515 144.931V152.076C20.9515 152.975 21.6813 153.704 22.5815 153.704H90.3613C91.2615 153.704 91.9912 152.975 91.9912 152.076V144.931C91.9912 144.032 91.2615 143.303 90.3613 143.303Z" fill="#4EA13B"/>
<path d="M89.3855 157.506H23.5574V159.628H89.3855V157.506Z" fill="#4EA13B"/>
<path d="M102.947 161.986H12.3666V164.108H102.947V161.986Z" fill="#4EA13B"/>
<path d="M102.947 166.7H12.3666V168.822H102.947V166.7Z" fill="#4EA13B"/>
<path d="M102.947 171.415H12.3666V173.537H102.947V171.415Z" fill="#4EA13B"/>
<path d="M28.185 226.987C28.5067 225.815 28.7256 224.783 28.7256 224.783C28.7316 224 28.9382 223.231 29.3257 222.55V222.226L29.4176 219.847C29.2747 219.41 29.0938 218.985 28.877 218.578C28.4769 217.814 29.0121 215.09 29.0121 215.09C29.0121 215.09 30.7502 211.291 30.4583 208.825C30.1664 206.36 34.1399 198.071 34.1399 198.071C34.1505 197.254 34.067 196.438 33.8912 195.641C33.8593 195.474 33.8502 195.304 33.8642 195.136C33.8628 195.115 33.8628 195.094 33.8642 195.073V195.092C33.9804 193.472 35.3752 190.502 35.3752 190.502L35.4266 184.724C35.4266 184.724 34.74 181.289 36.2375 176.772C36.7646 175.195 37.1106 173.931 37.3376 172.954C37.3647 172.843 37.389 172.738 37.4106 172.635C34.6859 172.111 32.6045 171.685 32.6045 171.685C32.6045 171.685 34.4507 165.102 35.5779 163.981C36.7051 162.86 37.6944 159.237 37.6944 159.237C37.6944 159.237 38.4351 154.566 37.5863 153.161C36.7376 151.757 36.6997 149.381 36.6997 149.381C36.6997 149.381 34.694 147.807 34.4616 147.135C34.2291 146.462 33.8588 144.948 33.8885 144.165C33.9182 143.381 34.2048 142.679 34.1345 142.261C34.0642 141.842 34.813 140.292 34.4967 139.531C34.418 139.297 34.3814 139.051 34.3886 138.805C34.3886 138.805 34.3886 138.805 34.3886 138.783C34.411 138.129 34.497 137.479 34.6454 136.842C35.2599 136.362 35.9693 136.018 36.7267 135.832L36.7781 135.654L36.9133 135.192C36.9797 135.151 37.0483 135.113 37.1187 135.078L37.1322 134.908L37.1755 134.236L36.916 132.702C36.3753 130.04 39.9218 129.783 39.9218 129.783C40.1501 129.387 40.5168 129.089 40.9517 128.946C41.6707 128.725 40.9192 132.918 40.5759 133.175C40.3056 133.367 39.4947 134.66 39.1027 135.294L39.0379 135.4C39.0948 135.454 39.1472 135.513 39.1947 135.575L39.0244 136.485L38.9973 136.623C39.2205 136.922 39.3981 137.252 39.5244 137.603C39.5244 137.603 38.8514 138.284 38.9514 139.077C38.9805 139.695 38.8887 140.312 38.6811 140.895C38.7189 140.854 39.192 140.382 39.6407 140.517C40.0894 140.652 41.3382 141.081 41.3382 141.081C41.3382 141.081 42.2762 141.283 42.1816 141.489C42.087 141.694 42.7843 142.634 42.7843 142.634L45.4144 140.33C45.4442 140.257 45.4712 140.187 45.4982 140.114C45.6194 139.775 45.7099 139.425 45.7685 139.069C45.4913 138.994 45.2202 138.897 44.9576 138.78C44.694 138.679 44.4585 138.516 44.271 138.305C44.0278 137.992 44.0007 137.576 43.9061 137.195C43.7331 136.45 43.3277 135.775 43.0438 135.06C42.5677 133.859 42.4421 132.548 42.6816 131.279C42.7394 130.891 42.8875 130.521 43.1141 130.199C43.552 129.646 44.3116 129.443 44.8765 129.011C45.4415 128.579 45.8199 127.896 46.4686 127.58C47.0579 127.294 47.758 127.359 48.4041 127.488C49.6586 127.744 50.8547 128.23 51.9316 128.922C52.2938 129.157 52.6911 129.427 53.1209 129.365C53.4776 129.27 53.7919 129.058 54.0129 128.763C54.0117 128.75 54.0117 128.738 54.0129 128.725L54.0427 128.695C54.2882 129.301 54.3971 129.954 54.3616 130.607C54.3616 130.707 54.3616 130.81 54.34 130.909C54.34 130.945 54.34 130.98 54.34 131.015C54.3373 131.044 54.3373 131.074 54.34 131.104C54.3388 131.149 54.3442 131.193 54.3562 131.236C54.4037 131.369 54.4803 131.49 54.5806 131.59C54.654 131.68 54.7192 131.777 54.7752 131.879C54.7752 131.844 54.7563 131.809 54.7455 131.773C54.8985 132.016 54.9792 132.297 54.9779 132.584C54.9842 132.792 54.9074 132.995 54.7644 133.148C54.6338 133.269 54.4906 133.376 54.3373 133.466C54.4742 134.447 54.3072 135.446 53.8587 136.329C53.4103 137.212 52.7019 137.936 51.8289 138.405C51.7964 138.475 51.764 138.548 51.7343 138.621C51.3319 139.479 51.1375 140.42 51.1666 141.367C51.1666 141.435 51.1666 141.502 51.1882 141.57C51.2099 141.637 51.2504 141.643 51.2774 141.68C51.2774 141.68 55.4672 141.883 56.489 141.027C57.5107 140.171 58.8947 143.303 58.8947 143.303C58.8947 143.303 60.3868 143.652 60.6977 143.373C61.0085 143.095 62.7628 143.411 62.7628 143.411C63.5062 142.799 64.4556 142.493 65.4172 142.555C66.0216 142.132 66.6833 141.798 67.3824 141.562L67.431 141.545C67.7369 141.446 68.0613 141.417 68.3798 141.462C68.3798 141.462 70.5071 139.842 71.1424 138.948C71.7776 138.054 74.7591 134.779 74.7591 134.763L74.778 134.601L74.8294 134.109C74.9131 134.126 74.9981 134.137 75.0835 134.142L75.1483 133.971C75.3311 133.497 75.5526 133.038 75.8106 132.6C75.8106 132.6 75.8349 131.976 75.6592 131.814C75.4835 131.652 75.8295 129.384 75.8295 129.384C75.8295 129.384 77.8541 125.118 79.3922 128.42C79.3922 128.42 82.4575 130.637 79.7219 132.975C79.7219 132.975 78.6407 133.445 78.4866 133.842C78.3785 134.112 77.992 134.819 77.7325 135.297L77.6163 135.511L77.646 135.538L77.5919 135.943L77.5703 136.102C78.0541 136.402 78.3812 136.693 78.292 136.912C78.131 137.266 78.0157 137.639 77.9487 138.022C77.9487 138.022 74.1266 142.423 73.5806 144.364C73.5806 144.364 63.5629 149.802 60.3355 150.094L60.7815 153.021C60.8344 153.811 60.847 154.603 60.8193 155.395C60.7517 156.016 61.0734 158.853 61.0734 158.853C61.0734 158.853 61.4707 163.028 61.9222 163.627C62.3736 164.227 62.1925 166.716 62.1925 166.716C62.2602 167.913 62.4302 169.102 62.7007 170.27C63.1115 171.866 62.7007 173.804 62.7007 173.804C62.7007 173.804 64.19 177.603 60.3787 174.919C60.3787 174.919 58.4649 174.728 56.2592 174.568C56.2592 174.639 56.2592 174.714 56.2592 174.787C56.2592 175.073 56.2457 175.381 56.2376 175.705C56.1835 177.846 56.0835 180.795 55.8997 183.023C55.5753 186.962 54.0724 194.722 54.0724 194.722L53.921 198.643C53.9853 199.015 54.0089 199.392 53.9913 199.769C53.9659 201.153 53.5468 202.5 52.783 203.655L52.3803 206.26C52.3803 206.26 51.6099 207.956 51.5558 208.985C51.5544 209.069 51.5616 209.153 51.5775 209.236C51.5973 209.369 51.6036 209.504 51.5964 209.638C51.5964 210.826 50.7638 213.64 50.7638 213.64C50.7638 213.64 50.6098 216.505 50.1746 216.653C49.8015 216.783 50.6017 218.325 50.8395 218.767C50.8484 218.741 50.8547 218.714 50.8584 218.686L50.9098 218.773C50.9894 219.008 51.0251 219.256 51.0152 219.505C51.0313 219.701 50.9914 219.898 50.9 220.073C50.8087 220.248 50.6696 220.394 50.4989 220.493C49.6637 220.96 49.2096 221.357 49.8962 221.551C50.1496 221.601 50.4004 221.663 50.6476 221.738L50.6882 221.643C50.7851 221.685 50.8648 221.759 50.914 221.852C50.9631 221.945 50.9788 222.053 50.9585 222.156C50.9397 222.496 50.8386 222.826 50.6638 223.117C50.3309 223.854 49.9137 224.55 49.4204 225.191L49.0906 225.143C49.1352 225.269 49.1952 225.39 49.269 225.502C49.3873 225.687 49.5486 225.842 49.7394 225.953C49.9147 226.066 50.1117 226.141 50.3178 226.174C50.5507 226.191 50.7774 226.257 50.9832 226.367C51.1891 226.477 51.3694 226.63 51.5126 226.814C51.9181 227.384 52.1586 228.148 51.2855 228.777L48.1743 229.717C48.1743 229.717 42.8654 230.2 43.1898 229.028C43.5142 227.856 43.7304 226.825 43.7304 226.825C43.7361 226.1 43.9101 225.386 44.2386 224.74C44.2986 224.635 44.3655 224.534 44.4386 224.438L44.2521 224.411C44.2521 224.411 43.944 221.778 43.4358 221.268C43.3223 221.146 43.2979 221.057 43.3277 220.998C43.2817 220.855 43.4169 220.776 43.598 220.728C43.598 220.76 43.6223 220.795 43.6331 220.83C43.8027 220.802 43.9748 220.79 44.1467 220.795C44.1467 220.795 44.3711 219.432 43.8331 218.905C43.7897 218.847 43.759 218.781 43.7432 218.71C43.7273 218.639 43.7267 218.566 43.7412 218.495C43.7424 218.307 43.7687 218.12 43.8196 217.938C43.8249 217.95 43.8313 217.961 43.8385 217.971C44.1683 216.74 45.1901 214.801 45.1901 214.801C45.1901 214.801 45.2793 213.556 44.9549 213.043C44.6306 212.53 45.2604 206.276 45.2604 206.276C45.2604 206.276 45.2469 203.241 45.6875 201.845C46.1281 200.45 45.3334 198.754 45.3334 198.754C45.3334 198.754 45.3334 198.721 45.3469 198.665C45.3478 198.657 45.3478 198.648 45.3469 198.64C45.3469 198.64 45.3739 198.454 45.4171 198.165V198.195C45.5361 197.385 45.755 195.951 45.901 195.281C46.1091 194.334 46.0713 189.757 46.0713 189.757L45.3712 187.786L43.8656 191.096L42.2437 195.524C42.2437 195.524 41.4842 196.442 41.4328 197.415C41.4328 197.463 41.4328 197.509 41.4328 197.558C41.4395 197.657 41.4395 197.758 41.4328 197.857C41.435 198.424 41.2571 198.977 40.9246 199.437C40.9246 199.437 40.457 201.54 39.8434 202.056C39.2298 202.572 39.1811 203.611 39.1811 203.611C39.1811 203.611 38.3324 206.657 37.9675 207.184C37.662 207.627 37.5971 208.877 37.5863 209.26C37.5863 209.33 37.5863 209.371 37.5863 209.371C37.5863 209.371 37.4431 210.467 37.4106 211.391C37.4106 211.504 37.4106 211.615 37.4106 211.717C37.4093 211.71 37.4093 211.703 37.4106 211.696C37.4003 211.946 37.4203 212.198 37.4701 212.444C37.4701 212.444 37.4701 212.473 37.4701 212.49V212.333C37.5985 212.965 37.6484 213.611 37.6188 214.255C37.5944 215.36 37.3755 216.661 36.6754 217.404C35.4644 218.689 34.7427 218.484 34.7427 218.484C34.7427 218.484 35.2373 220.166 35.9104 220.525C35.9363 220.539 35.9608 220.555 35.9834 220.574C35.9834 220.541 35.9834 220.509 36.0023 220.479C36.0738 220.566 36.1266 220.666 36.1573 220.774C36.188 220.882 36.196 220.995 36.1807 221.106C36.2023 221.838 35.6942 222.996 35.2346 223.536C35.0673 223.69 34.8637 223.8 34.6427 223.855C34.6763 223.88 34.7115 223.904 34.7481 223.925C34.8231 223.969 34.9007 224.009 34.9806 224.044C35.0896 224.097 35.2064 224.132 35.3265 224.149C35.5598 224.164 35.787 224.23 35.9931 224.34C36.1991 224.45 36.3792 224.603 36.5213 224.789C36.9268 225.356 37.1673 226.12 36.2942 226.749L33.183 227.689C33.183 227.689 27.8579 228.159 28.185 226.987Z" fill="url(#paint2_linear)"/>
<path d="M48.2825 229.722L51.2964 228.78C52.1425 228.148 51.91 227.384 51.518 226.814C51.3828 226.631 51.2096 226.48 51.0104 226.371C50.8112 226.261 50.5906 226.196 50.3638 226.179C50.1624 226.146 49.9706 226.07 49.8016 225.955C49.6175 225.844 49.4628 225.69 49.3502 225.507C49.147 225.154 49.0451 224.753 49.0555 224.346C49.0555 224.346 45.8281 223.266 44.8982 224.187C44.7338 224.354 44.5945 224.544 44.4846 224.751C44.1657 225.4 43.9957 226.112 43.9873 226.836C43.9873 226.836 43.7818 227.864 43.4656 229.039C43.1493 230.213 48.2825 229.722 48.2825 229.722Z" fill="#2D293D"/>
<path d="M33.7912 227.7L36.8051 226.757C37.6512 226.125 37.4187 225.361 37.0268 224.794C36.8914 224.611 36.718 224.459 36.5182 224.349C36.3185 224.239 36.0973 224.173 35.8698 224.157C35.7532 224.142 35.6399 224.107 35.5347 224.054C35.4575 224.018 35.3826 223.978 35.3103 223.933C34.4994 223.444 34.5615 222.313 34.5615 222.313C34.5615 222.313 31.3341 221.233 30.4042 222.153C30.2795 222.278 30.1689 222.415 30.0744 222.564C29.6966 223.25 29.496 224.019 29.4906 224.802C29.4906 224.802 29.2824 225.834 28.9689 227.006C28.6553 228.177 33.7912 227.7 33.7912 227.7Z" fill="#2D293D"/>
<path opacity="0.1" d="M44.8955 224.187C44.7321 224.354 44.5937 224.544 44.4846 224.751L49.3502 225.504C49.147 225.152 49.0451 224.75 49.0555 224.343C49.0555 224.343 45.8362 223.266 44.8955 224.187Z" fill="black"/>
<path opacity="0.1" d="M30.0744 222.575L30.0393 223.49C30.7529 224.773 34.4426 224.64 35.5347 224.054C35.4575 224.018 35.3826 223.978 35.3103 223.933C34.4994 223.444 34.5616 222.313 34.5616 222.313C34.5616 222.313 31.3341 221.233 30.4042 222.153C30.2789 222.281 30.1682 222.422 30.0744 222.575Z" fill="black"/>
<path d="M29.6447 218.611C29.8595 219.018 30.0403 219.443 30.1853 219.88L30.0529 223.158C30.8313 224.562 35.1725 224.27 35.7834 223.547C36.3943 222.823 37.0917 220.892 36.4402 220.536C35.7888 220.18 35.3103 218.495 35.3103 218.495C35.3103 218.495 36.0104 218.689 37.1863 217.415C38.3621 216.14 38.1405 213.167 37.9567 212.454C37.7729 211.742 38.0783 209.382 38.0783 209.382C38.0783 209.382 38.0999 207.718 38.454 207.192C38.8081 206.665 39.6326 203.619 39.6326 203.619C39.6326 203.619 39.6704 202.58 40.2732 202.064C40.876 201.548 41.3328 199.442 41.3328 199.442C41.6944 198.927 41.8654 198.301 41.8167 197.674C41.7329 196.631 42.606 195.541 42.606 195.541L44.1927 191.112L45.6523 187.799L46.3254 189.778C46.3254 189.778 46.3578 194.355 46.1551 195.303C45.9524 196.251 45.6145 198.775 45.6145 198.775C45.6145 198.775 46.3822 200.468 45.9551 201.867C45.528 203.266 45.5334 206.298 45.5334 206.298C45.5334 206.298 44.9171 212.554 45.2307 213.065C45.5442 213.575 45.455 214.82 45.455 214.82C45.455 214.82 43.6115 218.408 44.1305 218.929C44.6495 219.451 44.4332 220.82 44.4332 220.82C44.4332 220.82 43.2709 220.774 43.7494 221.292C44.2278 221.811 44.4846 224.422 44.4846 224.422L49.488 225.196C49.9674 224.552 50.3719 223.856 50.6936 223.12C51.418 221.611 50.6233 221.746 49.961 221.554C49.2988 221.362 49.7367 220.963 50.5449 220.496C51.3531 220.028 50.9396 218.889 50.9396 218.889C50.9396 218.889 49.8124 216.807 50.2368 216.659C50.6611 216.51 50.8098 213.645 50.8098 213.645C50.8098 213.645 51.7721 210.27 51.5991 209.349C51.4261 208.428 52.3857 206.26 52.3857 206.26L52.775 203.657C53.7226 202.208 54.1152 200.466 53.8805 198.751L54.0373 194.722C54.0373 194.722 55.5078 186.976 55.8375 183.023C56.043 180.501 56.1457 177.053 56.1917 174.901C56.2187 173.691 56.2295 172.892 56.2295 172.892L38.3432 170.332C38.281 171.227 38.1371 172.114 37.9134 172.983C37.6945 173.964 37.3566 175.227 36.8322 176.804C35.3671 181.322 36.0213 184.756 36.0213 184.756L35.9645 190.534C35.9645 190.534 34.2345 194.336 34.5183 195.678C34.6879 196.477 34.7677 197.292 34.7562 198.108C34.7562 198.108 30.907 206.393 31.1881 208.847C31.4693 211.301 29.7798 215.114 29.7798 215.114C29.7798 215.114 29.2581 217.847 29.6447 218.611Z" fill="#575988"/>
<path opacity="0.05" d="M40.7462 197.371L35.3076 196.426C35.3076 196.426 38.2837 199.71 40.7462 197.371Z" fill="black"/>
<path opacity="0.1" d="M36.3024 191.131C36.3024 191.131 36.0321 193.054 37.1971 193.831C37.1863 193.826 35.0914 193.413 36.3024 191.131Z" fill="black"/>
<path opacity="0.1" d="M36.8754 184.996C36.8754 184.996 41.3003 188.931 42.9735 188.685C44.6467 188.439 36.8754 184.996 36.8754 184.996Z" fill="black"/>
<path opacity="0.1" d="M47.458 199.396C47.458 199.396 50.899 200.32 50.9504 201.713C51.0017 203.106 47.458 199.396 47.458 199.396Z" fill="black"/>
<path opacity="0.05" d="M46.0227 216.678C46.0227 216.678 50.8882 217.779 49.4772 218.349C48.0662 218.919 45.7551 219.329 45.7551 219.329C45.7551 219.329 44.1711 219.356 46.0227 216.678Z" fill="black"/>
<g opacity="0.05">
<path opacity="0.05" d="M50.4314 219.378C50.5573 219.305 50.6654 219.206 50.7478 219.086C50.8301 218.966 50.8846 218.83 50.9072 218.686L50.9531 218.776C50.9531 218.776 51.3694 219.912 50.5585 220.396C50.4666 220.447 50.3801 220.501 50.2882 220.552C50.1449 220.52 49.9881 220.493 49.8394 220.45C49.1799 220.247 49.6205 219.848 50.4314 219.378Z" fill="black"/>
<path opacity="0.05" d="M44.1225 218.805C43.9927 218.676 44.0116 218.357 44.1225 217.949C44.3086 218.326 44.389 218.746 44.3549 219.164C44.3059 219.028 44.2264 218.906 44.1225 218.805Z" fill="black"/>
<path opacity="0.05" d="M45.674 198.176C45.8353 198.675 45.9263 199.194 45.9443 199.718C45.8648 199.353 45.7508 198.997 45.6038 198.654C45.6038 198.654 45.6335 198.468 45.674 198.176Z" fill="black"/>
<path opacity="0.05" d="M34.5292 195.565C34.5017 195.414 34.4917 195.261 34.4995 195.109C34.5508 195.422 34.5833 195.711 34.6022 195.965C34.5806 195.835 34.5563 195.703 34.5292 195.565Z" fill="black"/>
<path opacity="0.05" d="M45.2225 212.943C45.1413 212.642 45.1121 212.328 45.1361 212.017C45.2754 212.392 45.3414 212.789 45.3307 213.189C45.3044 213.103 45.2681 213.021 45.2225 212.943Z" fill="black"/>
<path opacity="0.05" d="M43.8927 220.728C44.1191 221.571 44.2773 222.432 44.3657 223.301L49.3691 224.076C49.8503 223.432 50.2557 222.736 50.5774 222C50.6422 221.867 50.6909 221.748 50.7342 221.64C51.0288 221.789 51.1369 222.108 50.7044 223.004C50.3824 223.739 49.978 224.434 49.4988 225.078L44.4846 224.308C44.4846 224.308 44.2143 221.678 43.7305 221.163C43.5061 220.906 43.6737 220.79 43.8927 220.728Z" fill="black"/>
<path opacity="0.05" d="M50.8207 213.532C50.8207 213.532 50.6693 216.397 50.2476 216.545C50.0557 216.062 49.9314 215.608 50.1206 215.541C50.5423 215.39 50.6964 212.527 50.6964 212.527C50.6964 212.527 51.6586 209.155 51.4857 208.231C51.3127 207.308 52.2695 205.145 52.2695 205.145L52.6615 202.539C53.6092 201.09 54.0017 199.348 53.7671 197.633L53.9211 193.605C53.9211 193.605 55.3862 185.844 55.7052 181.905C55.9079 179.383 56.0106 175.935 56.0593 173.783C56.0593 173.394 56.0755 173.048 56.0809 172.757L56.2241 172.778C56.2241 172.778 56.2241 173.588 56.1863 174.784C56.1404 176.945 56.0376 180.387 55.8322 182.909C55.5132 186.846 54.0509 194.609 54.0509 194.609L53.8941 198.635C54.1288 200.35 53.7373 202.091 52.7912 203.541L52.3966 206.147C52.3966 206.147 51.437 208.307 51.61 209.236C51.783 210.165 50.8207 213.532 50.8207 213.532Z" fill="black"/>
<path opacity="0.05" d="M35.6592 222.432C36.0892 221.857 36.3865 221.194 36.5296 220.49C37.0242 220.971 36.3674 222.745 35.7862 223.433C35.205 224.122 30.8342 224.449 30.0557 223.047L30.0854 222.256C31.1666 223.412 35.0807 223.117 35.6592 222.432Z" fill="black"/>
<path opacity="0.05" d="M29.5204 217.488C29.7352 217.895 29.916 218.32 30.061 218.757L30.0367 219.337C29.9234 219.048 29.7953 218.765 29.6529 218.489C29.5338 218.158 29.4859 217.806 29.5123 217.455L29.5204 217.488Z" fill="black"/>
<path opacity="0.05" d="M35.5646 218.384C35.4183 218.059 35.2937 217.724 35.1915 217.382C35.1915 217.382 35.8916 217.574 37.0648 216.289C37.9189 215.352 38.0352 213.529 37.9649 212.33C38.1487 213.046 38.3676 216.005 37.1945 217.29C36.4214 218.133 35.8565 218.341 35.5646 218.384Z" fill="black"/>
<path opacity="0.05" d="M38.0811 209.257C37.976 210.073 37.9165 210.895 37.9027 211.717C37.8866 211.586 37.8631 211.457 37.8324 211.328C37.6513 210.613 37.9513 208.256 37.9513 208.256C37.9513 208.256 37.9757 206.592 38.3271 206.066C38.6785 205.539 39.5056 202.494 39.5056 202.494C39.5056 202.494 39.5462 201.457 40.1489 200.938C40.7517 200.42 41.2086 198.316 41.2086 198.316C41.5689 197.8 41.7398 197.175 41.6924 196.548C41.6086 195.506 42.4817 194.415 42.4817 194.415L44.0684 189.986L45.5281 186.673L46.2011 188.655C46.2011 188.655 46.2011 188.898 46.2011 189.287L45.6605 187.667L44.2009 190.977L42.6142 195.408C42.6142 195.408 41.7411 196.488 41.8249 197.541C41.8736 198.169 41.7026 198.794 41.341 199.31C41.341 199.31 40.8842 201.413 40.2814 201.929C39.6786 202.445 39.6408 203.485 39.6408 203.485C39.6408 203.485 38.8136 206.53 38.4622 207.06C38.1108 207.589 38.0811 209.257 38.0811 209.257Z" fill="black"/>
</g>
<path d="M37.5322 132.729L37.7863 134.258L37.7431 134.933L37.7106 135.43L39.4379 135.675L39.646 135.324C40.0299 134.69 40.8246 133.396 41.076 133.202C41.4057 132.945 42.141 128.752 41.4436 128.973C41.0183 129.12 40.6621 129.418 40.4434 129.81C40.4434 129.81 37.0213 130.07 37.5322 132.729Z" fill="#FFCDD3"/>
<path opacity="0.1" d="M37.7107 135.429L39.438 135.675L39.6461 135.324C39.4233 135.052 39.1136 134.865 38.7691 134.795C38.4245 134.724 38.0661 134.773 37.7539 134.935L37.7107 135.429Z" fill="black"/>
<path d="M37.2404 136.234L39.5082 136.853L39.5677 136.512L39.7326 135.602C39.6138 135.432 39.4624 135.287 39.2872 135.175C39.112 135.063 38.9163 134.987 38.7116 134.951C38.5068 134.915 38.2969 134.92 38.0941 134.966C37.8912 135.011 37.6994 135.096 37.5296 135.216L37.3998 135.678L37.2404 136.234Z" fill="#DCE6F2"/>
<path d="M74.4185 134.322L76.808 135.727C76.808 135.727 76.908 135.535 77.0486 135.273C77.2999 134.795 77.673 134.077 77.7784 133.818C77.9379 133.421 78.9759 132.948 78.9759 132.948C81.6276 130.607 78.6623 128.396 78.6623 128.396C77.1756 125.093 75.2132 129.362 75.2132 129.362C75.2132 129.362 74.8753 131.638 75.0456 131.792C75.2159 131.946 75.1915 132.578 75.1915 132.578C74.9396 133.017 74.7245 133.476 74.5482 133.95C74.4644 134.174 74.4185 134.322 74.4185 134.322Z" fill="#FFCDD3"/>
<path opacity="0.1" d="M74.4185 134.322L76.808 135.727C76.808 135.727 76.908 135.535 77.0486 135.273C76.7134 134.973 75.5294 133.923 75.1267 133.966C74.9343 133.985 74.7405 133.985 74.5482 133.966C74.4644 134.174 74.4185 134.322 74.4185 134.322Z" fill="black"/>
<path d="M74.1401 135.043L76.8432 136.499L76.9189 135.91L76.973 135.505C76.973 135.505 75.4376 134.085 74.9673 134.117C74.7274 134.141 74.4853 134.131 74.2483 134.088L74.1996 134.579L74.1401 135.043Z" fill="#DCE6F2"/>
<path d="M43.7953 143.055C43.7953 143.055 55.7078 144.864 53.4993 144.054C51.9613 143.487 51.3801 142.474 51.2936 141.373C51.264 140.427 51.4488 139.488 51.8342 138.624C52.1472 137.881 52.5338 137.172 52.9885 136.507C52.9885 136.507 44.0359 131.131 45.6901 135.77C45.9458 136.471 46.0925 137.208 46.1253 137.954C46.1513 138.695 46.0433 139.434 45.8064 140.136C45.4179 141.275 44.722 142.285 43.7953 143.055Z" fill="#FFCDD3"/>
<path opacity="0.1" d="M45.7011 135.77C45.9567 136.471 46.1035 137.208 46.1363 137.954C46.9688 138.708 47.9149 138.697 49.1286 138.743C50.0611 138.78 51.0829 139.045 51.8317 138.624C52.1446 137.881 52.5313 137.172 52.9859 136.507C52.9859 136.507 44.0468 131.131 45.7011 135.77Z" fill="black"/>
<path d="M49.4691 139.069C52.2026 139.069 54.4185 136.856 54.4185 134.125C54.4185 131.395 52.2026 129.181 49.4691 129.181C46.7357 129.181 44.5198 131.395 44.5198 134.125C44.5198 136.856 46.7357 139.069 49.4691 139.069Z" fill="#FFCDD3"/>
<path opacity="0.1" d="M43.7953 143.055C43.7953 143.055 55.7078 144.864 53.4993 144.054C51.9613 143.487 51.3801 142.474 51.2936 141.373C50.7233 140.706 49.5447 140.195 48.7852 139.917C48.0936 139.657 47.3387 139.616 46.6227 139.798C46.3372 139.87 46.0639 139.984 45.8118 140.136C45.4218 141.276 44.724 142.286 43.7953 143.055Z" fill="black"/>
<path opacity="0.1" d="M37.2404 136.234L39.5082 136.853L39.5677 136.512C39.3367 136.168 39.0052 135.904 38.6183 135.754C38.2314 135.605 37.8078 135.578 37.4052 135.678L37.2404 136.234Z" fill="black"/>
<path opacity="0.1" d="M74.1401 135.043L76.8432 136.499L76.9189 135.91C76.0427 135.404 75.1302 134.964 74.1888 134.592L74.1401 135.043Z" fill="black"/>
<path opacity="0.1" d="M37.9026 172.983C42.4978 173.893 49.0663 175.098 50.1232 174.82C51.0017 174.59 53.7724 174.725 56.1808 174.901C56.2079 173.691 56.2187 172.892 56.2187 172.892L38.3324 170.332C38.2702 171.227 38.1263 172.114 37.9026 172.983Z" fill="black"/>
<path d="M33.3263 171.72C33.3263 171.72 48.4798 174.922 50.1368 174.487C51.7937 174.053 60.1787 174.914 60.1787 174.914C63.863 177.593 62.4277 173.796 62.4277 173.796C62.4277 173.796 62.8358 171.857 62.4277 170.262C62.1662 169.093 62.0026 167.904 61.9384 166.708C61.9384 166.708 62.1195 164.219 61.6843 163.622C61.2491 163.025 60.8734 158.848 60.8734 158.848C60.8734 158.848 60.5679 156.01 60.6328 155.389C60.6977 154.768 60.6004 153.016 60.6004 153.016L60.1706 150.089C63.3035 149.794 73.0048 144.345 73.0048 144.345C73.5454 142.412 77.246 137.978 77.246 137.978C77.3123 137.596 77.4249 137.224 77.5811 136.869C77.8514 136.215 74.1671 134.744 74.1671 134.744C74.1671 134.744 71.2451 138.041 70.6396 138.932C70.0341 139.823 67.9609 141.448 67.9609 141.448C67.6521 141.405 67.3377 141.434 67.0418 141.532H66.9932C66.3176 141.771 65.6803 142.107 65.101 142.528C64.1646 142.47 63.2421 142.777 62.5277 143.384C62.5277 143.384 60.8328 143.071 60.5328 143.349C60.2328 143.627 58.7866 143.282 58.7866 143.282C58.7866 143.282 57.4351 140.155 56.4593 141.011C55.4834 141.867 51.4126 141.67 51.4126 141.67C50.9017 140.93 49.6042 140.365 48.7933 140.068C48.102 139.807 47.3467 139.765 46.6309 139.95C46.3202 140.026 46.025 140.155 45.7578 140.33L43.2061 142.642C43.2061 142.642 42.533 141.702 42.6249 141.497C42.7168 141.292 41.814 141.092 41.814 141.092C41.814 141.092 40.6219 140.671 40.1705 140.53C39.7191 140.39 39.2785 140.865 39.2406 140.908C39.447 140.325 39.5388 139.708 39.5109 139.091C39.4163 138.297 40.0651 137.614 40.0651 137.614C38.7487 133.988 35.3509 136.852 35.3509 136.852C35.3509 136.852 34.8995 138.788 35.2049 139.553C35.5104 140.317 34.7833 141.864 34.8481 142.283C34.913 142.701 34.64 143.398 34.6103 144.186C34.5805 144.975 34.9373 146.487 35.1509 147.156C35.3644 147.826 37.3133 149.403 37.3133 149.403C37.3133 149.403 37.3485 151.774 38.1675 153.183C38.9865 154.593 38.2675 159.258 38.2675 159.258C38.2675 159.258 37.2944 162.879 36.2105 164.003C35.1265 165.126 33.3263 171.72 33.3263 171.72Z" fill="#656691"/>
<path opacity="0.1" d="M56.616 145.253C56.616 145.253 57.1269 143.903 57.5458 143.792C57.9658 143.656 58.3759 143.491 58.773 143.298L58.5244 142.777C58.5244 142.777 56.9458 143.147 56.6809 143.587C56.416 144.027 56.616 145.253 56.616 145.253Z" fill="black"/>
<path opacity="0.1" d="M65.0875 142.544C65.1551 142.963 68.8394 143.479 68.8394 143.479L67.0419 141.532H66.9959C66.3137 141.775 65.6708 142.116 65.0875 142.544Z" fill="black"/>
<path d="M76.0107 137.587C76.1943 137.587 76.3432 137.438 76.3432 137.255C76.3432 137.071 76.1943 136.923 76.0107 136.923C75.8271 136.923 75.6782 137.071 75.6782 137.255C75.6782 137.438 75.8271 137.587 76.0107 137.587Z" fill="#575988"/>
<path d="M75.5593 138.235C75.7429 138.235 75.8918 138.086 75.8918 137.903C75.8918 137.719 75.7429 137.571 75.5593 137.571C75.3757 137.571 75.2268 137.719 75.2268 137.903C75.2268 138.086 75.3757 138.235 75.5593 138.235Z" fill="#575988"/>
<path d="M75.1186 138.832C75.3022 138.832 75.4511 138.683 75.4511 138.5C75.4511 138.316 75.3022 138.167 75.1186 138.167C74.935 138.167 74.7861 138.316 74.7861 138.5C74.7861 138.683 74.935 138.832 75.1186 138.832Z" fill="#575988"/>
<path d="M74.6591 139.48C74.8428 139.48 74.9916 139.331 74.9916 139.148C74.9916 138.964 74.8428 138.816 74.6591 138.816C74.4755 138.816 74.3267 138.964 74.3267 139.148C74.3267 139.331 74.4755 139.48 74.6591 139.48Z" fill="#575988"/>
<path d="M35.4779 137.876C35.6272 137.876 35.7483 137.755 35.7483 137.606C35.7483 137.457 35.6272 137.336 35.4779 137.336C35.3287 137.336 35.2076 137.457 35.2076 137.606C35.2076 137.755 35.3287 137.876 35.4779 137.876Z" fill="#575988"/>
<path d="M35.413 138.486C35.5623 138.486 35.6833 138.365 35.6833 138.216C35.6833 138.067 35.5623 137.946 35.413 137.946C35.2637 137.946 35.1427 138.067 35.1427 138.216C35.1427 138.365 35.2637 138.486 35.413 138.486Z" fill="#575988"/>
<path d="M35.3509 139.096C35.5002 139.096 35.6212 138.975 35.6212 138.826C35.6212 138.677 35.5002 138.556 35.3509 138.556C35.2016 138.556 35.0806 138.677 35.0806 138.826C35.0806 138.975 35.2016 139.096 35.3509 139.096Z" fill="#575988"/>
<path opacity="0.1" d="M56.1619 156.504C56.2025 156.458 46.3768 167.918 39.365 160.808C39.365 160.808 50.799 162.807 56.1619 156.504Z" fill="black"/>
<path opacity="0.1" d="M61.3086 162.858C61.3086 162.858 55.6943 162.796 55.0456 164.383L54.9807 166.06C55.1371 166.154 55.3147 166.208 55.4972 166.215C55.6796 166.222 55.8609 166.183 56.0241 166.101C56.6026 165.817 60.0571 164.227 61.2221 165.102L61.3086 162.858Z" fill="black"/>
<path d="M61.2032 162.852C61.2032 162.852 55.8376 162.793 55.2159 164.308L55.1537 165.906C55.303 165.997 55.473 166.048 55.6475 166.054C55.822 166.061 55.9954 166.023 56.1511 165.944C56.6917 165.674 60.0084 164.159 61.1221 164.991L61.2032 162.852Z" fill="#656691"/>
<path opacity="0.1" d="M58.7163 150.577C58.0915 151.879 57.3138 153.102 56.3998 154.22C55.4009 155.456 54.2066 156.522 52.8641 157.374C52.8641 157.374 58.592 151.333 58.7163 150.577Z" fill="black"/>
<path opacity="0.1" d="M60.8004 144.14C60.8004 144.14 59.7192 148.139 57.2458 149.416L60.8004 144.14Z" fill="black"/>
<path opacity="0.1" d="M62.2195 144.602C62.2465 144.529 62.9277 147.826 58.9191 149.481C58.9191 149.481 60.6139 148.976 62.2195 144.602Z" fill="black"/>
<path opacity="0.1" d="M37.8405 140.957C37.9026 140.957 35.8483 142.158 35.2806 142.728C35.2942 142.728 36.6592 140.827 37.8405 140.957Z" fill="black"/>
<path d="M50.6341 138.656C50.5834 138.918 50.4357 139.152 50.2205 139.31C50.0726 139.374 49.9114 139.403 49.7502 139.393C48.2392 139.431 46.666 139.437 45.2955 138.802C45.0391 138.7 44.8116 138.537 44.6332 138.327C44.3954 138.014 44.3629 137.6 44.2791 137.217C44.1116 136.472 43.7196 135.799 43.4466 135.084C42.9869 133.879 42.8681 132.571 43.1033 131.304C43.1575 130.916 43.3009 130.546 43.5223 130.224C43.944 129.67 44.6819 129.468 45.2279 129.033C45.7739 128.598 46.1416 127.918 46.7741 127.599C47.3417 127.313 48.0202 127.375 48.6446 127.507C49.8703 127.764 51.0356 128.252 52.0775 128.946C52.4262 129.181 52.8101 129.449 53.2263 129.387C53.5832 129.288 53.8946 129.068 54.1075 128.766C54.3752 129.452 54.4735 130.193 54.3941 130.926C54.3751 131.033 54.3751 131.142 54.3941 131.25C54.4402 131.382 54.514 131.502 54.6103 131.603C54.9644 132.049 55.1726 132.74 54.7887 133.161C54.6211 133.345 54.3697 133.431 54.2076 133.629C53.9156 133.963 53.9886 134.466 53.9778 134.911C53.9876 135.066 53.9437 135.219 53.8535 135.346C53.7696 135.417 53.6689 135.465 53.5611 135.486C53.4532 135.508 53.3417 135.501 53.2372 135.467C53.0287 135.396 52.8082 135.367 52.5884 135.381C52.3539 135.448 52.1491 135.593 52.0072 135.791C51.2747 136.639 50.972 137.603 50.6341 138.656Z" fill="#2D293D"/>
<g opacity="0.1">
<path opacity="0.1" d="M44.4846 137.938C44.662 138.15 44.8896 138.314 45.1468 138.416C46.5173 139.05 48.0905 139.042 49.6015 139.007C49.763 139.017 49.9245 138.988 50.0718 138.921C50.2874 138.764 50.4353 138.532 50.4854 138.27C50.8179 137.214 51.126 136.253 51.8586 135.394C51.9999 135.195 52.2048 135.049 52.4397 134.981C52.6595 134.969 52.8797 134.998 53.0885 135.068C53.1929 135.102 53.3046 135.109 53.4126 135.088C53.5206 135.067 53.6213 135.018 53.7048 134.946C53.7952 134.821 53.8392 134.668 53.8291 134.514C53.8291 134.069 53.7669 133.566 54.0589 133.229C54.221 133.043 54.4724 132.959 54.64 132.764C54.7489 132.627 54.8186 132.462 54.8419 132.288C54.8652 132.115 54.8412 131.938 54.7725 131.776C55.0212 132.206 55.1158 132.748 54.7914 133.102C54.6238 133.286 54.3751 133.372 54.2102 133.569C53.9183 133.904 53.994 134.406 53.9832 134.852C53.9933 135.007 53.9484 135.161 53.8561 135.286C53.7724 135.358 53.6717 135.406 53.5638 135.427C53.4559 135.449 53.3444 135.442 53.2398 135.408C53.0323 135.337 52.8127 135.308 52.5938 135.322C52.3579 135.389 52.152 135.535 52.0099 135.735C51.2801 136.591 50.9719 137.555 50.6368 138.608C50.632 138.716 50.6049 138.821 50.5571 138.918C50.5093 139.015 50.4418 139.101 50.3589 139.171C50.2761 139.241 50.1797 139.292 50.0758 139.322C49.9719 139.353 49.8629 139.361 49.7556 139.347C48.2445 139.383 46.6713 139.388 45.2982 138.753C45.0419 138.651 44.8146 138.488 44.6359 138.278C44.5467 138.155 44.4799 138.017 44.4386 137.87C44.452 137.894 44.4674 137.917 44.4846 137.938Z" fill="black"/>
<path opacity="0.1" d="M54.3832 131.109C54.3161 131.031 54.268 130.939 54.2426 130.839C54.2237 130.732 54.2237 130.622 54.2426 130.515C54.3079 129.911 54.2528 129.3 54.0804 128.717L54.1075 128.687C54.3774 129.373 54.4767 130.115 54.3967 130.847C54.3844 130.934 54.3799 131.022 54.3832 131.109Z" fill="black"/>
</g>
<path opacity="0.1" d="M51.3991 141.686C51.3991 141.686 45.182 142.266 44.6685 141.316L51.3991 141.686Z" fill="black"/>
<path opacity="0.1" d="M39.4866 138.67C39.4866 138.67 36.051 138.543 35.2482 139.798L39.4866 138.67Z" fill="black"/>
</g>
<defs>
<linearGradient id="paint0_linear" x1="149.064" y1="185.89" x2="149.064" y2="40.5322" gradientUnits="userSpaceOnUse">
<stop stop-color="#808080" stop-opacity="0.25"/>
<stop offset="0.54" stop-color="#808080" stop-opacity="0.12"/>
<stop offset="1" stop-color="#808080" stop-opacity="0.1"/>
</linearGradient>
<linearGradient id="paint1_linear" x1="55372.4" y1="89774.1" x2="55372.4" y2="49200.1" gradientUnits="userSpaceOnUse">
<stop stop-color="#808080" stop-opacity="0.25"/>
<stop offset="0.54" stop-color="#808080" stop-opacity="0.12"/>
<stop offset="1" stop-color="#808080" stop-opacity="0.1"/>
</linearGradient>
<linearGradient id="paint2_linear" x1="-46308.4" y1="88885" x2="-44731.2" y2="49412.2" gradientUnits="userSpaceOnUse">
<stop stop-color="#808080" stop-opacity="0.25"/>
<stop offset="0.54" stop-color="#808080" stop-opacity="0.12"/>
<stop offset="1" stop-color="#808080" stop-opacity="0.1"/>
</linearGradient>
<clipPath id="clip0">
<rect width="309" height="233" fill="white"/>
</clipPath>
</defs>
</svg>
