<svg xmlns="http://www.w3.org/2000/svg" xmlns:xlink="http://www.w3.org/1999/xlink" width="359" height="153.444" viewBox="0 0 359 153.444">
  <defs>
    <filter id="Path_56" x="0" y="10.786" width="117.676" height="137.531" filterUnits="userSpaceOnUse">
      <feOffset dy="3" input="SourceAlpha"/>
      <feGaussianBlur stdDeviation="3" result="blur"/>
      <feFlood flood-opacity="0.161"/>
      <feComposite operator="in" in2="blur"/>
      <feComposite in="SourceGraphic"/>
    </filter>
  </defs>
  <g id="Group_6" data-name="Group 6" transform="translate(-27.203 -173.338)">
    <g id="Group_5" data-name="Group 5" transform="translate(133.543 173.338)">
      <path id="Path_46" data-name="Path 46" d="M85.843,212.219q-5.128,7.52-15.3,7.521a19.364,19.364,0,0,1-15.034-6.41,24.5,24.5,0,0,1,0-31.279q5.811-6.41,15.468-6.41t14.863,7.606v-6.922h6.41v42.73h-6.41Zm-14.436,1.709a13.513,13.513,0,0,0,10.932-4.786,18.973,18.973,0,0,0,0-22.9,13.514,13.514,0,0,0-10.932-4.786,14.177,14.177,0,0,0-11.11,4.786,18.333,18.333,0,0,0,0,22.9A14.176,14.176,0,0,0,71.407,213.928Z" transform="translate(-49.871 -159.233)" fill="#fff"/>
      <path id="Path_47" data-name="Path 47" d="M77.435,223.671a9.6,9.6,0,0,1,1.88-.171,8.919,8.919,0,0,1,5.555,1.752,5.727,5.727,0,0,1,2.307,4.828q0,5.042-6.068,6.5a18.2,18.2,0,0,1-4.316.427,13.657,13.657,0,0,1-5.213-1.068,15.911,15.911,0,0,1-4.23-2.436l1.624-2.82a12.951,12.951,0,0,0,7.264,2.564q4.7,0,4.7-3.077a2.306,2.306,0,0,0-1.367-2.051,6.081,6.081,0,0,0-3.034-.769,11.006,11.006,0,0,0-3.119.427l-1.795-1.453,4.273-6.751a18.84,18.84,0,0,1-13.759-7.008,24.175,24.175,0,0,1,.6-30.509,19.83,19.83,0,0,1,15.3-6.41,21.665,21.665,0,0,1,12.99,3.931,19.489,19.489,0,0,1,7.179,10.17H91.28a13.315,13.315,0,0,0-4.615-5.982,12,12,0,0,0-7.264-2.307,16.993,16.993,0,0,0-6.965,1.282,13.976,13.976,0,0,0-4.828,3.5,17.752,17.752,0,0,0,0,22.9,14.391,14.391,0,0,0,11.281,4.786,12.835,12.835,0,0,0,7.777-2.308,13.314,13.314,0,0,0,4.615-5.982H98.2a19.307,19.307,0,0,1-6.666,9.743,20.7,20.7,0,0,1-11.879,4.273Z" transform="translate(-6.168 -159.233)" fill="#fff"/>
      <path id="Path_48" data-name="Path 48" d="M63.91,175.738h6.417v42.73H63.91Z" transform="translate(36.072 -158.646)" fill="#fff"/>
      <path id="Path_49" data-name="Path 49" d="M85.171,207.266l18.46,25.895H95.768L80.813,211.71l-8.033,7.948v13.5H66.37V173.338h6.41v38.286l20.6-21.194h8.973Z" transform="translate(51.131 -173.338)" fill="#fff"/>
    </g>
    <path id="Path_50" data-name="Path 50" d="M87.952,190.562a19,19,0,0,0-13.09-4.651c-6.929,0-12.577,2.35-16.793,7.008a26.264,26.264,0,0,0,.007,33.657,21.183,21.183,0,0,0,16.359,6.994c5.484,0,10.013-1.545,13.517-4.6v3.917h9.97V186.6h-9.97Zm-3.084,8.881a17.2,17.2,0,0,1,0,20.6A11.748,11.748,0,0,1,75.29,224.2a12.391,12.391,0,0,1-9.778-4.188,16.563,16.563,0,0,1,0-20.539,12.368,12.368,0,0,1,9.778-4.188A11.712,11.712,0,0,1,84.868,199.443Z" transform="translate(96.54 76.975)" fill="#fff"/>
    <path id="Path_51" data-name="Path 51" d="M82.16,217.993,69.6,186.008H58.629L76.791,229.9,68.209,249.22H79.051l26.807-63.212H94.954Z" transform="translate(137.284 77.561)" fill="#fff"/>
    <path id="Path_52" data-name="Path 52" d="M94.883,187.228c-4.594-1.788-11.665-2.051-16.558,1.1a24.566,24.566,0,0,0-2.906,2.186v-3.917h-9.97v46.291h9.97V206.492a10.745,10.745,0,0,1,3.212-8.112,10.922,10.922,0,0,1,7.912-3.1,9.575,9.575,0,0,1,7.342,2.948c1.916,2.008,2.842,4.686,2.842,8.176v26.479h9.97V206.236c0-6.168-1.958-11.224-5.8-15A16.723,16.723,0,0,0,94.883,187.228Z" transform="translate(179.036 76.976)" fill="#fff"/>
    <path id="Path_53" data-name="Path 53" d="M107.848,190.562a19.008,19.008,0,0,0-13.09-4.651c-6.929,0-12.577,2.35-16.8,7.008a26.276,26.276,0,0,0,.014,33.657,21.183,21.183,0,0,0,16.359,6.994c5.484,0,10.006-1.545,13.517-4.6v3.917h9.97V186.6h-9.97Zm-3.084,8.881a17.217,17.217,0,0,1-.007,20.6,11.734,11.734,0,0,1-9.572,4.152,12.371,12.371,0,0,1-9.778-4.188,16.576,16.576,0,0,1-.007-20.539,12.373,12.373,0,0,1,9.785-4.188A11.721,11.721,0,0,1,104.764,199.443Z" transform="translate(218.338 76.975)" fill="#fff"/>
    <path id="Path_54" data-name="Path 54" d="M102.3,219.519,121.5,200.7H107.415L89.354,219.286V183.608H79.381v63.383h9.973V232.452l6-5.939,14.278,20.478h12.247Z" transform="translate(264.322 62.87)" fill="#fff"/>
    <path id="Path_55" data-name="Path 55" d="M50.118,181.71" transform="translate(85.184 51.251)"/>
    <g transform="matrix(1, 0, 0, 1, 27.2, 173.34)" filter="url(#Path_56)">
      <path id="Path_56-2" data-name="Path 56" d="M135.3,218.532c-.271-.278-.591-.477-.855-.769q-7.36-8.247-7.357-20.4t7.357-20.4c.442-.484.969-.833,1.431-1.275H97.77c-34.063.84-61.567,27.6-61.567,60.036,0,31.571,25.916,57.358,58.7,59.495V222.8a4.053,4.053,0,0,1,4.038-4.059Z" transform="translate(-27.2 -158.91)" fill="#4ea13b"/>
    </g>
    <path id="Path_57" data-name="Path 57" d="M72.369,217.384l26.2-24.712H84.327L55.355,219.819V182.658H47.343a1.937,1.937,0,0,0-1.958,1.823v.178l.014.214-.014.014v67.92h9.97V233.251l9.7-9.059,21.472,28.615H99.019Z" transform="translate(56.21 57.055)" fill="#fff"/>
  </g>
</svg>
