<svg width="350" height="155" viewBox="0 0 350 155" fill="none" xmlns="http://www.w3.org/2000/svg">
<path d="M133.312 53.595C129.893 58.6083 124.793 61.1154 118.012 61.116C115.19 61.2081 112.383 60.6821 109.786 59.5748C107.189 58.4676 104.865 56.8058 102.978 54.706C99.3322 50.3097 97.3369 44.7779 97.3369 39.0665C97.3369 33.3552 99.3322 27.8233 102.978 23.427C106.852 19.1537 112.008 17.017 118.446 17.017C124.884 17.017 129.838 19.5523 133.309 24.623V17.701H139.719V60.431H133.309L133.312 53.595ZM118.876 55.304C120.943 55.3964 123.004 55.013 124.899 54.1832C126.794 53.3534 128.474 52.0995 129.808 50.518C132.303 47.222 133.652 43.2016 133.652 39.068C133.652 34.9345 132.303 30.914 129.808 27.618C128.474 26.0366 126.794 24.7827 124.899 23.953C123.004 23.1232 120.943 22.7397 118.876 22.832C116.786 22.7609 114.706 23.1531 112.785 23.9805C110.864 24.808 109.15 26.0502 107.766 27.618C105.167 30.8683 103.751 34.9062 103.751 39.068C103.751 43.2298 105.167 47.2677 107.766 50.518C109.15 52.0859 110.864 53.3281 112.785 54.1556C114.706 54.983 116.786 55.3752 118.876 55.304Z" fill="black"/>
<path d="M168.607 65.047C169.227 64.9284 169.856 64.8711 170.487 64.876C172.483 64.8219 174.439 65.4388 176.042 66.628C176.791 67.1841 177.392 67.9146 177.794 68.756C178.196 69.5974 178.387 70.5243 178.349 71.456C178.349 74.8174 176.326 76.984 172.281 77.956C170.865 78.2699 169.416 78.4132 167.965 78.383C166.174 78.3723 164.403 78.0094 162.752 77.315C161.225 76.7254 159.798 75.9038 158.522 74.879L160.146 72.059C162.251 73.6307 164.785 74.5249 167.41 74.623C170.543 74.623 172.11 73.5974 172.11 71.546C172.1 71.1098 171.965 70.6856 171.724 70.3226C171.482 69.9595 171.142 69.6726 170.743 69.495C169.816 68.9784 168.77 68.7132 167.709 68.726C166.654 68.7182 165.604 68.862 164.59 69.153L162.795 67.7L167.068 60.949C164.41 60.819 161.809 60.1273 159.438 58.9193C157.066 57.7114 154.977 56.0147 153.309 53.941C149.887 49.5617 148.078 44.1368 148.187 38.5799C148.296 33.023 150.317 27.6734 153.909 23.432C155.845 21.3222 158.215 19.6568 160.857 18.5503C163.498 17.4438 166.347 16.9224 169.209 17.022C173.848 16.9073 178.402 18.2853 182.199 20.953C185.639 23.467 188.161 27.0394 189.378 31.123H182.452C181.524 28.7252 179.921 26.6476 177.837 25.141C175.731 23.6031 173.181 22.7932 170.573 22.834C168.187 22.7674 165.814 23.2043 163.608 24.116C161.766 24.9218 160.119 26.1156 158.78 27.616C156.077 30.8189 154.594 34.8749 154.594 39.066C154.594 43.2572 156.077 47.3132 158.78 50.516C160.192 52.0948 161.936 53.3425 163.886 54.1698C165.836 54.9971 167.944 55.3837 170.061 55.302C172.835 55.3937 175.563 54.5839 177.838 52.994C179.922 51.4875 181.525 49.4098 182.453 47.012H189.372C188.222 50.876 185.891 54.283 182.706 56.755C179.288 59.3815 175.135 60.8753 170.827 61.028L168.607 65.047Z" fill="black"/>
<path d="M197.322 17.701H203.739V60.431H197.322V17.701Z" fill="black"/>
<path d="M233.642 34.537L252.102 60.432H244.239L229.284 38.981L221.251 46.929V60.429H214.841V0.609009H221.251V38.895L241.851 17.701H250.824L233.642 34.537Z" fill="black"/>
<path d="M148.289 94.808C144.669 91.6609 139.993 89.9994 135.199 90.157C128.27 90.157 122.622 92.507 118.406 97.165C114.466 101.888 112.309 107.844 112.31 113.995C112.311 120.145 114.471 126.101 118.413 130.822C120.47 133.104 122.998 134.912 125.823 136.12C128.647 137.327 131.701 137.906 134.772 137.816C140.256 137.816 144.785 136.271 148.289 133.216V137.133H158.259V90.846H148.289V94.808ZM145.205 103.689C147.428 106.663 148.63 110.276 148.63 113.989C148.63 117.702 147.428 121.315 145.205 124.289C144.037 125.673 142.565 126.769 140.903 127.49C139.242 128.211 137.436 128.538 135.627 128.446C133.788 128.518 131.957 128.179 130.266 127.455C128.574 126.73 127.066 125.638 125.849 124.258C123.538 121.334 122.281 117.716 122.281 113.988C122.281 110.261 123.538 106.643 125.849 103.719C127.065 102.337 128.573 101.245 130.265 100.52C131.956 99.7956 133.788 99.4577 135.627 99.531C137.436 99.436 139.243 99.7621 140.905 100.484C142.567 101.205 144.039 102.302 145.205 103.689Z" fill="black"/>
<path d="M183.241 122.825L170.681 90.84H159.71L177.872 134.732L169.29 154.052H180.132L206.939 90.84H196.035L183.241 122.825Z" fill="black"/>
<path d="M237.716 91.475C233.122 89.687 226.051 89.424 221.158 92.575C220.137 93.2309 219.165 93.9615 218.252 94.761V90.844H208.282V137.135H218.252V110.739C218.19 109.237 218.444 107.74 218.998 106.342C219.551 104.945 220.391 103.679 221.464 102.627C222.509 101.608 223.747 100.808 225.106 100.276C226.465 99.7435 227.917 99.4889 229.376 99.527C230.739 99.4669 232.099 99.6988 233.366 100.207C234.632 100.716 235.775 101.489 236.718 102.475C238.634 104.483 239.56 107.161 239.56 110.651V137.13H249.53V110.483C249.53 104.315 247.572 99.259 243.73 95.483C242.041 93.7246 239.989 92.3567 237.716 91.475Z" fill="black"/>
<path d="M289.983 94.808C286.363 91.6617 281.687 90.0003 276.893 90.157C269.964 90.157 264.316 92.507 260.093 97.165C256.156 101.89 254.001 107.846 254.004 113.996C254.006 120.146 256.166 126.1 260.107 130.822C262.164 133.104 264.692 134.912 267.517 136.12C270.341 137.327 273.395 137.906 276.466 137.816C281.95 137.816 286.472 136.271 289.983 133.216V137.133H299.953V90.846H289.983V94.808ZM286.899 103.689C289.119 106.665 290.318 110.278 290.316 113.99C290.315 117.703 289.114 121.315 286.892 124.289C285.725 125.672 284.253 126.767 282.593 127.487C280.932 128.208 279.128 128.534 277.32 128.441C275.481 128.514 273.649 128.176 271.958 127.452C270.266 126.727 268.758 125.634 267.542 124.253C265.232 121.329 263.975 117.711 263.974 113.985C263.973 110.258 265.227 106.64 267.535 103.714C268.752 102.332 270.261 101.239 271.954 100.514C273.647 99.7896 275.48 99.452 277.32 99.526C279.13 99.4322 280.937 99.7592 282.599 100.482C284.261 101.204 285.733 102.302 286.899 103.689Z" fill="black"/>
<path d="M330.419 109.66L349.619 90.841H335.534L317.473 109.427V73.749H307.5V137.132H317.473V122.593L323.473 116.654L337.751 137.132H349.998L330.419 109.66Z" fill="black"/>
<path d="M99.097 60.233C98.826 59.955 98.506 59.756 98.242 59.464C93.3353 53.966 90.883 47.166 90.885 39.064C90.887 30.962 93.3393 24.162 98.242 18.664C98.684 18.18 99.211 17.831 99.673 17.389H61.567C27.504 18.229 0 44.989 0 77.425C0 108.996 25.916 134.783 58.7 136.92V64.501C58.6984 63.4277 59.1227 62.3975 59.8797 61.6366C60.6367 60.8756 61.6646 60.446 62.738 60.442L99.097 60.233Z" fill="#4EA13B"/>
<path d="M92.376 101.71L118.576 76.998H104.334L75.362 104.145V66.984H67.35C66.8518 66.9777 66.3704 67.1637 66.0057 67.5032C65.6411 67.8427 65.4213 68.3096 65.392 68.807V68.985L65.406 69.199L65.392 69.213V137.133H75.362V117.577L85.062 108.518L106.534 137.133H119.026L92.376 101.71Z" fill="black"/>
</svg>
