<svg xmlns="http://www.w3.org/2000/svg" width="527.16" height="375.757" viewBox="0 0 527.16 375.757">
  <g id="Group_13" data-name="Group 13" transform="translate(-0.003 -0.332)" opacity="0.86">
    <ellipse id="Ellipse_7" data-name="Ellipse 7" cx="30.671" cy="8.142" rx="30.671" ry="8.142" transform="translate(431.791 359.804)" fill="#4ea13b" opacity="0.1" style="isolation: isolate"/>
    <path id="Path_58" data-name="Path 58" d="M513.045,338.775c-11.669,9.681-28.275,13.687-44.334,16.217l-2.7.412a507.513,507.513,0,0,1-50.751,4.644c-9.105.441-18.211.752-27.316,1.03l-7.136.211q-13.9.412-27.848.81-13.658.388-27.316.728-17.492.426-34.984.709-13.658.216-27.316.3-17.5.1-34.984-.067-13.667-.139-27.316-.479-17.5-.451-34.984-1.318-11.866-.58-23.717-1.395l-3.6-.254c-33.915-2.444-68.439-6.829-98.118-20.689l-.8-.379c-.4-.187-.8-.374-1.193-.57a107.355,107.355,0,0,1-15.6-9.149c-8.775-6.259-16.021-13.9-19.85-22.96-6-14.214-2.827-30.192,4.026-44.09s17.142-26.444,26.042-39.532c2.607-3.834,5.08-7.812,7.38-11.89C55,185.487,62.129,155.889,47.057,131.242a109.555,109.555,0,0,0-6.436-9.105c-3.676-4.792-7.414-9.585-9.939-14.89C24.792,94.9,26.057,81.019,28.2,67.83,31.08,50.3,36.351,31.409,52.827,20.453,69.922,9.076,94.185,9.651,115.4,13.744c32.986,6.321,63.431,19.553,94.165,31.486s62.928,22.845,96.719,24.019a154.376,154.376,0,0,0,21.748-.791h0a137.9,137.9,0,0,0,28.332-5.966c13.3-4.38,25.4-10.97,34.371-20.128,19.241-19.577,55.4-21.058,81.47-9.235,24.877,11.281,40.965,35.157,39.776,59-1.351,26.545-21.23,48.369-39.446,70.754-2.209,2.712-4.39,5.435-6.513,8.176q-1.778,2.3-3.489,4.6h0c-2,2.712-3.93,5.439-5.751,8.2-9.307,14.152-15.887,31.15-9.479,46.428,3.594,8.554,10.452,15.081,18.719,20.78,18.522,12.762,44.09,21.35,55.591,39.216C531.525,305.684,527.854,326.468,513.045,338.775Z" transform="translate(0 -5.587)" fill="#4ea13b" opacity="0.1" style="isolation: isolate"/>
    <g id="Group_10" data-name="Group 10" transform="translate(219.41 0.332)" opacity="0.1">
      <path id="Path_59" data-name="Path 59" d="M555.482,534.035q.029.676.1,1.323,5.593-2.229,10.979-4.792a8.9,8.9,0,0,0,5.075-2.482c1.049-.527,2.094-1.078,3.129-1.629a12.878,12.878,0,0,0-.8-1.438c-2.018-3.187-5.085-5.181-8.463-5.07s-6.3,2.3-8.109,5.6A16.515,16.515,0,0,0,555.482,534.035Z" transform="translate(-508.676 -270.927)" fill="#3f3d56"/>
      <path id="Path_60" data-name="Path 60" d="M554.333,499.08a16.568,16.568,0,0,0,2.468,8.3c2.022,3.177,5.089,5.171,8.468,5.061.235,0,.479-.034.695-.053a8.9,8.9,0,0,0,5.075-2.482,12.207,12.207,0,0,0,2.334-3.057,17.166,17.166,0,0,0-.546-16.773c-2.022-3.187-5.089-5.18-8.468-5.07s-6.3,2.3-8.1,5.6A16.519,16.519,0,0,0,554.333,499.08Z" transform="translate(-508.078 -252.731)" fill="#3f3d56"/>
      <ellipse id="Ellipse_8" data-name="Ellipse 8" cx="10.481" cy="13.72" rx="10.481" ry="13.72" transform="translate(45.263 215.87) rotate(-1.88)" fill="#3f3d56"/>
      <ellipse id="Ellipse_9" data-name="Ellipse 9" cx="10.481" cy="13.72" rx="10.481" ry="13.72" transform="translate(44.713 199.115) rotate(-1.88)" fill="#3f3d56"/>
      <ellipse id="Ellipse_10" data-name="Ellipse 10" cx="10.481" cy="13.72" rx="10.481" ry="13.72" transform="translate(44.164 182.354) rotate(-1.88)" fill="#3f3d56"/>
      <path id="Path_61" data-name="Path 61" d="M548.387,80.094a49.913,49.913,0,0,0,3.709-5.871L524.425,70.61l29.77-.757a50.266,50.266,0,0,0-.345-39.776L514.6,52.1l35.943-28.275A50.2,50.2,0,1,0,469.5,82.7a50.391,50.391,0,0,0-5.42,9.335l36.331,17.387-38.511-11.53a50.223,50.223,0,0,0,9.637,46.845,50.195,50.195,0,1,0,78.863-2.612A50.209,50.209,0,0,0,548.387,80.094Z" transform="translate(-457.831 -0.332)" fill="#4ea13b"/>
      <path id="Path_62" data-name="Path 62" d="M461.89,236.741a49.962,49.962,0,0,0,11.756,30.671,50.195,50.195,0,1,0,78.863-2.6C558.954,256.063,461.708,231.11,461.89,236.741Z" transform="translate(-459.945 -123.019)" opacity="0.1" style="isolation: isolate"/>
    </g>
    <g id="Group_11" data-name="Group 11" transform="translate(115.288 164.383)" opacity="0.1">
      <path id="Path_63" data-name="Path 63" d="M311.26,722.714a8.2,8.2,0,0,1-.072.958q-3.977-1.581-7.816-3.388a6.33,6.33,0,0,1-3.613-1.759q-1.121-.57-2.228-1.16a9.161,9.161,0,0,1,.565-1.016,6.463,6.463,0,0,1,11.77.364A11.738,11.738,0,0,1,311.26,722.714Z" transform="translate(-270.23 -535.378)" fill="#3f3d56"/>
      <path id="Path_64" data-name="Path 64" d="M310.778,697.8a11.784,11.784,0,0,1-1.744,5.909,7.024,7.024,0,0,1-6.019,3.609l-.479-.038a6.33,6.33,0,0,1-3.613-1.759,8.637,8.637,0,0,1-1.663-2.176,12.235,12.235,0,0,1,.374-11.928,6.482,6.482,0,0,1,11.794.364A11.741,11.741,0,0,1,310.778,697.8Z" transform="translate(-269.375 -522.395)" fill="#3f3d56"/>
      <ellipse id="Ellipse_11" data-name="Ellipse 11" cx="9.762" cy="7.457" rx="9.762" ry="7.457" transform="matrix(0.032, -1, 1, 0.032, 26.576, 172.788)" fill="#3f3d56"/>
      <ellipse id="Ellipse_12" data-name="Ellipse 12" cx="9.762" cy="7.457" rx="9.762" ry="7.457" transform="matrix(0.032, -1, 1, 0.032, 26.948, 160.862)" fill="#3f3d56"/>
      <ellipse id="Ellipse_13" data-name="Ellipse 13" cx="9.762" cy="7.457" rx="9.762" ry="7.457" transform="matrix(0.032, -1, 1, 0.032, 27.326, 148.931)" fill="#3f3d56"/>
      <path id="Path_65" data-name="Path 65" d="M250.315,399.55a36.27,36.27,0,0,1-2.65-4.174l19.687-2.617-21.187-.479a35.77,35.77,0,0,1,.211-28.313L274.329,379.6l-25.6-20.1a35.722,35.722,0,1,1,57.709,41.818,35.686,35.686,0,0,1,3.867,6.642l-25.84,12.4,27.4-8.243a35.775,35.775,0,0,1-6.815,33.355A35.722,35.722,0,1,1,248.92,443.7a35.722,35.722,0,0,1,1.395-44.147Z" transform="translate(-240.565 -342.652)" fill="#4ea13b"/>
      <path id="Path_66" data-name="Path 66" d="M313.382,511.009a35.593,35.593,0,0,1-8.334,21.839,35.722,35.722,0,1,1-56.128-1.773C244.325,524.844,313.516,507,313.382,511.009Z" transform="translate(-240.565 -430.024)" opacity="0.1" style="isolation: isolate"/>
    </g>
    <g id="Group_12" data-name="Group 12" transform="translate(364.866 101.999)" opacity="0.1">
      <path id="Path_67" data-name="Path 67" d="M832.03,592.664a9.29,9.29,0,0,1-.067.958q-3.982-1.581-7.816-3.388a6.353,6.353,0,0,1-3.618-1.759c-.743-.379-1.49-.767-2.228-1.16a9.853,9.853,0,0,1,.565-1.016,6.463,6.463,0,0,1,11.77.364A11.737,11.737,0,0,1,832.03,592.664Z" transform="translate(-791.007 -405.269)" fill="#3f3d56"/>
      <path id="Path_68" data-name="Path 68" d="M831.6,567.754a11.788,11.788,0,0,1-1.749,5.909,7.018,7.018,0,0,1-6.019,3.609l-.479-.038a6.351,6.351,0,0,1-3.618-1.759,8.773,8.773,0,0,1-1.663-2.176,12.235,12.235,0,0,1,.374-11.928,6.482,6.482,0,0,1,11.794.364A11.742,11.742,0,0,1,831.6,567.754Z" transform="translate(-790.172 -392.286)" fill="#3f3d56"/>
      <ellipse id="Ellipse_14" data-name="Ellipse 14" cx="9.762" cy="7.457" rx="9.762" ry="7.457" transform="matrix(0.032, -1, 1, 0.032, 26.585, 172.844)" fill="#3f3d56"/>
      <ellipse id="Ellipse_15" data-name="Ellipse 15" cx="9.762" cy="7.457" rx="9.762" ry="7.457" transform="matrix(0.032, -1, 1, 0.032, 26.962, 160.918)" fill="#3f3d56"/>
      <ellipse id="Ellipse_16" data-name="Ellipse 16" cx="9.762" cy="7.457" rx="9.762" ry="7.457" transform="matrix(0.032, -1, 1, 0.032, 27.34, 148.992)" fill="#3f3d56"/>
      <path id="Path_69" data-name="Path 69" d="M771.092,269.436a35.292,35.292,0,0,1-2.645-4.174l19.687-2.593-21.187-.513a35.8,35.8,0,0,1,.206-28.313l27.954,15.637-25.6-20.094A35.727,35.727,0,1,1,827.215,271.2a35.665,35.665,0,0,1,3.863,6.642l-25.84,12.4,27.4-8.243a35.737,35.737,0,0,1-6.815,33.35,35.717,35.717,0,1,1-56.113-1.773,35.722,35.722,0,0,1,1.395-44.147Z" transform="translate(-761.349 -212.478)" fill="#4ea13b"/>
      <path id="Path_70" data-name="Path 70" d="M834.167,380.957a35.558,35.558,0,0,1-8.339,21.834,35.717,35.717,0,1,1-56.118-1.773C765.11,394.793,834.292,376.941,834.167,380.957Z" transform="translate(-761.352 -299.913)" opacity="0.1" style="isolation: isolate"/>
    </g>
    <ellipse id="Ellipse_17" data-name="Ellipse 17" cx="27.321" cy="5.252" rx="27.321" ry="5.252" transform="translate(65.412 354.772)" fill="#4ea13b"/>
    <ellipse id="Ellipse_18" data-name="Ellipse 18" cx="3.182" cy="4.165" rx="3.182" ry="4.165" transform="translate(89.096 353.627)" fill="#3f3d56"/>
    <ellipse id="Ellipse_19" data-name="Ellipse 19" cx="3.182" cy="4.165" rx="3.182" ry="4.165" transform="translate(89.096 348.537)" fill="#3f3d56"/>
    <ellipse id="Ellipse_20" data-name="Ellipse 20" cx="3.182" cy="4.165" rx="3.182" ry="4.165" transform="translate(89.096 343.448)" fill="#3f3d56"/>
    <ellipse id="Ellipse_21" data-name="Ellipse 21" cx="3.182" cy="4.165" rx="3.182" ry="4.165" transform="translate(89.096 338.358)" fill="#3f3d56"/>
    <ellipse id="Ellipse_22" data-name="Ellipse 22" cx="3.182" cy="4.165" rx="3.182" ry="4.165" transform="translate(89.096 333.269)" fill="#3f3d56"/>
    <ellipse id="Ellipse_23" data-name="Ellipse 23" cx="3.182" cy="4.165" rx="3.182" ry="4.165" transform="translate(89.096 328.179)" fill="#3f3d56"/>
    <ellipse id="Ellipse_24" data-name="Ellipse 24" cx="3.182" cy="4.165" rx="3.182" ry="4.165" transform="translate(89.096 323.09)" fill="#3f3d56"/>
    <path id="Path_71" data-name="Path 71" d="M187.825,583.021a15.524,15.524,0,0,0,1.184-1.745l-8.358-1.375,9.038.072a15.284,15.284,0,0,0,.292-12.077l-12.129,6.292,11.185-8.238a15.24,15.24,0,1,0-25.169,17.056,15.358,15.358,0,0,0-1.735,2.78l10.85,5.636-11.569-3.882a15.25,15.25,0,0,0,2.454,14.31,15.24,15.24,0,1,0,23.962,0,15.249,15.249,0,0,0,0-18.844Z" transform="translate(-83.638 -290.598)" fill="#4ea13b"/>
    <path id="Path_72" data-name="Path 72" d="M160.609,629.246a15.176,15.176,0,0,0,3.259,9.422,15.24,15.24,0,1,0,23.962,0C189.867,636.075,160.609,627.535,160.609,629.246Z" transform="translate(-83.638 -327.4)" opacity="0.1" style="isolation: isolate"/>
    <path id="Path_73" data-name="Path 73" d="M316.816,512.617V620.924q-11.866-.58-23.717-1.395l-3.6-.254V512.617a4.227,4.227,0,0,1,4.227-4.227h18.863A4.227,4.227,0,0,1,316.816,512.617Z" transform="translate(-150.76 -264.58)" fill="#3f3d56"/>
    <path id="Path_74" data-name="Path 74" d="M419.5,543.635V361.617a4.227,4.227,0,0,1,4.227-4.227h18.863a4.227,4.227,0,0,1,4.227,4.227h0V544.109Z" transform="translate(-218.46 -185.944)" fill="#3f3d56"/>
    <path id="Path_75" data-name="Path 75" d="M549.5,585.345V440.617a4.227,4.227,0,0,1,4.227-4.227h18.863a4.227,4.227,0,0,1,4.227,4.227h0V585.034Z" transform="translate(-286.16 -227.085)" fill="#3f3d56"/>
    <path id="Path_76" data-name="Path 76" d="M706.816,216.617V466.945q-13.658.388-27.316.728V216.617a4.227,4.227,0,0,1,4.227-4.227h18.863a4.227,4.227,0,0,1,4.227,4.227Z" transform="translate(-353.859 -110.433)" fill="#3f3d56"/>
    <path id="Path_77" data-name="Path 77" d="M836.816,321.617V519.54c-9.106.441-18.211.752-27.316,1.03V321.617a4.227,4.227,0,0,1,4.227-4.227h18.863a4.227,4.227,0,0,1,4.227,4.227Z" transform="translate(-421.559 -165.113)" fill="#3f3d56"/>
    <path id="Path_78" data-name="Path 78" d="M318.5,231.263l62.3-69.489,62.3,34.984L505.4,89.41l62.3,51.278" transform="translate(-165.863 -46.389)" fill="none" stroke="#3f3d56" stroke-linecap="round" stroke-miterlimit="10" stroke-width="7"/>
    <circle id="Ellipse_25" data-name="Ellipse 25" cx="13.419" cy="13.419" r="13.419" transform="translate(138.979 171.456)" fill="#4ea13b"/>
    <circle id="Ellipse_26" data-name="Ellipse 26" cx="13.419" cy="13.419" r="13.419" transform="translate(201.28 101.967)" fill="#4ea13b"/>
    <circle id="Ellipse_27" data-name="Ellipse 27" cx="13.419" cy="13.419" r="13.419" transform="translate(263.58 136.951)" fill="#4ea13b"/>
    <circle id="Ellipse_28" data-name="Ellipse 28" cx="13.419" cy="13.419" r="13.419" transform="translate(325.88 29.602)" fill="#4ea13b"/>
    <circle id="Ellipse_29" data-name="Ellipse 29" cx="13.419" cy="13.419" r="13.419" transform="translate(445.689 143.66)" fill="#4ea13b"/>
    <ellipse id="Ellipse_30" data-name="Ellipse 30" cx="8.952" cy="1.514" rx="8.952" ry="1.514" transform="translate(103.037 344.957)" fill="#4ea13b" opacity="0.1" style="isolation: isolate"/>
    <path id="Path_79" data-name="Path 79" d="M221.14,704.942s5.1-.158,6.642-1.256,7.855-2.4,8.238-.647,7.668,8.741,1.917,8.789-13.395-.9-14.928-1.836S221.14,704.942,221.14,704.942Z" transform="translate(-115.161 -365.501)" fill="#a8a8a8"/>
    <path id="Path_80" data-name="Path 80" d="M238.028,714.208c-5.751.048-13.39-.9-14.928-1.831-1.169-.714-1.634-3.268-1.792-4.447h-.168s.321,4.117,1.859,5.051,9.163,1.883,14.928,1.835c1.663,0,2.238-.6,2.2-1.481C239.9,713.868,239.269,714.2,238.028,714.208Z" transform="translate(-115.161 -368.493)" opacity="0.2" style="isolation: isolate"/>
    <ellipse id="Ellipse_31" data-name="Ellipse 31" cx="16.443" cy="2.78" rx="16.443" ry="2.78" transform="translate(493.368 356.536)" fill="#4ea13b" opacity="0.1" style="isolation: isolate"/>
  </g>
</svg>
