<svg xmlns="http://www.w3.org/2000/svg" xmlns:xlink="http://www.w3.org/1999/xlink" width="470.455" height="310.69" viewBox="0 0 470.455 310.69">
  <defs>
    <filter id="Path_2" x="0" y="192.388" width="470.455" height="118.301" filterUnits="userSpaceOnUse">
      <feOffset dy="38" input="SourceAlpha"/>
      <feGaussianBlur stdDeviation="3" result="blur"/>
      <feFlood flood-opacity="0.161"/>
      <feComposite operator="in" in2="blur"/>
      <feComposite in="SourceGraphic"/>
    </filter>
  </defs>
  <g id="Group_4" data-name="Group 4" transform="translate(-1029 -253.592)" style="isolation: isolate">
    <g id="Group_3" data-name="Group 3" transform="translate(1038 253.592)">
      <g id="Group_2" data-name="Group 2" transform="translate(0 0)">
        <ellipse id="Ellipse_1" data-name="Ellipse 1" cx="128" cy="128.5" rx="128" ry="128.5" transform="translate(18.382 0)" fill="#f2f2f2"/>
        <g transform="matrix(1, 0, 0, 1, -9, 0)" filter="url(#Path_2)">
          <path id="Path_2-2" data-name="Path 2" d="M452.455,472.648a6.016,6.016,0,0,1-.075.933c-3.143,19.26-103.193,34.718-226.153,34.718S3.217,492.841.075,473.581A6.021,6.021,0,0,1,0,472.648c0-.088,0-.18.009-.268,0-.048,0-.092,0-.141a.21.21,0,0,0,0-.053c.018-.2.044-.387.079-.581,1.435-7.874,19.08-15.11,47.86-20.906,23.538-4.74,54.528-8.521,90.2-10.9,27.068-1.8,56.83-2.8,88.075-2.8,25.14,0,49.321.647,71.909,1.835h.009q7.091.376,13.97.823c31.395,2.033,59.255,5.145,81.7,9.04a277.627,277.627,0,0,1,34.854,8.019h0c14.287,4.5,22.711,9.551,23.684,14.89.035.194.062.383.079.581a.212.212,0,0,0,0,.053c0,.048,0,.092,0,.141C452.455,472.467,452.455,472.56,452.455,472.648Z" transform="translate(9 -244.61)" fill="#3f3d56"/>
        </g>
        <ellipse id="Ellipse_2" data-name="Ellipse 2" cx="72" cy="10.5" rx="72" ry="10.5" transform="translate(148.382 241)" opacity="0.1" style="isolation: isolate"/>
        <path id="Path_3" data-name="Path 3" d="M808.133,460.1c-2.54.726-5.4,1.4-8.539,2.016-12.922,2.544-30.554,4.106-49.968,4.106-21.69,0-41.13-1.95-54.3-5.035-10.933-2.562-17.552-5.893-17.552-9.551,0-3.213,5.123-6.188,13.807-8.6,31.395,2.033,59.255,5.145,81.7,9.04A277.624,277.624,0,0,1,808.133,460.1Z" transform="translate(-379.462 -247.99)" opacity="0.1" style="isolation: isolate"/>
        <path id="Path_4" data-name="Path 4" d="M294.616,455.412c0,6.659-41.777,12.06-93.308,12.06S108,462.071,108,455.412a1.923,1.923,0,0,1,.423-1.153c23.538-4.74,54.528-8.521,90.2-10.9q1.34-.007,2.689,0C252.838,443.356,294.616,448.752,294.616,455.412Z" transform="translate(-60.466 -248.169)" opacity="0.1" style="isolation: isolate"/>
        <rect id="Rectangle_2" data-name="Rectangle 2" width="18.347" height="59.235" transform="translate(183.302 147.485)" fill="#0078be"/>
        <rect id="Rectangle_3" data-name="Rectangle 3" width="18.347" height="87.017" transform="translate(123.019 119.703)" fill="#0078be"/>
        <rect id="Rectangle_4" data-name="Rectangle 4" width="18.347" height="87.017" transform="translate(63.26 119.703)" fill="#0078be"/>
        <rect id="Rectangle_5" data-name="Rectangle 5" width="18.347" height="59.235" transform="translate(93.14 119.703)" fill="#0078be"/>
        <rect id="Rectangle_6" data-name="Rectangle 6" width="18.347" height="17.299" transform="translate(152.899 119.703)" fill="#0078be"/>
        <rect id="Rectangle_7" data-name="Rectangle 7" width="18.347" height="59.235" transform="translate(152.899 147.485)" fill="#8a8b8c"/>
        <rect id="Rectangle_8" data-name="Rectangle 8" width="48.226" height="17.299" transform="translate(183.302 119.703)" fill="#0078be"/>
        <path id="Path_5" data-name="Path 5" d="M758.125,260.029a43.757,43.757,0,0,1,32.03,13.133,43.133,43.133,0,0,1,9.609,14.453,47.249,47.249,0,0,1,.042,34.51,41.168,41.168,0,0,1-9.568,14.214,46.086,46.086,0,0,1-14.895,9.93,44.639,44.639,0,0,1-17.215,3.443,43.574,43.574,0,0,1-17.016-3.4,46.146,46.146,0,0,1-24.383-24.382,44.713,44.713,0,0,1,9.928-48.846Q739.469,260.032,758.125,260.029Zm.162,8.088a34.752,34.752,0,0,0-25.866,10.73,38.558,38.558,0,0,0-8.127,12.051,35.557,35.557,0,0,0,0,27.866,37.959,37.959,0,0,0,20.06,19.942,36.394,36.394,0,0,0,27.909-.039,38.721,38.721,0,0,0,12.21-8.087q10.489-10.249,10.487-25.706a36.813,36.813,0,0,0-2.723-14.093,35.851,35.851,0,0,0-7.923-11.852,35.494,35.494,0,0,0-26.027-10.811Zm-.562,29.309-6.008,3.124a6.164,6.164,0,0,0-2.361-2.8,5.32,5.32,0,0,0-2.6-.8q-6,0-6.006,7.927a9.832,9.832,0,0,0,1.52,5.764,5.134,5.134,0,0,0,4.486,2.163,5.615,5.615,0,0,0,5.527-3.844l5.524,2.8a13.836,13.836,0,0,1-21.461,3.363q-3.683-3.683-3.682-10.248,0-6.407,3.723-10.169a12.688,12.688,0,0,1,9.41-3.764q8.33,0,11.932,6.484Zm25.864,0-5.926,3.124a6.161,6.161,0,0,0-2.363-2.8,5.445,5.445,0,0,0-2.682-.8q-6.006,0-6.007,7.927a9.826,9.826,0,0,0,1.522,5.764,5.131,5.131,0,0,0,4.486,2.163,5.612,5.612,0,0,0,5.522-3.844l5.606,2.8a13.769,13.769,0,0,1-4.962,5.165,14.078,14.078,0,0,1-16.533-1.8q-3.649-3.683-3.646-10.248,0-6.407,3.725-10.169a12.679,12.679,0,0,1,9.407-3.764q8.328,0,11.852,6.484Z" transform="translate(-399.391 -145.53)" fill="#f2f2f2"/>
        <path id="Path_6" data-name="Path 6" d="M584.775,477.115c0,21.451-29.9,14.816-66.509,14.816S452.2,498.565,452.2,477.115,482.1,451,518.706,451,584.775,455.663,584.775,477.115Z" transform="translate(-253.173 -252.447)" opacity="0.1" style="isolation: isolate"/>
        <path id="Path_7" data-name="Path 7" d="M584.775,465.115c0,21.451-29.9,14.816-66.509,14.816S452.2,486.565,452.2,465.115,482.1,439,518.706,439,584.775,443.663,584.775,465.115Z" transform="translate(-253.173 -245.729)" fill="#3f3d56"/>
        <path id="Path_8" data-name="Path 8" d="M730.561,410.463l1.511,6.234a.393.393,0,0,1-.008.21l-6.856,21.423a.389.389,0,0,1-.757-.075l-.948-8.345a.393.393,0,0,1,.017-.165l6.293-19.311a.389.389,0,0,1,.749.029Z" transform="translate(-405.065 -229.587)" fill="#2f2e41"/>
        <path id="Path_9" data-name="Path 9" d="M730.587,412.038l1.4,5.349-6.046,19.534-1.4-6.046Z" transform="translate(-405.648 -230.635)" fill="#f2f2f2"/>
        <path id="Path_10" data-name="Path 10" d="M669.009,464.475c.232.7,24.185-.232,24.417-.465a5.059,5.059,0,0,0,.512-.93c.218-.465.419-.93.419-.93l-.93-7.53-23.719-.842s-.593,6.381-.714,9.3A6.975,6.975,0,0,0,669.009,464.475Z" transform="translate(-374.533 -254.004)" fill="#2f2e41"/>
        <path id="Path_11" data-name="Path 11" d="M704.953,458.005l.465,6.511H694.953v-6.511Z" transform="translate(-389.082 -256.37)" opacity="0.1" style="isolation: isolate"/>
        <path id="Path_12" data-name="Path 12" d="M679.337,462.744l.063-.012-.3,2.8h-5.814v-2.79Z" transform="translate(-376.955 -259.017)" opacity="0.1" style="isolation: isolate"/>
        <path id="Path_13" data-name="Path 13" d="M669.009,476.307c.232.7,24.185-.232,24.417-.465a5.056,5.056,0,0,0,.512-.93H668.992A6.975,6.975,0,0,0,669.009,476.307Z" transform="translate(-374.533 -265.836)" opacity="0.1" style="isolation: isolate"/>
        <path id="Path_14" data-name="Path 14" d="M577.66,413.062h6.511l16.046-6.279s11.395-4.651,10.465,4.186-2.558,20.7-2.558,20.7-5.116-2.326-7.906-1.628-.93-14.185-.93-14.185-22.79,10.93-24.882,9.535-2.558-11.162-2.558-11.162Z" transform="translate(-320.159 -227.008)" fill="#2f2e41"/>
        <path id="Path_15" data-name="Path 15" d="M577.66,413.062h6.511l16.046-6.279s11.395-4.651,10.465,4.186-2.558,20.7-2.558,20.7-5.116-2.326-7.906-1.628-.93-14.185-.93-14.185-22.79,10.93-24.882,9.535-2.558-11.162-2.558-11.162Z" transform="translate(-320.159 -227.008)" opacity="0.1" style="isolation: isolate"/>
        <path id="Path_16" data-name="Path 16" d="M600.934,376.276l7.88,11.322,18.371,15.348s16.976,3.953,14.651,6.744-16.511-2.79-16.511-2.79-21.161-15.348-21.859-16.511-8.372-12.093-8.372-12.093Z" transform="translate(-333.175 -210.613)" fill="#a0616a"/>
        <path id="Path_17" data-name="Path 17" d="M600.934,376.276l7.88,11.322,18.371,15.348s16.976,3.953,14.651,6.744-16.511-2.79-16.511-2.79-21.161-15.348-21.859-16.511-8.372-12.093-8.372-12.093Z" transform="translate(-333.175 -210.613)" opacity="0.1" style="isolation: isolate"/>
        <circle id="Ellipse_3" data-name="Ellipse 3" cx="10.465" cy="10.465" r="10.465" transform="translate(256.106 132.336)" fill="#a0616a"/>
        <path id="Path_18" data-name="Path 18" d="M583.813,334s-3.488,6.047-4.186,9.3-10.465-6.511-10.465-6.511l-1.279-3.372s9.186-4.3,8.488-7.79S583.813,334,583.813,334Z" transform="translate(-317.941 -181.897)" fill="#a0616a"/>
        <path id="Path_19" data-name="Path 19" d="M587.974,355.5l5.116,10s-1.163,4.884-3.023,5.349-9.767-6.047-9.767-6.047Z" transform="translate(-324.892 -198.983)" fill="#d0cde1"/>
        <path id="Path_20" data-name="Path 20" d="M594.1,386.677l9.535,12.557,22.789,16.976s16.511,3.488,12.79,6.046-14.418-2.325-14.418-2.325-23.022-12.325-27.906-17.441-13.953-13.72-13.953-13.72Z" transform="translate(-326.371 -216.436)" fill="#a0616a"/>
        <path id="Path_21" data-name="Path 21" d="M552.917,429.207l2.79,4.418,16.654-5.24a13.1,13.1,0,0,1,10.9,1.316c2.907,1.831,4.767,4.738.581,9.04-8.372,8.6-13.953,3.953-13.953,3.953s-28.138,13.255-32.789,6.744-4.883-9.767-4.883-9.767S550.126,428.509,552.917,429.207Z" transform="translate(-297.973 -239.432)" fill="#2f2e41"/>
        <path id="Path_22" data-name="Path 22" d="M627.437,463.268s7.441,4.884-1.4,7.209a23.412,23.412,0,0,1-15.348-.93s-7.674,0-7.674-3.953,2.558-4.419,2.558-4.419l7.907,1.163S623.019,459.78,627.437,463.268Z" transform="translate(-337.612 -258.145)" fill="#d0cde1"/>
        <path id="Path_23" data-name="Path 23" d="M596.636,302.208a7.8,7.8,0,0,0,2.193.786,2,2,0,0,0,2.023-.867,2.73,2.73,0,0,0,.23-1.23,5.481,5.481,0,0,0-.874-3.646c-.515-.629-1.267-1.025-1.8-1.639a7.758,7.758,0,0,1-.91-1.487c-1.037-1.947-2.572-3.819-4.705-4.38a10.185,10.185,0,0,0-2.746-.21l-5.372.076a9.342,9.342,0,0,0-2.584.278c-1.729.523-2.989,1.977-4.142,3.367a21.081,21.081,0,0,0-2.375,3.278,11.5,11.5,0,0,0-1.363,5.635,5.278,5.278,0,0,0,.193,1.491,8.271,8.271,0,0,0,.586,1.287c1.007,1.979,1.606,4.451.471,6.359a12.217,12.217,0,0,0,5.221-3.547,9.766,9.766,0,0,1,1.813-2.191,1.816,1.816,0,0,1,2.536.211,2.271,2.271,0,0,1,.256,1.064,4.881,4.881,0,0,0,.294,1.8,1.346,1.346,0,0,0,1.462.835c1.013-.285.915-1.839,1.7-2.545.592-.536,1.506-.434,2.267-.677a3.365,3.365,0,0,0,1.931-1.9c.288-.646.284-2.337.829-2.687C594.448,301.227,596,301.925,596.636,302.208Z" transform="translate(-321.481 -162.039)" fill="#2f2e41"/>
        <path id="Path_24" data-name="Path 24" d="M544.128,341.52a2.765,2.765,0,0,1,1.437,0c1.493.4,4.839,1.462,5.557,3.076.93,2.093,4.186,5.349,4.186,5.349s4.418,4.418,3.488,7.441-4.418,6.511-4.418,6.511.93,14.418-3.72,18.139-6.511,1.163-6.511,4.651-14.418,14.418-17.209,7.674c0,0,1.4-12.558.93-16.976C527.408,373.034,528.079,345.865,544.128,341.52Z" transform="translate(-295.015 -191.102)" fill="#d0cde1"/>
        <path id="Path_25" data-name="Path 25" d="M569.133,354.2s14.185,10.465,11.627,14.883c0,0-8.6,4.186-10.465,3.953s-9.069-8.371-10.93-9.069S556.576,350.71,569.133,354.2Z" transform="translate(-312.562 -197.91)" fill="#d0cde1"/>
        <path id="Path_26" data-name="Path 26" d="M473.365,374.747a6.8,6.8,0,0,0-4.657,4.772c-.209,1.059-.081,2.16-.257,3.225-.409,2.47-2.348,4.356-4.136,6.108s-3.635,3.788-3.765,6.288c-.143,2.738,1.843,5.3,1.5,8.022-.4,3.16-3.736,5.207-4.562,8.283a7.969,7.969,0,0,0,1.235,6.08,17.4,17.4,0,0,0,9.586,7.06,39.94,39.94,0,0,0,12.008,1.565c4.934.051,10.291-.372,14-3.628a11.216,11.216,0,0,0,3.723-7.3c.352-3.772-1.222-7.67-.136-11.3.684-2.284,2.4-4.37,2.142-6.741-.25-2.318-2.275-3.961-3.663-5.834a23.706,23.706,0,0,1-2.855-5.848l-2.639-6.965a8.08,8.08,0,0,0-2.244-3.708c-2.164-1.682-5.643-1.352-8.174-1C478.122,374.144,475.622,373.985,473.365,374.747Z" transform="translate(-256.023 -209.082)" fill="#2f2e41"/>
        <path id="Path_27" data-name="Path 27" d="M481.331,421.954s1.17,3.8-7.6,8.187.878,9.065.878,9.065l10.234,2.339s10.527-1.462,11.7-3.216,3.216-7.6,2.632-8.48a13.7,13.7,0,0,0-1.462-1.754s-7.018-1.17-6.726-4.386S481.331,421.954,481.331,421.954Z" transform="translate(-263.163 -236.001)" fill="#ffb9b9"/>
        <path id="Path_28" data-name="Path 28" d="M481.331,421.954s1.17,3.8-7.6,8.187.878,9.065.878,9.065l10.234,2.339s10.527-1.462,11.7-3.216,3.216-7.6,2.632-8.48a13.7,13.7,0,0,0-1.462-1.754s-7.018-1.17-6.726-4.386S481.331,421.954,481.331,421.954Z" transform="translate(-263.163 -236.001)" opacity="0.1" style="isolation: isolate"/>
        <circle id="Ellipse_4" data-name="Ellipse 4" cx="9.357" cy="9.357" r="9.357" transform="translate(213.135 190.328) rotate(-80.783)" fill="#ffb9b9"/>
        <path id="Path_29" data-name="Path 29" d="M478.793,446.116s-11.269-.824-11.483-8.6c0,0-4.015-.465-5.185.7s-4.971,2.047-4.971,4.971,6.433,11.7,6.433,11.7,3.509,11.7,2.047,13.743-1.754,7.311-1.754,7.311,14.621-1.17,16.96,0,11.7,1.169,12.281,0-.585-15.79-.585-15.79a11.417,11.417,0,0,0,2.047-7.6l7.018-8.187s-2.632-7.9-6.726-7.9c0,0-5.556-1.462-5.7-.731S491.952,444.654,478.793,446.116Z" transform="translate(-255.947 -243.788)" fill="#d0cde1"/>
        <path id="Path_30" data-name="Path 30" d="M446.525,513.582s2.632,4.094,9.357,4.971,7.9-1.462,7.311-2.047-7.6-3.217-7.6-3.217l-4.094-3.216Z" transform="translate(-249.995 -285.522)" fill="#ffb9b9"/>
        <path id="Path_31" data-name="Path 31" d="M536.9,510.073l-7.6,4.386s-9.942-.585-6.141,2.339,10.819,1.754,10.819,1.754l6.725-3.216Z" transform="translate(-292.413 -285.522)" fill="#ffb9b9"/>
        <path id="Path_32" data-name="Path 32" d="M465.644,527.347s-7.018,17.252,1.462,19.884,31.873,2.047,37.136-1.462,6.726-8.187,5.848-9.649-6.726-5.556-10.819-5.849S465.644,527.347,465.644,527.347Z" transform="translate(-259.173 -295.193)" fill="#2f2e41"/>
        <path id="Path_33" data-name="Path 33" d="M465.644,527.347s-7.018,17.252,1.462,19.884,31.873,2.047,37.136-1.462,6.726-8.187,5.848-9.649-6.726-5.556-10.819-5.849S465.644,527.347,465.644,527.347Z" transform="translate(-259.173 -295.193)" opacity="0.05" style="isolation: isolate"/>
        <path id="Path_34" data-name="Path 34" d="M515.258,525.345s24.771-8.967,24.478,1.852-15.79,13.744-15.79,13.744l-4.679.585-25.732.877s.877-4.679-1.17-5.264c0,0,6.726-1.754,7.018-2.047s16.96-6.14,18.129-6.433,4.679-2.632,7.31-2.339c0,0,2.924-2.339,6.141-1.754l-9.064.585Z" transform="translate(-275.66 -292.119)" fill="#2f2e41"/>
        <path id="Path_35" data-name="Path 35" d="M515.258,525.345s24.771-8.967,24.478,1.852-15.79,13.744-15.79,13.744l-4.679.585-25.732.877s.877-4.679-1.17-5.264c0,0,6.726-1.754,7.018-2.047s16.96-6.14,18.129-6.433,4.679-2.632,7.31-2.339c0,0,2.924-2.339,6.141-1.754l-9.064.585Z" transform="translate(-275.66 -292.119)" opacity="0.1" style="isolation: isolate"/>
        <path id="Path_36" data-name="Path 36" d="M534.434,527.638l3.123,7.126,19.007-6.726,1.462-3.8-4.971-.878-9.994,1.755-4.334,1.169Z" transform="translate(-299.213 -292.961)" fill="#2f2e41"/>
        <path id="Path_37" data-name="Path 37" d="M534.434,527.638l3.123,7.126,19.007-6.726,1.462-3.8-4.971-.878-9.994,1.755-4.334,1.169Z" transform="translate(-299.213 -292.961)" opacity="0.1" style="isolation: isolate"/>
        <path id="Path_38" data-name="Path 38" d="M435.843,534.036s5.556,7.018,11.989,8.772,9.942-.585,9.942-.585l-2.047-8.187-.877-5.264-3.8-2.632-7.6-3.509-9.065-2.924s-3.8-.585-3.8,0,3.509,9.357,3.509,9.357Z" transform="translate(-241.068 -290.771)" fill="#2f2e41"/>
        <path id="Path_39" data-name="Path 39" d="M457.819,561.172s1.169,8.479,2.632,9.065,5.849-.585,7.018-1.169,5.146-3.283,5.146-3.283S458.7,560.587,457.819,561.172Z" transform="translate(-256.319 -314.104)" fill="#f2f2f2"/>
        <path id="Path_40" data-name="Path 40" d="M514.743,563.223l5.556.877-.585,6.725-7.749-1.882Z" transform="translate(-286.633 -315.279)" fill="#ffb9b9"/>
        <path id="Path_41" data-name="Path 41" d="M524.724,563.67s-2.6,3.1.028,4.854l1.754,1.462s5.849,1.169,6.433,1.754,2.924-.877,2.924-.877.292-8.772,0-9.357-3.8-1.169-4.094-.585-3.8,1.462-5.849.877Z" transform="translate(-293.133 -313.855)" fill="#f2f2f2"/>
        <path id="Path_42" data-name="Path 42" d="M438.639,521.1s-20.468-11.989-23.685-7.6-6.725,10.527,2.632,15.205,38.6,14.328,38.6,14.328,4.386-6.726,4.386-8.48c0,0-15.5-7.018-18.129-7.6s-13.158-7.311-14.62-7.9a16.981,16.981,0,0,1-3.509-2.339Z" transform="translate(-230.414 -286.898)" fill="#2f2e41"/>
        <path id="Path_43" data-name="Path 43" d="M450.119,449.615l-1.169.877s-2.632,6.726-2.924,10.527-3.8,15.5-3.509,16.96a6,6,0,0,0,2.339,4.094s2.339-5.263,6.433-4.386l4.971-18.129Z" transform="translate(-247.742 -251.673)" fill="#d0cde1"/>
        <path id="Path_44" data-name="Path 44" d="M545.757,449.615l2.339,2.632a25.268,25.268,0,0,1,1.462,4.386c0,.877,2.924,13.744,3.216,14.328s1.462,7.9,0,9.65a13.149,13.149,0,0,1-4.094,2.924s1.754-6.141-3.8-6.433l.585-2.339L540.2,457.218Z" transform="translate(-302.442 -251.673)" fill="#d0cde1"/>
        <path id="Path_45" data-name="Path 45" d="M461.141,490.646v15.4a3.7,3.7,0,0,0,3.648,3.7l32.211.477a3.7,3.7,0,0,0,3.755-3.56l.592-15.4a3.7,3.7,0,0,0-3.558-3.843l-.089,0-32.8-.475a3.7,3.7,0,0,0-3.756,3.649C461.141,490.61,461.141,490.628,461.141,490.646Z" transform="translate(-258.178 -272.572)" fill="#3f3d56"/>
        <ellipse id="Ellipse_5" data-name="Ellipse 5" cx="10.072" cy="5.423" rx="10.072" ry="5.423" transform="translate(214.347 171.444)" fill="#2f2e41"/>
        <circle id="Ellipse_6" data-name="Ellipse 6" cx="2.339" cy="2.339" r="2.339" transform="translate(220.361 223.82)" fill="#f2f2f2"/>
      </g>
    </g>
  </g>
</svg>
