<svg width="1733" height="398" viewBox="0 0 1733 398" fill="none" xmlns="http://www.w3.org/2000/svg">
<path d="M158.995 298.812C156.075 300.578 151.328 300.583 148.397 298.833L48.6418 239.219L28.2264 249.969L148.397 321.781C151.328 323.531 156.075 323.521 158.995 321.76L218.511 285.922L278.028 250.083L257.64 239.411L158.995 298.812Z" fill="black" fill-opacity="0.2"/>
<path d="M48.4425 246.193L17.0085 262.74C14.2444 264.193 12.5687 265.974 12.5256 267.5C12.4825 269.031 14.0558 270.896 16.7283 272.495L151.678 353.141C151.931 353.292 152.632 353.547 153.677 353.547C154.728 353.547 155.439 353.286 155.697 353.135L289.494 272.562C292.167 270.958 293.729 269.078 293.681 267.547C293.637 266.01 291.951 264.229 289.187 262.781L257.861 246.385L162.292 303.932C159.9 305.375 156.84 306.172 153.677 306.172C150.541 306.172 147.502 305.385 145.121 303.964L48.4425 246.193ZM153.677 365.609C150.541 365.609 147.497 364.823 145.115 363.401L10.1657 282.755C3.57067 278.812 -0.114775 273.13 0.052255 267.167C0.224673 261.203 4.22801 255.729 11.0385 252.146L48.8412 232.25L151.678 293.703C151.926 293.854 152.632 294.109 153.677 294.109C154.733 294.109 155.439 293.849 155.697 293.698L257.424 232.438L295.13 252.172C301.951 255.75 305.965 261.214 306.159 267.182C306.342 273.141 302.679 278.839 296.094 282.802L162.292 363.37C159.9 364.812 156.84 365.609 153.677 365.609Z" fill="white"/>
<path d="M31.5671 188.771L148.397 258.589C151.328 260.344 156.075 260.328 158.995 258.573L274.693 188.901L152.675 125.021L31.5671 188.771Z" fill="black" fill-opacity="0.2"/>
<path d="M152.68 131.88L17.0085 203.302C14.2444 204.75 12.5687 206.531 12.5256 208.062C12.4825 209.589 14.0558 211.458 16.7283 213.052L151.678 293.703C151.926 293.854 152.632 294.109 153.677 294.109C154.733 294.109 155.439 293.849 155.697 293.698L289.494 213.125C292.167 211.516 293.729 209.641 293.681 208.104C293.637 206.573 291.956 204.792 289.187 203.344L152.68 131.88ZM153.677 306.172C150.541 306.172 147.502 305.385 145.121 303.964L10.1657 223.312C3.57067 219.375 -0.114775 213.693 0.052255 207.729C0.224673 201.766 4.22801 196.292 11.0385 192.703L152.664 118.156L295.13 192.74C301.951 196.307 305.965 201.776 306.159 207.74C306.342 213.703 302.679 219.396 296.094 223.359L162.292 303.932C159.9 305.375 156.84 306.172 153.677 306.172Z" fill="white"/>
<path d="M148.397 242.547C151.328 244.297 156.075 244.292 158.995 242.526L292.797 161.958C302.544 156.083 302.258 147.042 292.161 141.755L158.16 71.6042C155.126 70.0208 150.218 70.026 147.195 71.6198L14.0235 141.719C3.93704 147.026 3.67842 156.063 13.447 161.901L148.397 242.547Z" fill="white"/>
<g filter="url(#filter0_d_1_8)">
<path d="M422.079 326H461.159V91.5232H383V130.603H422.079V326ZM570.961 286.921H531.881V130.603H570.961V286.921ZM512.308 326H590.467C595.811 326 600.421 324.13 604.295 320.322C608.103 316.514 610.04 311.905 610.04 306.494V111.03C610.04 105.685 608.103 101.076 604.295 97.2014C600.421 93.4605 595.811 91.5232 590.467 91.5232H512.308C506.897 91.5232 502.288 93.4605 498.48 97.2682C494.672 101.143 492.802 105.752 492.802 111.096V306.494C492.802 311.905 494.672 316.514 498.48 320.322C502.288 324.13 506.897 326 512.308 326ZM641.617 326H680.696V238.088L739.282 208.762V169.682L680.696 199.008V130.603H739.282V91.5232H641.617V326ZM846.348 286.921H807.268V130.603H846.348V286.921ZM787.695 326H865.854C871.198 326 875.807 324.13 879.682 320.322C883.49 316.514 885.427 311.905 885.427 306.494V111.03C885.427 105.685 883.49 101.076 879.682 97.2014C875.807 93.4605 871.198 91.5232 865.854 91.5232H787.695C782.284 91.5232 777.675 93.4605 773.867 97.2682C770.059 101.143 768.189 105.752 768.189 111.096V306.494C768.189 311.905 770.059 316.514 773.867 320.322C777.675 324.13 782.284 326 787.695 326ZM953.346 199.008V130.603H992.426V179.435L953.346 199.008ZM914.267 326H953.346V238.088L970.047 229.738L1002.18 326H1041.26L1003.58 212.97L1031.51 199.008V111.03C1031.51 105.685 1029.57 101.076 1025.76 97.2014C1021.89 93.4605 1017.28 91.5232 1011.93 91.5232H914.267V326ZM1079.85 326H1143.38C1148.73 326 1153.33 324.13 1157.21 320.322C1157.48 320.055 1157.81 319.787 1158.08 319.453C1158.28 319.721 1158.55 319.988 1158.88 320.255C1162.69 324.13 1167.3 326 1172.71 326H1236.24C1241.58 326 1246.19 324.13 1250.06 320.322C1253.81 316.514 1255.74 311.905 1255.74 306.494V91.5232H1216.66V286.921H1192.21H1177.58V91.5232H1138.5V286.921H1099.42V91.5232H1060.35V306.427C1060.35 311.838 1062.22 316.447 1066.02 320.255C1069.83 324.13 1074.44 326 1079.85 326ZM1323.8 199.008V130.603H1362.88V179.435L1323.8 199.008ZM1284.72 326H1323.8V238.088L1362.88 218.515V326H1401.95V111.03C1401.95 105.685 1400.02 101.076 1396.21 97.2014C1392.34 93.4605 1387.73 91.5232 1382.38 91.5232H1304.22C1298.81 91.5232 1294.2 93.4605 1290.39 97.2682C1286.59 101.143 1284.72 105.752 1284.72 111.096V326ZM1469.87 199.008V130.603H1508.95V179.435L1469.87 199.008ZM1430.79 326H1469.87V238.088L1486.57 229.738L1518.71 326H1557.79L1520.11 212.97L1548.03 199.008V111.03C1548.03 105.685 1546.1 101.076 1542.29 97.2014C1538.41 93.4605 1533.8 91.5232 1528.46 91.5232H1430.79V326ZM1655.03 286.921H1615.95V130.603H1655.03V286.921ZM1576.87 326H1674.54C1679.88 326 1684.49 324.13 1688.37 320.322C1692.17 316.514 1694.11 311.905 1694.11 306.494V111.03C1694.11 105.685 1692.17 101.076 1688.37 97.2014C1684.49 93.4605 1679.88 91.5232 1674.54 91.5232H1576.87V326Z" fill="white"/>
<path d="M422.079 326H416.634V331.445H422.079V326ZM461.159 326V331.445H466.604V326H461.159ZM461.159 91.5232H466.604V86.078H461.159V91.5232ZM383 91.5232V86.078H377.555V91.5232H383ZM383 130.603H377.555V136.048H383V130.603ZM422.079 130.603H427.525V125.157H422.079V130.603ZM422.079 331.445H461.159V320.555H422.079V331.445ZM466.604 326V91.5232H455.714V326H466.604ZM461.159 86.078H383V96.9684H461.159V86.078ZM377.555 91.5232V130.603H388.445V91.5232H377.555ZM383 136.048H422.079V125.157H383V136.048ZM416.634 130.603V326H427.525V130.603H416.634ZM570.961 286.921V292.366H576.406V286.921H570.961ZM531.881 286.921H526.436V292.366H531.881V286.921ZM531.881 130.603V125.157H526.436V130.603H531.881ZM570.961 130.603H576.406V125.157H570.961V130.603ZM604.295 320.322L608.112 324.205L608.129 324.189L608.146 324.172L604.295 320.322ZM604.295 97.2014L608.179 93.3847L608.129 93.3337L608.078 93.2841L604.295 97.2014ZM498.48 97.2682L494.63 93.4178L494.613 93.4346L494.596 93.4515L498.48 97.2682ZM570.961 281.475H531.881V292.366H570.961V281.475ZM537.327 286.921V130.603H526.436V286.921H537.327ZM531.881 136.048H570.961V125.157H531.881V136.048ZM565.516 130.603V286.921H576.406V130.603H565.516ZM512.308 331.445H590.467V320.555H512.308V331.445ZM590.467 331.445C597.241 331.445 603.221 329.013 608.112 324.205L600.479 316.438C597.621 319.246 594.382 320.555 590.467 320.555V331.445ZM608.146 324.172C612.963 319.355 615.486 313.365 615.486 306.494H604.595C604.595 310.444 603.243 313.673 600.445 316.471L608.146 324.172ZM615.486 306.494V111.03H604.595V306.494H615.486ZM615.486 111.03C615.486 104.207 612.952 98.2412 608.179 93.3847L600.412 101.018C603.254 103.911 604.595 107.163 604.595 111.03H615.486ZM608.078 93.2841C603.232 88.6057 597.283 86.078 590.467 86.078V96.9684C594.34 96.9684 597.609 98.3152 600.513 101.119L608.078 93.2841ZM590.467 86.078H512.308V96.9684H590.467V86.078ZM512.308 86.078C505.437 86.078 499.447 88.6006 494.63 93.4178L502.331 101.119C505.129 98.3204 508.358 96.9684 512.308 96.9684V86.078ZM494.596 93.4515C489.789 98.3429 487.357 104.322 487.357 111.096H498.247C498.247 107.182 499.556 103.943 502.364 101.085L494.596 93.4515ZM487.357 111.096V306.494H498.247V111.096H487.357ZM487.357 306.494C487.357 313.316 489.778 319.321 494.63 324.172L502.331 316.471C499.567 313.708 498.247 310.493 498.247 306.494H487.357ZM494.63 324.172C499.481 329.024 505.485 331.445 512.308 331.445V320.555C508.309 320.555 505.094 319.235 502.331 316.471L494.63 324.172ZM641.617 326H636.171V331.445H641.617V326ZM680.696 326V331.445H686.141V326H680.696ZM680.696 238.088L678.259 233.219L675.251 234.724V238.088H680.696ZM739.282 208.762L741.719 213.631L744.727 212.125V208.762H739.282ZM739.282 169.682H744.727V160.867L736.844 164.813L739.282 169.682ZM680.696 199.008H675.251V207.824L683.133 203.878L680.696 199.008ZM680.696 130.603V125.157H675.251V130.603H680.696ZM739.282 130.603V136.048H744.727V130.603H739.282ZM739.282 91.5232H744.727V86.078H739.282V91.5232ZM641.617 91.5232V86.078H636.171V91.5232H641.617ZM641.617 331.445H680.696V320.555H641.617V331.445ZM686.141 326V238.088H675.251V326H686.141ZM683.133 242.957L741.719 213.631L736.844 203.892L678.259 233.219L683.133 242.957ZM744.727 208.762V169.682H733.837V208.762H744.727ZM736.844 164.813L678.259 194.139L683.133 203.878L741.719 174.551L736.844 164.813ZM686.141 199.008V130.603H675.251V199.008H686.141ZM680.696 136.048H739.282V125.157H680.696V136.048ZM744.727 130.603V91.5232H733.837V130.603H744.727ZM739.282 86.078H641.617V96.9684H739.282V86.078ZM636.171 91.5232V326H647.062V91.5232H636.171ZM846.348 286.921V292.366H851.793V286.921H846.348ZM807.268 286.921H801.823V292.366H807.268V286.921ZM807.268 130.603V125.157H801.823V130.603H807.268ZM846.348 130.603H851.793V125.157H846.348V130.603ZM879.682 320.322L883.499 324.205L883.516 324.189L883.532 324.172L879.682 320.322ZM879.682 97.2014L883.566 93.3847L883.516 93.3337L883.464 93.2841L879.682 97.2014ZM773.867 97.2682L770.016 93.4178L770 93.4346L769.983 93.4515L773.867 97.2682ZM846.348 281.475H807.268V292.366H846.348V281.475ZM812.713 286.921V130.603H801.823V286.921H812.713ZM807.268 136.048H846.348V125.157H807.268V136.048ZM840.902 130.603V286.921H851.793V130.603H840.902ZM787.695 331.445H865.854V320.555H787.695V331.445ZM865.854 331.445C872.628 331.445 878.607 329.013 883.499 324.205L875.865 316.438C873.008 319.246 869.768 320.555 865.854 320.555V331.445ZM883.532 324.172C888.35 319.355 890.872 313.365 890.872 306.494H879.982C879.982 310.444 878.63 313.673 875.832 316.471L883.532 324.172ZM890.872 306.494V111.03H879.982V306.494H890.872ZM890.872 111.03C890.872 104.207 888.339 98.2412 883.566 93.3847L875.798 101.018C878.641 103.911 879.982 107.163 879.982 111.03H890.872ZM883.464 93.2841C878.619 88.6057 872.669 86.078 865.854 86.078V96.9684C869.727 96.9684 872.996 98.3152 875.9 101.119L883.464 93.2841ZM865.854 86.078H787.695V96.9684H865.854V86.078ZM787.695 86.078C780.823 86.078 774.834 88.6006 770.016 93.4178L777.717 101.119C780.515 98.3204 783.745 96.9684 787.695 96.9684V86.078ZM769.983 93.4515C765.176 98.3429 762.743 104.322 762.743 111.096H773.634C773.634 107.182 774.942 103.943 777.751 101.085L769.983 93.4515ZM762.743 111.096V306.494H773.634V111.096H762.743ZM762.743 306.494C762.743 313.316 765.165 319.321 770.016 324.172L777.717 316.471C774.953 313.708 773.634 310.493 773.634 306.494H762.743ZM770.016 324.172C774.868 329.024 780.872 331.445 787.695 331.445V320.555C783.696 320.555 780.481 319.235 777.717 316.471L770.016 324.172ZM953.346 199.008H947.901V207.826L955.785 203.877L953.346 199.008ZM953.346 130.603V125.157H947.901V130.603H953.346ZM992.426 130.603H997.871V125.157H992.426V130.603ZM992.426 179.435L994.864 184.304L997.871 182.798V179.435H992.426ZM914.267 326H908.822V331.445H914.267V326ZM953.346 326V331.445H958.792V326H953.346ZM953.346 238.088L950.911 233.218L947.901 234.723V238.088H953.346ZM970.047 229.738L975.212 228.014L973.225 222.061L967.612 224.867L970.047 229.738ZM1002.18 326L997.014 327.724L998.256 331.445H1002.18V326ZM1041.26 326V331.445H1048.81L1046.42 324.278L1041.26 326ZM1003.58 212.97L1001.15 208.1L996.923 210.212L998.416 214.692L1003.58 212.97ZM1031.51 199.008L1033.94 203.879L1036.95 202.374V199.008H1031.51ZM1025.76 97.2014L1029.64 93.3847L1029.59 93.3337L1029.54 93.2841L1025.76 97.2014ZM914.267 91.5232V86.078H908.822V91.5232H914.267ZM958.792 199.008V130.603H947.901V199.008H958.792ZM953.346 136.048H992.426V125.157H953.346V136.048ZM986.981 130.603V179.435H997.871V130.603H986.981ZM989.987 174.567L950.908 194.14L955.785 203.877L994.864 184.304L989.987 174.567ZM914.267 331.445H953.346V320.555H914.267V331.445ZM958.792 326V238.088H947.901V326H958.792ZM955.782 242.958L972.482 234.608L967.612 224.867L950.911 233.218L955.782 242.958ZM964.882 231.462L997.014 327.724L1007.34 324.276L975.212 228.014L964.882 231.462ZM1002.18 331.445H1041.26V320.555H1002.18V331.445ZM1046.42 324.278L1008.75 211.248L998.416 214.692L1036.09 327.722L1046.42 324.278ZM1006.02 217.841L1033.94 203.879L1029.07 194.138L1001.15 208.1L1006.02 217.841ZM1036.95 199.008V111.03H1026.06V199.008H1036.95ZM1036.95 111.03C1036.95 104.207 1034.42 98.2412 1029.64 93.3847L1021.88 101.018C1024.72 103.911 1026.06 107.163 1026.06 111.03H1036.95ZM1029.54 93.2841C1024.7 88.6057 1018.75 86.078 1011.93 86.078V96.9684C1015.81 96.9684 1019.07 98.3152 1021.98 101.119L1029.54 93.2841ZM1011.93 86.078H914.267V96.9684H1011.93V86.078ZM908.822 91.5232V326H919.712V91.5232H908.822ZM1157.21 320.322L1161.03 324.205L1161.04 324.189L1161.06 324.172L1157.21 320.322ZM1158.08 319.453L1162.43 316.186L1158.22 310.563L1153.83 316.052L1158.08 319.453ZM1158.88 320.255L1162.76 316.438L1162.53 316.206L1162.28 316.003L1158.88 320.255ZM1250.06 320.322L1253.88 324.205L1253.92 324.172L1253.95 324.138L1250.06 320.322ZM1255.74 91.5232H1261.19V86.078H1255.74V91.5232ZM1216.66 91.5232V86.078H1211.22V91.5232H1216.66ZM1216.66 286.921V292.366H1222.11V286.921H1216.66ZM1177.58 286.921H1172.14V292.366H1177.58V286.921ZM1177.58 91.5232H1183.03V86.078H1177.58V91.5232ZM1138.5 91.5232V86.078H1133.06V91.5232H1138.5ZM1138.5 286.921V292.366H1143.95V286.921H1138.5ZM1099.42 286.921H1093.98V292.366H1099.42V286.921ZM1099.42 91.5232H1104.87V86.078H1099.42V91.5232ZM1060.35 91.5232V86.078H1054.9V91.5232H1060.35ZM1066.02 320.255L1069.91 316.438L1069.89 316.421L1069.87 316.405L1066.02 320.255ZM1079.85 331.445H1143.38V320.555H1079.85V331.445ZM1143.38 331.445C1150.15 331.445 1156.13 329.013 1161.03 324.205L1153.39 316.438C1150.53 319.246 1147.3 320.555 1143.38 320.555V331.445ZM1161.06 324.172C1161.05 324.179 1161.06 324.168 1161.13 324.111C1161.16 324.075 1161.29 323.963 1161.38 323.871C1161.59 323.671 1161.96 323.317 1162.33 322.855L1153.83 316.052C1153.93 315.924 1153.99 315.871 1153.9 315.954C1153.85 316.004 1153.82 316.03 1153.71 316.13C1153.63 316.208 1153.5 316.331 1153.36 316.471L1161.06 324.172ZM1153.72 322.72C1154.26 323.441 1154.88 324.029 1155.48 324.507L1162.28 316.003C1162.25 315.979 1162.25 315.978 1162.28 316.004C1162.3 316.029 1162.36 316.089 1162.43 316.186L1153.72 322.72ZM1155 324.072C1159.86 329.018 1165.88 331.445 1172.71 331.445V320.555C1168.71 320.555 1165.52 319.241 1162.76 316.438L1155 324.072ZM1172.71 331.445H1236.24V320.555H1172.71V331.445ZM1236.24 331.445C1243.01 331.445 1248.99 329.013 1253.88 324.205L1246.25 316.438C1243.39 319.246 1240.15 320.555 1236.24 320.555V331.445ZM1253.95 324.138C1258.67 319.331 1261.19 313.359 1261.19 306.494H1250.3C1250.3 310.45 1248.94 313.697 1246.18 316.506L1253.95 324.138ZM1261.19 306.494V91.5232H1250.3V306.494H1261.19ZM1255.74 86.078H1216.66V96.9684H1255.74V86.078ZM1211.22 91.5232V286.921H1222.11V91.5232H1211.22ZM1216.66 281.475H1192.21V292.366H1216.66V281.475ZM1192.21 281.475H1177.58V292.366H1192.21V281.475ZM1183.03 286.921V91.5232H1172.14V286.921H1183.03ZM1177.58 86.078H1138.5V96.9684H1177.58V86.078ZM1133.06 91.5232V286.921H1143.95V91.5232H1133.06ZM1138.5 281.475H1099.42V292.366H1138.5V281.475ZM1104.87 286.921V91.5232H1093.98V286.921H1104.87ZM1099.42 86.078H1060.35V96.9684H1099.42V86.078ZM1054.9 91.5232V306.427H1065.79V91.5232H1054.9ZM1054.9 306.427C1054.9 313.25 1057.32 319.254 1062.17 324.105L1069.87 316.405C1067.11 313.641 1065.79 310.426 1065.79 306.427H1054.9ZM1062.14 324.072C1067 329.018 1073.02 331.445 1079.85 331.445V320.555C1075.86 320.555 1072.66 319.241 1069.91 316.438L1062.14 324.072ZM1323.8 199.008H1318.35V207.826L1326.23 203.877L1323.8 199.008ZM1323.8 130.603V125.157H1318.35V130.603H1323.8ZM1362.88 130.603H1368.32V125.157H1362.88V130.603ZM1362.88 179.435L1365.31 184.304L1368.32 182.798V179.435H1362.88ZM1284.72 326H1279.27V331.445H1284.72V326ZM1323.8 326V331.445H1329.24V326H1323.8ZM1323.8 238.088L1321.36 233.219L1318.35 234.725V238.088H1323.8ZM1362.88 218.515H1368.32V209.697L1360.44 213.646L1362.88 218.515ZM1362.88 326H1357.43V331.445H1362.88V326ZM1401.95 326V331.445H1407.4V326H1401.95ZM1396.21 97.2014L1400.09 93.3847L1400.04 93.3337L1399.99 93.2841L1396.21 97.2014ZM1290.39 97.2682L1286.54 93.4178L1286.53 93.4346L1286.51 93.4515L1290.39 97.2682ZM1329.24 199.008V130.603H1318.35V199.008H1329.24ZM1323.8 136.048H1362.88V125.157H1323.8V136.048ZM1357.43 130.603V179.435H1368.32V130.603H1357.43ZM1360.44 174.567L1321.36 194.14L1326.23 203.877L1365.31 184.304L1360.44 174.567ZM1284.72 331.445H1323.8V320.555H1284.72V331.445ZM1329.24 326V238.088H1318.35V326H1329.24ZM1326.23 242.957L1365.31 223.383L1360.44 213.646L1321.36 233.219L1326.23 242.957ZM1357.43 218.515V326H1368.32V218.515H1357.43ZM1362.88 331.445H1401.95V320.555H1362.88V331.445ZM1407.4 326V111.03H1396.51V326H1407.4ZM1407.4 111.03C1407.4 104.207 1404.87 98.2412 1400.09 93.3847L1392.33 101.018C1395.17 103.911 1396.51 107.163 1396.51 111.03H1407.4ZM1399.99 93.2841C1395.15 88.6057 1389.2 86.078 1382.38 86.078V96.9684C1386.25 96.9684 1389.52 98.3152 1392.43 101.119L1399.99 93.2841ZM1382.38 86.078H1304.22V96.9684H1382.38V86.078ZM1304.22 86.078C1297.35 86.078 1291.36 88.6006 1286.54 93.4178L1294.24 101.119C1297.04 98.3204 1300.27 96.9684 1304.22 96.9684V86.078ZM1286.51 93.4515C1281.7 98.3429 1279.27 104.322 1279.27 111.096H1290.16C1290.16 107.182 1291.47 103.943 1294.28 101.085L1286.51 93.4515ZM1279.27 111.096V326H1290.16V111.096H1279.27ZM1469.87 199.008H1464.43V207.826L1472.31 203.877L1469.87 199.008ZM1469.87 130.603V125.157H1464.43V130.603H1469.87ZM1508.95 130.603H1514.4V125.157H1508.95V130.603ZM1508.95 179.435L1511.39 184.304L1514.4 182.798V179.435H1508.95ZM1430.79 326H1425.35V331.445H1430.79V326ZM1469.87 326V331.445H1475.32V326H1469.87ZM1469.87 238.088L1467.44 233.218L1464.43 234.723V238.088H1469.87ZM1486.57 229.738L1491.74 228.014L1489.75 222.061L1484.14 224.867L1486.57 229.738ZM1518.71 326L1513.54 327.724L1514.78 331.445H1518.71V326ZM1557.79 326V331.445H1565.34L1562.95 324.278L1557.79 326ZM1520.11 212.97L1517.67 208.1L1513.45 210.212L1514.94 214.692L1520.11 212.97ZM1548.03 199.008L1550.47 203.879L1553.48 202.374V199.008H1548.03ZM1542.29 97.2014L1546.17 93.3847L1546.12 93.3337L1546.07 93.2841L1542.29 97.2014ZM1430.79 91.5232V86.078H1425.35V91.5232H1430.79ZM1475.32 199.008V130.603H1464.43V199.008H1475.32ZM1469.87 136.048H1508.95V125.157H1469.87V136.048ZM1503.51 130.603V179.435H1514.4V130.603H1503.51ZM1506.52 174.567L1467.44 194.14L1472.31 203.877L1511.39 184.304L1506.52 174.567ZM1430.79 331.445H1469.87V320.555H1430.79V331.445ZM1475.32 326V238.088H1464.43V326H1475.32ZM1472.31 242.958L1489.01 234.608L1484.14 224.867L1467.44 233.218L1472.31 242.958ZM1481.41 231.462L1513.54 327.724L1523.87 324.276L1491.74 228.014L1481.41 231.462ZM1518.71 331.445H1557.79V320.555H1518.71V331.445ZM1562.95 324.278L1525.28 211.248L1514.94 214.692L1552.62 327.722L1562.95 324.278ZM1522.54 217.841L1550.47 203.879L1545.6 194.138L1517.67 208.1L1522.54 217.841ZM1553.48 199.008V111.03H1542.59V199.008H1553.48ZM1553.48 111.03C1553.48 104.207 1550.94 98.2412 1546.17 93.3847L1538.4 101.018C1541.25 103.911 1542.59 107.163 1542.59 111.03H1553.48ZM1546.07 93.2841C1541.22 88.6057 1535.28 86.078 1528.46 86.078V96.9684C1532.33 96.9684 1535.6 98.3152 1538.51 101.119L1546.07 93.2841ZM1528.46 86.078H1430.79V96.9684H1528.46V86.078ZM1425.35 91.5232V326H1436.24V91.5232H1425.35ZM1655.03 286.921V292.366H1660.48V286.921H1655.03ZM1615.95 286.921H1610.51V292.366H1615.95V286.921ZM1615.95 130.603V125.157H1610.51V130.603H1615.95ZM1655.03 130.603H1660.48V125.157H1655.03V130.603ZM1576.87 326H1571.43V331.445H1576.87V326ZM1688.37 320.322L1692.18 324.205L1692.2 324.189L1692.22 324.172L1688.37 320.322ZM1688.37 97.2014L1692.25 93.3847L1692.2 93.3337L1692.15 93.2841L1688.37 97.2014ZM1576.87 91.5232V86.078H1571.43V91.5232H1576.87ZM1655.03 281.475H1615.95V292.366H1655.03V281.475ZM1621.4 286.921V130.603H1610.51V286.921H1621.4ZM1615.95 136.048H1655.03V125.157H1615.95V136.048ZM1649.59 130.603V286.921H1660.48V130.603H1649.59ZM1576.87 331.445H1674.54V320.555H1576.87V331.445ZM1674.54 331.445C1681.31 331.445 1687.29 329.013 1692.18 324.205L1684.55 316.438C1681.69 319.246 1678.45 320.555 1674.54 320.555V331.445ZM1692.22 324.172C1697.03 319.355 1699.56 313.365 1699.56 306.494H1688.67C1688.67 310.444 1687.31 313.673 1684.52 316.471L1692.22 324.172ZM1699.56 306.494V111.03H1688.67V306.494H1699.56ZM1699.56 111.03C1699.56 104.207 1697.02 98.2412 1692.25 93.3847L1684.48 101.018C1687.33 103.911 1688.67 107.163 1688.67 111.03H1699.56ZM1692.15 93.2841C1687.3 88.6057 1681.35 86.078 1674.54 86.078V96.9684C1678.41 96.9684 1681.68 98.3152 1684.58 101.119L1692.15 93.2841ZM1674.54 86.078H1576.87V96.9684H1674.54V86.078ZM1571.43 91.5232V326H1582.32V91.5232H1571.43Z" fill="white"/>
</g>
<defs>
<filter id="filter0_d_1_8" x="383" y="91.5232" width="1322" height="245.367" filterUnits="userSpaceOnUse" color-interpolation-filters="sRGB">
<feFlood flood-opacity="0" result="BackgroundImageFix"/>
<feColorMatrix in="SourceAlpha" type="matrix" values="0 0 0 0 0 0 0 0 0 0 0 0 0 0 0 0 0 0 127 0" result="hardAlpha"/>
<feOffset dx="10.8905" dy="10.8905"/>
<feComposite in2="hardAlpha" operator="out"/>
<feColorMatrix type="matrix" values="0 0 0 0 0.8 0 0 0 0 0.8 0 0 0 0 0.8 0 0 0 1 0"/>
<feBlend mode="normal" in2="BackgroundImageFix" result="effect1_dropShadow_1_8"/>
<feBlend mode="normal" in="SourceGraphic" in2="effect1_dropShadow_1_8" result="shape"/>
</filter>
</defs>
</svg>
