<svg width="674" height="155" viewBox="0 0 674 155" fill="none" xmlns="http://www.w3.org/2000/svg">
<path d="M61.8683 116.274C60.7321 116.961 58.8849 116.963 57.7444 116.282L18.9276 93.0851L10.9835 97.2682L57.7444 125.212C58.8849 125.893 60.7321 125.889 61.8683 125.204L85.0273 111.258L108.187 97.3126L100.253 93.1599L61.8683 116.274Z" fill="black" fill-opacity="0.2"/>
<path d="M18.85 95.7989L6.61837 102.238C5.5428 102.803 4.89075 103.496 4.87398 104.09C4.85721 104.686 5.46941 105.411 6.50934 106.034L59.0211 137.415C59.1196 137.473 59.3923 137.573 59.799 137.573C60.2079 137.573 60.4846 137.471 60.585 137.412L112.648 106.06C113.688 105.435 114.296 104.704 114.277 104.108C114.26 103.51 113.604 102.817 112.529 102.254L100.339 95.8736L63.1512 118.266C62.2205 118.828 61.0298 119.138 59.799 119.138C58.5787 119.138 57.3961 118.832 56.4697 118.279L18.85 95.7989ZM59.799 142.266C58.5787 142.266 57.3942 141.96 56.4673 141.407L3.95569 110.026C1.38943 108.492 -0.0446587 106.281 0.0203362 103.96C0.0874277 101.64 1.64521 99.5096 4.29532 98.1153L19.0051 90.3734L59.0211 114.286C59.1176 114.345 59.3923 114.444 59.799 114.444C60.2099 114.444 60.4846 114.343 60.585 114.284L100.169 90.4465L114.841 98.1255C117.496 99.5177 119.057 101.644 119.133 103.966C119.205 106.285 117.779 108.502 115.216 110.044L63.1512 141.395C62.2205 141.956 61.0298 142.266 59.799 142.266Z" fill="#152A35"/>
<path d="M12.2834 73.4548L57.7444 100.622C58.8849 101.305 60.7321 101.299 61.8683 100.616L106.889 73.5054L59.4091 48.6483L12.2834 73.4548Z" fill="black" fill-opacity="0.2"/>
<path d="M59.411 51.3173L6.61837 79.1091C5.5428 79.6725 4.89075 80.3656 4.87398 80.9617C4.85721 81.5555 5.46941 82.2828 6.50934 82.903L59.0211 114.286C59.1176 114.345 59.3923 114.444 59.799 114.444C60.2099 114.444 60.4846 114.343 60.585 114.284L112.648 82.9314C113.688 82.3053 114.296 81.5757 114.277 80.9777C114.26 80.3819 113.606 79.6889 112.529 79.1254L59.411 51.3173ZM59.799 119.138C58.5787 119.138 57.3961 118.832 56.4697 118.279L3.95569 86.8958C1.38943 85.3634 -0.0446587 83.1525 0.0203362 80.8317C0.0874277 78.5114 1.64521 76.3814 4.29532 74.9848L59.4048 45.977L114.841 74.9992C117.496 76.3872 119.057 78.5153 119.133 80.836C119.205 83.1563 117.779 85.3716 115.216 86.9137L63.1512 118.266C62.2205 118.828 61.0298 119.138 59.799 119.138Z" fill="#152A35"/>
<path d="M57.7444 94.3802C58.8849 95.0611 60.7321 95.0592 61.8683 94.372L113.933 63.0213C117.726 60.7352 117.615 57.2172 113.686 55.1599L61.5434 27.8627C60.3628 27.2466 58.453 27.2486 57.2767 27.8688L5.45684 55.1459C1.53198 57.2109 1.43135 60.7274 5.23251 62.9991L57.7444 94.3802Z" fill="#152A35"/>
<g filter="url(#filter0_d_35_2)">
<path d="M164.24 126.799H179.447V35.5593H149.033V50.7659H164.24V126.799ZM222.173 111.592H206.966V50.7659H222.173V111.592ZM199.35 126.799H229.763C231.843 126.799 233.636 126.071 235.144 124.59C236.626 123.108 237.38 121.314 237.38 119.209V43.1496C237.38 41.07 236.626 39.2764 235.144 37.7688C233.636 36.3131 231.843 35.5593 229.763 35.5593H199.35C197.244 35.5593 195.451 36.3131 193.969 37.7948C192.487 39.3024 191.76 41.096 191.76 43.1756V119.209C191.76 121.314 192.487 123.108 193.969 124.59C195.451 126.071 197.244 126.799 199.35 126.799Z" fill="white"/>
<path d="M249.667 126.799H264.873V92.5907L287.67 81.1792V65.9725L264.873 77.384V50.7659H287.67V35.5593H249.667V126.799ZM329.332 111.592H314.125V50.7659H329.332V111.592ZM306.509 126.799H336.922C339.002 126.799 340.795 126.071 342.303 124.59C343.785 123.108 344.538 121.314 344.538 119.209V43.1496C344.538 41.07 343.785 39.2764 342.303 37.7688C340.795 36.3131 339.002 35.5593 336.922 35.5593H306.509C304.403 35.5593 302.61 36.3131 301.128 37.7948C299.646 39.3024 298.918 41.096 298.918 43.1756V119.209C298.918 121.314 299.646 123.108 301.128 124.59C302.61 126.071 304.403 126.799 306.509 126.799ZM370.967 77.384V50.7659H386.174V69.7677L370.967 77.384ZM355.761 126.799H370.967V92.5907L377.466 89.3414L389.969 126.799H405.176L390.515 82.8168L401.381 77.384V43.1496C401.381 41.07 400.627 39.2764 399.145 37.7688C397.637 36.3131 395.844 35.5593 393.764 35.5593H355.761V126.799ZM420.193 126.799H444.914C446.993 126.799 448.787 126.071 450.294 124.59C450.398 124.486 450.528 124.382 450.632 124.252C450.71 124.356 450.814 124.46 450.944 124.564C452.426 126.071 454.22 126.799 456.325 126.799H481.046C483.125 126.799 484.919 126.071 486.427 124.59C487.882 123.108 488.636 121.314 488.636 119.209V35.5593H473.429V111.592H463.915H458.223V35.5593H443.016V111.592H427.809V35.5593H412.603V119.183C412.603 121.288 413.331 123.082 414.812 124.564C416.294 126.071 418.088 126.799 420.193 126.799ZM515.117 77.384V50.7659H530.324V69.7677L515.117 77.384ZM499.91 126.799H515.117V92.5907L530.324 84.9744V126.799H545.53V43.1496C545.53 41.07 544.776 39.2764 543.295 37.7688C541.787 36.3131 539.993 35.5593 537.914 35.5593H507.501C505.395 35.5593 503.601 36.3131 502.12 37.7948C500.638 39.3024 499.91 41.096 499.91 43.1756V126.799ZM571.959 77.384V50.7659H587.166V69.7677L571.959 77.384ZM556.752 126.799H571.959V92.5907L578.458 89.3414L590.961 126.799H606.168L591.507 82.8168L602.372 77.384V43.1496C602.372 41.07 601.619 39.2764 600.137 37.7688C598.629 36.3131 596.836 35.5593 594.756 35.5593H556.752V126.799ZM644.008 111.592H628.801V50.7659H644.008V111.592ZM613.595 126.799H651.598C653.678 126.799 655.471 126.071 656.979 124.59C658.461 123.108 659.215 121.314 659.215 119.209V43.1496C659.215 41.07 658.461 39.2764 656.979 37.7688C655.471 36.3131 653.678 35.5593 651.598 35.5593H613.595V126.799Z" fill="#152A35"/>
<path d="M164.24 126.799H162.121V128.918H164.24V126.799ZM179.447 126.799V128.918H181.566V126.799H179.447ZM179.447 35.5593H181.566V33.4404H179.447V35.5593ZM149.033 35.5593V33.4404H146.915V35.5593H149.033ZM149.033 50.7659H146.915V52.8848H149.033V50.7659ZM164.24 50.7659H166.359V48.647H164.24V50.7659ZM164.24 128.918H179.447V124.68H164.24V128.918ZM181.566 126.799V35.5593H177.328V126.799H181.566ZM179.447 33.4404H149.033V37.6781H179.447V33.4404ZM146.915 35.5593V50.7659H151.152V35.5593H146.915ZM149.033 52.8848H164.24V48.647H149.033V52.8848ZM162.121 50.7659V126.799H166.359V50.7659H162.121ZM222.173 111.592V113.711H224.292V111.592H222.173ZM206.966 111.592H204.847V113.711H206.966V111.592ZM206.966 50.7659V48.647H204.847V50.7659H206.966ZM222.173 50.7659H224.292V48.647H222.173V50.7659ZM235.144 124.59L236.629 126.101L236.636 126.094L236.642 126.088L235.144 124.59ZM235.144 37.7688L236.655 36.2836L236.636 36.2638L236.616 36.2445L235.144 37.7688ZM193.969 37.7948L192.471 36.2965L192.464 36.303L192.458 36.3096L193.969 37.7948ZM222.173 109.474H206.966V113.711H222.173V109.474ZM209.085 111.592V50.7659H204.847V111.592H209.085ZM206.966 52.8848H222.173V48.647H206.966V52.8848ZM220.054 50.7659V111.592H224.292V50.7659H220.054ZM199.35 128.918H229.763V124.68H199.35V128.918ZM229.763 128.918C232.399 128.918 234.726 127.971 236.629 126.101L233.659 123.078C232.547 124.171 231.286 124.68 229.763 124.68V128.918ZM236.642 126.088C238.517 124.213 239.498 121.883 239.498 119.209H235.261C235.261 120.746 234.735 122.003 233.646 123.091L236.642 126.088ZM239.498 119.209V43.1496H235.261V119.209H239.498ZM239.498 43.1496C239.498 40.495 238.513 38.1734 236.655 36.2836L233.633 39.2539C234.739 40.3795 235.261 41.6451 235.261 43.1496H239.498ZM236.616 36.2445C234.73 34.424 232.415 33.4404 229.763 33.4404V37.6781C231.27 37.6781 232.542 38.2022 233.672 39.2931L236.616 36.2445ZM229.763 33.4404H199.35V37.6781H229.763V33.4404ZM199.35 33.4404C196.676 33.4404 194.345 34.422 192.471 36.2965L195.467 39.293C196.556 38.2042 197.813 37.6781 199.35 37.6781V33.4404ZM192.458 36.3096C190.587 38.213 189.641 40.5397 189.641 43.1756H193.878C193.878 41.6524 194.388 40.3919 195.48 39.2799L192.458 36.3096ZM189.641 43.1756V119.209H193.878V43.1756H189.641ZM189.641 119.209C189.641 121.864 190.583 124.2 192.471 126.088L195.467 123.091C194.392 122.016 193.878 120.765 193.878 119.209H189.641ZM192.471 126.088C194.359 127.976 196.695 128.918 199.35 128.918V124.68C197.794 124.68 196.543 124.167 195.467 123.091L192.471 126.088ZM249.667 126.799H247.548V128.918H249.667V126.799ZM264.873 126.799V128.918H266.992V126.799H264.873ZM264.873 92.5907L263.925 90.6959L262.754 91.2818V92.5907H264.873ZM287.67 81.1792L288.619 83.0739L289.789 82.4881V81.1792H287.67ZM287.67 65.9725H289.789V62.5424L286.722 64.0778L287.67 65.9725ZM264.873 77.384H262.754V80.8142L265.822 79.2788L264.873 77.384ZM264.873 50.7659V48.647H262.754V50.7659H264.873ZM287.67 50.7659V52.8848H289.789V50.7659H287.67ZM287.67 35.5593H289.789V33.4404H287.67V35.5593ZM249.667 35.5593V33.4404H247.548V35.5593H249.667ZM249.667 128.918H264.873V124.68H249.667V128.918ZM266.992 126.799V92.5907H262.754V126.799H266.992ZM265.822 94.4854L288.619 83.0739L286.722 79.2845L263.925 90.6959L265.822 94.4854ZM289.789 81.1792V65.9725H285.551V81.1792H289.789ZM286.722 64.0778L263.925 75.4893L265.822 79.2788L288.619 67.8673L286.722 64.0778ZM266.992 77.384V50.7659H262.754V77.384H266.992ZM264.873 52.8848H287.67V48.647H264.873V52.8848ZM289.789 50.7659V35.5593H285.551V50.7659H289.789ZM287.67 33.4404H249.667V37.6781H287.67V33.4404ZM247.548 35.5593V126.799H251.785V35.5593H247.548ZM329.332 111.592V113.711H331.451V111.592H329.332ZM314.125 111.592H312.006V113.711H314.125V111.592ZM314.125 50.7659V48.647H312.006V50.7659H314.125ZM329.332 50.7659H331.451V48.647H329.332V50.7659ZM342.303 124.59L343.788 126.101L343.795 126.094L343.801 126.088L342.303 124.59ZM342.303 37.7688L343.814 36.2836L343.795 36.2638L343.775 36.2445L342.303 37.7688ZM301.128 37.7948L299.63 36.2965L299.623 36.303L299.617 36.3096L301.128 37.7948ZM329.332 109.474H314.125V113.711H329.332V109.474ZM316.244 111.592V50.7659H312.006V111.592H316.244ZM314.125 52.8848H329.332V48.647H314.125V52.8848ZM327.213 50.7659V111.592H331.451V50.7659H327.213ZM306.509 128.918H336.922V124.68H306.509V128.918ZM336.922 128.918C339.558 128.918 341.885 127.971 343.788 126.101L340.818 123.078C339.706 124.171 338.445 124.68 336.922 124.68V128.918ZM343.801 126.088C345.676 124.213 346.657 121.883 346.657 119.209H342.419C342.419 120.746 341.893 122.003 340.805 123.091L343.801 126.088ZM346.657 119.209V43.1496H342.419V119.209H346.657ZM346.657 43.1496C346.657 40.495 345.671 38.1734 343.814 36.2836L340.792 39.2539C341.898 40.3795 342.419 41.6451 342.419 43.1496H346.657ZM343.775 36.2445C341.889 34.424 339.574 33.4404 336.922 33.4404V37.6781C338.429 37.6781 339.701 38.2022 340.831 39.2931L343.775 36.2445ZM336.922 33.4404H306.509V37.6781H336.922V33.4404ZM306.509 33.4404C303.835 33.4404 301.504 34.422 299.63 36.2965L302.626 39.293C303.715 38.2042 304.972 37.6781 306.509 37.6781V33.4404ZM299.617 36.3096C297.746 38.213 296.8 40.5397 296.8 43.1756H301.037C301.037 41.6524 301.546 40.3919 302.639 39.2799L299.617 36.3096ZM296.8 43.1756V119.209H301.037V43.1756H296.8ZM296.8 119.209C296.8 121.864 297.742 124.2 299.63 126.088L302.626 123.091C301.551 122.016 301.037 120.765 301.037 119.209H296.8ZM299.63 126.088C301.518 127.976 303.854 128.918 306.509 128.918V124.68C304.953 124.68 303.702 124.167 302.626 123.091L299.63 126.088ZM370.967 77.384H368.848V80.815L371.916 79.2785L370.967 77.384ZM370.967 50.7659V48.647H368.848V50.7659H370.967ZM386.174 50.7659H388.293V48.647H386.174V50.7659ZM386.174 69.7677L387.123 71.6622L388.293 71.0762V69.7677H386.174ZM355.761 126.799H353.642V128.918H355.761V126.799ZM370.967 126.799V128.918H373.086V126.799H370.967ZM370.967 92.5907L370.02 90.6955L368.848 91.2812V92.5907H370.967ZM377.466 89.3414L379.476 88.6705L378.702 86.3541L376.518 87.4462L377.466 89.3414ZM389.969 126.799L387.959 127.47L388.443 128.918H389.969V126.799ZM405.176 126.799V128.918H408.115L407.186 126.129L405.176 126.799ZM390.515 82.8168L389.567 80.9217L387.924 81.7435L388.505 83.4869L390.515 82.8168ZM401.381 77.384L402.328 79.2792L403.499 78.6936V77.384H401.381ZM399.145 37.7688L400.656 36.2836L400.637 36.2638L400.617 36.2445L399.145 37.7688ZM355.761 35.5593V33.4404H353.642V35.5593H355.761ZM373.086 77.384V50.7659H368.848V77.384H373.086ZM370.967 52.8848H386.174V48.647H370.967V52.8848ZM384.055 50.7659V69.7677H388.293V50.7659H384.055ZM385.225 67.8732L370.018 75.4895L371.916 79.2785L387.123 71.6622L385.225 67.8732ZM355.761 128.918H370.967V124.68H355.761V128.918ZM373.086 126.799V92.5907H368.848V126.799H373.086ZM371.915 94.4858L378.413 91.2366L376.518 87.4462L370.02 90.6955L371.915 94.4858ZM375.456 90.0123L387.959 127.47L391.979 126.128L379.476 88.6705L375.456 90.0123ZM389.969 128.918H405.176V124.68H389.969V128.918ZM407.186 126.129L392.525 82.1468L388.505 83.4869L403.166 127.469L407.186 126.129ZM391.463 84.712L402.328 79.2792L400.433 75.4889L389.567 80.9217L391.463 84.712ZM403.499 77.384V43.1496H399.262V77.384H403.499ZM403.499 43.1496C403.499 40.495 402.513 38.1734 400.656 36.2836L397.634 39.2539C398.74 40.3795 399.262 41.6451 399.262 43.1496H403.499ZM400.617 36.2445C398.731 34.424 396.416 33.4404 393.764 33.4404V37.6781C395.271 37.6781 396.543 38.2022 397.673 39.2931L400.617 36.2445ZM393.764 33.4404H355.761V37.6781H393.764V33.4404ZM353.642 35.5593V126.799H357.879V35.5593H353.642ZM450.294 124.59L451.78 126.101L451.786 126.094L451.793 126.088L450.294 124.59ZM450.632 124.252L452.327 122.98L450.686 120.792L448.978 122.928L450.632 124.252ZM450.944 124.564L452.456 123.078L452.367 122.988L452.268 122.909L450.944 124.564ZM486.427 124.59L487.912 126.101L487.925 126.088L487.938 126.075L486.427 124.59ZM488.636 35.5593H490.755V33.4404H488.636V35.5593ZM473.429 35.5593V33.4404H471.311V35.5593H473.429ZM473.429 111.592V113.711H475.548V111.592H473.429ZM458.223 111.592H456.104V113.711H458.223V111.592ZM458.223 35.5593H460.342V33.4404H458.223V35.5593ZM443.016 35.5593V33.4404H440.897V35.5593H443.016ZM443.016 111.592V113.711H445.135V111.592H443.016ZM427.809 111.592H425.691V113.711H427.809V111.592ZM427.809 35.5593H429.928V33.4404H427.809V35.5593ZM412.603 35.5593V33.4404H410.484V35.5593H412.603ZM414.812 124.564L416.324 123.078L416.317 123.072L416.311 123.065L414.812 124.564ZM420.193 128.918H444.914V124.68H420.193V128.918ZM444.914 128.918C447.55 128.918 449.876 127.971 451.78 126.101L448.809 123.078C447.697 124.171 446.437 124.68 444.914 124.68V128.918ZM451.793 126.088C451.79 126.091 451.794 126.086 451.818 126.064C451.833 126.05 451.881 126.006 451.918 125.971C452.001 125.893 452.143 125.755 452.287 125.575L448.978 122.928C449.018 122.878 449.043 122.858 449.009 122.89C448.988 122.91 448.977 122.92 448.935 122.959C448.902 122.989 448.851 123.037 448.796 123.091L451.793 126.088ZM448.937 125.523C449.148 125.803 449.388 126.032 449.621 126.218L452.268 122.909C452.256 122.9 452.257 122.899 452.267 122.909C452.277 122.919 452.299 122.943 452.327 122.98L448.937 125.523ZM449.433 126.049C451.325 127.973 453.668 128.918 456.325 128.918V124.68C454.771 124.68 453.527 124.169 452.456 123.078L449.433 126.049ZM456.325 128.918H481.046V124.68H456.325V128.918ZM481.046 128.918C483.682 128.918 486.008 127.971 487.912 126.101L484.941 123.078C483.829 124.171 482.569 124.68 481.046 124.68V128.918ZM487.938 126.075C489.776 124.204 490.755 121.88 490.755 119.209H486.517C486.517 120.748 485.989 122.012 484.915 123.105L487.938 126.075ZM490.755 119.209V35.5593H486.517V119.209H490.755ZM488.636 33.4404H473.429V37.6781H488.636V33.4404ZM471.311 35.5593V111.592H475.548V35.5593H471.311ZM473.429 109.474H463.915V113.711H473.429V109.474ZM463.915 109.474H458.223V113.711H463.915V109.474ZM460.342 111.592V35.5593H456.104V111.592H460.342ZM458.223 33.4404H443.016V37.6781H458.223V33.4404ZM440.897 35.5593V111.592H445.135V35.5593H440.897ZM443.016 109.474H427.809V113.711H443.016V109.474ZM429.928 111.592V35.5593H425.691V111.592H429.928ZM427.809 33.4404H412.603V37.6781H427.809V33.4404ZM410.484 35.5593V119.183H414.722V35.5593H410.484ZM410.484 119.183C410.484 121.838 411.426 124.174 413.314 126.062L416.311 123.065C415.235 121.99 414.722 120.739 414.722 119.183H410.484ZM413.301 126.049C415.193 127.973 417.536 128.918 420.193 128.918V124.68C418.639 124.68 417.395 124.169 416.324 123.078L413.301 126.049ZM515.117 77.384H512.998V80.815L516.066 79.2785L515.117 77.384ZM515.117 50.7659V48.647H512.998V50.7659H515.117ZM530.324 50.7659H532.442V48.647H530.324V50.7659ZM530.324 69.7677L531.272 71.6622L532.442 71.0762V69.7677H530.324ZM499.91 126.799H497.791V128.918H499.91V126.799ZM515.117 126.799V128.918H517.236V126.799H515.117ZM515.117 92.5907L514.168 90.6962L512.998 91.2822V92.5907H515.117ZM530.324 84.9744H532.442V81.5434L529.375 83.0798L530.324 84.9744ZM530.324 126.799H528.205V128.918H530.324V126.799ZM545.53 126.799V128.918H547.649V126.799H545.53ZM543.295 37.7688L544.806 36.2836L544.786 36.2638L544.766 36.2445L543.295 37.7688ZM502.12 37.7948L500.621 36.2965L500.615 36.303L500.609 36.3096L502.12 37.7948ZM517.236 77.384V50.7659H512.998V77.384H517.236ZM515.117 52.8848H530.324V48.647H515.117V52.8848ZM528.205 50.7659V69.7677H532.442V50.7659H528.205ZM529.375 67.8732L514.168 75.4895L516.066 79.2785L531.272 71.6622L529.375 67.8732ZM499.91 128.918H515.117V124.68H499.91V128.918ZM517.236 126.799V92.5907H512.998V126.799H517.236ZM516.066 94.4852L531.272 86.8689L529.375 83.0798L514.168 90.6962L516.066 94.4852ZM528.205 84.9744V126.799H532.442V84.9744H528.205ZM530.324 128.918H545.53V124.68H530.324V128.918ZM547.649 126.799V43.1496H543.411V126.799H547.649ZM547.649 43.1496C547.649 40.495 546.663 38.1734 544.806 36.2836L541.783 39.2539C542.89 40.3795 543.411 41.6451 543.411 43.1496H547.649ZM544.766 36.2445C542.881 34.424 540.566 33.4404 537.914 33.4404V37.6781C539.421 37.6781 540.693 38.2022 541.823 39.2931L544.766 36.2445ZM537.914 33.4404H507.501V37.6781H537.914V33.4404ZM507.501 33.4404C504.827 33.4404 502.496 34.422 500.621 36.2965L503.618 39.293C504.707 38.2042 505.963 37.6781 507.501 37.6781V33.4404ZM500.609 36.3096C498.738 38.213 497.791 40.5397 497.791 43.1756H502.029C502.029 41.6524 502.538 40.3919 503.631 39.2799L500.609 36.3096ZM497.791 43.1756V126.799H502.029V43.1756H497.791ZM571.959 77.384H569.84V80.815L572.908 79.2785L571.959 77.384ZM571.959 50.7659V48.647H569.84V50.7659H571.959ZM587.166 50.7659H589.285V48.647H587.166V50.7659ZM587.166 69.7677L588.115 71.6622L589.285 71.0762V69.7677H587.166ZM556.752 126.799H554.634V128.918H556.752V126.799ZM571.959 126.799V128.918H574.078V126.799H571.959ZM571.959 92.5907L571.011 90.6955L569.84 91.2812V92.5907H571.959ZM578.458 89.3414L580.467 88.6705L579.694 86.3541L577.51 87.4462L578.458 89.3414ZM590.961 126.799L588.951 127.47L589.434 128.918H590.961V126.799ZM606.168 126.799V128.918H609.107L608.178 126.129L606.168 126.799ZM591.507 82.8168L590.559 80.9217L588.915 81.7435L589.497 83.4869L591.507 82.8168ZM602.372 77.384L603.32 79.2792L604.491 78.6936V77.384H602.372ZM600.137 37.7688L601.648 36.2836L601.629 36.2638L601.609 36.2445L600.137 37.7688ZM556.752 35.5593V33.4404H554.634V35.5593H556.752ZM574.078 77.384V50.7659H569.84V77.384H574.078ZM571.959 52.8848H587.166V48.647H571.959V52.8848ZM585.047 50.7659V69.7677H589.285V50.7659H585.047ZM586.217 67.8732L571.01 75.4895L572.908 79.2785L588.115 71.6622L586.217 67.8732ZM556.752 128.918H571.959V124.68H556.752V128.918ZM574.078 126.799V92.5907H569.84V126.799H574.078ZM572.907 94.4858L579.405 91.2366L577.51 87.4462L571.011 90.6955L572.907 94.4858ZM576.448 90.0123L588.951 127.47L592.971 126.128L580.467 88.6705L576.448 90.0123ZM590.961 128.918H606.168V124.68H590.961V128.918ZM608.178 126.129L593.517 82.1468L589.497 83.4869L604.157 127.469L608.178 126.129ZM592.454 84.712L603.32 79.2792L601.425 75.4889L590.559 80.9217L592.454 84.712ZM604.491 77.384V43.1496H600.253V77.384H604.491ZM604.491 43.1496C604.491 40.495 603.505 38.1734 601.648 36.2836L598.626 39.2539C599.732 40.3795 600.253 41.6451 600.253 43.1496H604.491ZM601.609 36.2445C599.723 34.424 597.408 33.4404 594.756 33.4404V37.6781C596.263 37.6781 597.535 38.2022 598.665 39.2931L601.609 36.2445ZM594.756 33.4404H556.752V37.6781H594.756V33.4404ZM554.634 35.5593V126.799H558.871V35.5593H554.634ZM644.008 111.592V113.711H646.127V111.592H644.008ZM628.801 111.592H626.682V113.711H628.801V111.592ZM628.801 50.7659V48.647H626.682V50.7659H628.801ZM644.008 50.7659H646.127V48.647H644.008V50.7659ZM613.595 126.799H611.476V128.918H613.595V126.799ZM656.979 124.59L658.464 126.101L658.471 126.094L658.477 126.088L656.979 124.59ZM656.979 37.7688L658.49 36.2836L658.471 36.2638L658.451 36.2445L656.979 37.7688ZM613.595 35.5593V33.4404H611.476V35.5593H613.595ZM644.008 109.474H628.801V113.711H644.008V109.474ZM630.92 111.592V50.7659H626.682V111.592H630.92ZM628.801 52.8848H644.008V48.647H628.801V52.8848ZM641.889 50.7659V111.592H646.127V50.7659H641.889ZM613.595 128.918H651.598V124.68H613.595V128.918ZM651.598 128.918C654.234 128.918 656.561 127.971 658.464 126.101L655.494 123.078C654.382 124.171 653.121 124.68 651.598 124.68V128.918ZM658.477 126.088C660.352 124.213 661.333 121.883 661.333 119.209H657.096C657.096 120.746 656.57 122.003 655.481 123.091L658.477 126.088ZM661.333 119.209V43.1496H657.096V119.209H661.333ZM661.333 43.1496C661.333 40.495 660.347 38.1734 658.49 36.2836L655.468 39.2539C656.574 40.3795 657.096 41.6451 657.096 43.1496H661.333ZM658.451 36.2445C656.565 34.424 654.25 33.4404 651.598 33.4404V37.6781C653.105 37.6781 654.377 38.2022 655.507 39.2931L658.451 36.2445ZM651.598 33.4404H613.595V37.6781H651.598V33.4404ZM611.476 35.5593V126.799H615.713V35.5593H611.476Z" fill="#152A35"/>
</g>
<defs>
<filter id="filter0_d_35_2" x="149.033" y="35.5593" width="514.419" height="95.4776" filterUnits="userSpaceOnUse" color-interpolation-filters="sRGB">
<feFlood flood-opacity="0" result="BackgroundImageFix"/>
<feColorMatrix in="SourceAlpha" type="matrix" values="0 0 0 0 0 0 0 0 0 0 0 0 0 0 0 0 0 0 127 0" result="hardAlpha"/>
<feOffset dx="4.23771" dy="4.23771"/>
<feComposite in2="hardAlpha" operator="out"/>
<feColorMatrix type="matrix" values="0 0 0 0 0.8 0 0 0 0 0.8 0 0 0 0 0.8 0 0 0 1 0"/>
<feBlend mode="normal" in2="BackgroundImageFix" result="effect1_dropShadow_35_2"/>
<feBlend mode="normal" in="SourceGraphic" in2="effect1_dropShadow_35_2" result="shape"/>
</filter>
</defs>
</svg>
