<svg width="2001" height="400" viewBox="0 0 2001 400" fill="none" xmlns="http://www.w3.org/2000/svg">
<path d="M158.995 307.812C156.075 309.578 151.328 309.583 148.397 307.833L48.6418 248.219L28.2264 258.969L148.397 330.781C151.328 332.531 156.075 332.521 158.995 330.76L218.511 294.922L278.028 259.083L257.64 248.411L158.995 307.812Z" fill="black" fill-opacity="0.2"/>
<path d="M48.4425 255.193L17.0085 271.74C14.2444 273.193 12.5687 274.974 12.5256 276.5C12.4825 278.031 14.0558 279.896 16.7283 281.495L151.678 362.141C151.931 362.292 152.632 362.547 153.677 362.547C154.728 362.547 155.439 362.286 155.697 362.135L289.494 281.563C292.166 279.958 293.729 278.078 293.681 276.547C293.637 275.01 291.951 273.229 289.187 271.781L257.861 255.385L162.292 312.932C159.9 314.375 156.84 315.172 153.677 315.172C150.541 315.172 147.502 314.385 145.121 312.964L48.4425 255.193ZM153.677 374.609C150.541 374.609 147.497 373.823 145.115 372.401L10.1657 291.755C3.57067 287.813 -0.114775 282.13 0.052255 276.167C0.224673 270.203 4.22801 264.729 11.0385 261.146L48.8412 241.25L151.678 302.703C151.926 302.854 152.632 303.109 153.677 303.109C154.733 303.109 155.439 302.849 155.697 302.698L257.424 241.438L295.13 261.172C301.951 264.75 305.965 270.214 306.159 276.182C306.343 282.141 302.679 287.839 296.094 291.802L162.292 372.37C159.9 373.813 156.84 374.609 153.677 374.609Z" fill="white"/>
<path d="M31.5671 197.771L148.397 267.589C151.328 269.344 156.075 269.328 158.995 267.573L274.693 197.901L152.675 134.021L31.5671 197.771Z" fill="black" fill-opacity="0.2"/>
<path d="M152.68 140.88L17.0085 212.302C14.2444 213.75 12.5687 215.531 12.5256 217.063C12.4825 218.589 14.0558 220.458 16.7283 222.052L151.678 302.703C151.926 302.854 152.632 303.109 153.677 303.109C154.733 303.109 155.439 302.849 155.697 302.698L289.494 222.125C292.166 220.516 293.729 218.641 293.681 217.104C293.637 215.573 291.956 213.792 289.187 212.344L152.68 140.88ZM153.677 315.172C150.541 315.172 147.502 314.385 145.121 312.964L10.1657 232.313C3.57067 228.375 -0.114775 222.693 0.052255 216.729C0.224673 210.766 4.22801 205.292 11.0385 201.703L152.664 127.156L295.13 201.74C301.951 205.307 305.965 210.776 306.159 216.74C306.343 222.703 302.679 228.396 296.094 232.359L162.292 312.932C159.9 314.375 156.84 315.172 153.677 315.172Z" fill="white"/>
<path d="M148.397 251.547C151.328 253.297 156.075 253.292 158.995 251.526L292.797 170.958C302.544 165.083 302.258 156.042 292.161 150.755L158.16 80.6042C155.126 79.0208 150.218 79.026 147.195 80.6198L14.0235 150.719C3.93704 156.026 3.67842 165.063 13.447 170.901L148.397 251.547Z" fill="white"/>
<path d="M455.109 310.2C436.335 310.2 421.722 305.72 411.269 296.76C401.029 287.587 395.909 275.533 395.909 260.6C395.909 244.6 401.669 232.12 413.189 223.16C424.922 213.987 443.162 209.4 467.909 209.4H490.309V204.6C490.309 193.293 487.855 185.187 482.949 180.28C478.042 175.16 470.362 172.6 459.909 172.6C450.949 172.6 442.735 174.733 435.269 179C432.282 180.493 429.295 182.627 426.309 185.4H423.109L408.709 159.8C413.829 156.387 418.842 153.72 423.749 151.8C437.615 146.467 450.735 143.8 463.109 143.8C478.042 143.8 490.949 146.467 501.829 151.8C512.709 156.92 520.922 164.067 526.469 173.24C532.229 182.413 535.109 192.867 535.109 204.6V307H503.109L499.909 287.8H498.309C494.682 292.493 491.055 296.227 487.429 299C478.469 306.467 467.695 310.2 455.109 310.2ZM463.109 279.8C469.722 279.8 476.229 276.6 482.629 270.2C485.615 267.213 488.175 264.013 490.309 260.6V238.2H467.909C449.775 238.2 440.709 245.667 440.709 260.6C440.709 266.36 442.629 271.053 446.469 274.68C450.522 278.093 456.069 279.8 463.109 279.8ZM673.361 302.2C660.561 307.32 648.294 309.987 636.561 310.2V315C645.308 315 652.561 317.667 658.321 323C664.081 328.333 666.961 334.733 666.961 342.2C666.961 349.88 663.761 356.28 657.361 361.4C651.174 366.733 642.641 369.4 631.761 369.4C625.148 369.4 618.641 368.333 612.241 366.2C608.828 365.133 606.268 364.067 604.561 363L611.281 347H614.161C614.374 347.213 615.121 347.64 616.401 348.28C617.681 349.133 619.388 349.88 621.521 350.52C623.868 351.373 626.214 351.8 628.561 351.8C631.974 351.8 634.641 350.947 636.561 349.24C638.694 347.747 639.761 345.4 639.761 342.2C639.761 339.213 638.694 336.867 636.561 335.16C634.641 333.453 631.974 332.6 628.561 332.6H612.561V308.28C574.801 301.24 555.921 274.147 555.921 227C555.921 199.267 562.321 178.467 575.121 164.6C587.921 150.733 606.588 143.8 631.121 143.8C643.281 143.8 656.294 146.467 670.161 151.8C674.428 153.507 679.548 156.173 685.521 159.8L671.121 185.4H667.921C664.934 182.627 661.948 180.493 658.961 179C651.494 174.733 643.281 172.6 634.321 172.6C623.441 172.6 615.121 176.76 609.361 185.08C603.601 193.187 600.721 207.16 600.721 227C600.721 247.053 603.708 261.133 609.681 269.24C615.654 277.347 624.934 281.4 637.521 281.4C646.481 281.4 654.694 279.267 662.161 275C665.148 273.507 668.134 271.373 671.121 268.6H674.321L688.721 294.2C682.748 297.827 677.628 300.493 673.361 302.2ZM704.596 307V147H749.396V307H704.596ZM781.484 307V95.8L794.284 83H826.284V215.8L867.884 147H917.484L866.284 223.8L920.684 307H871.084L826.284 231.8V307H781.484ZM1014.95 307V95.8L1027.75 83H1059.75V215.8L1101.35 147H1150.95L1099.75 223.8L1154.15 307H1104.55L1059.75 231.8V307H1014.95ZM1214.87 310.2C1196.1 310.2 1181.48 305.72 1171.03 296.76C1160.79 287.587 1155.67 275.533 1155.67 260.6C1155.67 244.6 1161.43 232.12 1172.95 223.16C1184.68 213.987 1202.92 209.4 1227.67 209.4H1250.07V204.6C1250.07 193.293 1247.62 185.187 1242.71 180.28C1237.8 175.16 1230.12 172.6 1219.67 172.6C1210.71 172.6 1202.5 174.733 1195.03 179C1192.04 180.493 1189.06 182.627 1186.07 185.4H1182.87L1168.47 159.8C1173.59 156.387 1178.6 153.72 1183.51 151.8C1197.38 146.467 1210.5 143.8 1222.87 143.8C1237.8 143.8 1250.71 146.467 1261.59 151.8C1272.47 156.92 1280.68 164.067 1286.23 173.24C1291.99 182.413 1294.87 192.867 1294.87 204.6V307H1262.87L1259.67 287.8H1258.07C1254.44 292.493 1250.82 296.227 1247.19 299C1238.23 306.467 1227.46 310.2 1214.87 310.2ZM1222.87 279.8C1229.48 279.8 1235.99 276.6 1242.39 270.2C1245.38 267.213 1247.94 264.013 1250.07 260.6V238.2H1227.67C1209.54 238.2 1200.47 245.667 1200.47 260.6C1200.47 266.36 1202.39 271.053 1206.23 274.68C1210.28 278.093 1215.83 279.8 1222.87 279.8ZM1349.28 374.2C1340.75 374.2 1332.43 372.6 1324.32 369.4C1320.27 368.12 1316.86 366.52 1314.08 364.6L1325.28 337.4H1328.48C1330.62 339.533 1332.32 340.92 1333.6 341.56C1337.66 344.12 1341.82 345.4 1346.08 345.4C1351.2 345.4 1355.9 343.48 1360.16 339.64C1364.43 335.8 1367.52 330.253 1369.44 323L1373.92 307H1361.76L1308.96 147H1350.88L1382.88 251C1383.74 254.413 1384.38 258.147 1384.8 262.2L1385.44 268.6H1386.72L1387.36 262.2C1387.79 258.147 1388.43 254.413 1389.28 251L1416.48 147H1461.28L1408.48 323C1397.82 357.133 1378.08 374.2 1349.28 374.2ZM1474.05 147H1506.05L1509.25 166.2H1510.85C1512.98 163 1516.61 159.267 1521.73 155C1531.75 147.533 1542.53 143.8 1554.05 143.8C1573.46 143.8 1588.39 149.133 1598.85 159.8C1609.51 170.253 1614.85 185.187 1614.85 204.6V307H1570.05V204.6C1570.05 194.573 1567.91 187 1563.65 181.88C1559.38 176.76 1553.51 174.2 1546.05 174.2C1539.01 174.2 1532.29 177.4 1525.89 183.8C1523.75 186.36 1521.41 189.56 1518.85 193.4V307H1474.05V147ZM1694.91 310.2C1676.14 310.2 1661.52 305.72 1651.07 296.76C1640.83 287.587 1635.71 275.533 1635.71 260.6C1635.71 244.6 1641.47 232.12 1652.99 223.16C1664.72 213.987 1682.96 209.4 1707.71 209.4H1730.11V204.6C1730.11 193.293 1727.66 185.187 1722.75 180.28C1717.84 175.16 1710.16 172.6 1699.71 172.6C1690.75 172.6 1682.54 174.733 1675.07 179C1672.08 180.493 1669.1 182.627 1666.11 185.4H1662.91L1648.51 159.8C1653.63 156.387 1658.64 153.72 1663.55 151.8C1677.42 146.467 1690.54 143.8 1702.91 143.8C1717.84 143.8 1730.75 146.467 1741.63 151.8C1752.51 156.92 1760.72 164.067 1766.27 173.24C1772.03 182.413 1774.91 192.867 1774.91 204.6V307H1742.91L1739.71 287.8H1738.11C1734.48 292.493 1730.86 296.227 1727.23 299C1718.27 306.467 1707.5 310.2 1694.91 310.2ZM1702.91 279.8C1709.52 279.8 1716.03 276.6 1722.43 270.2C1725.42 267.213 1727.98 264.013 1730.11 260.6V238.2H1707.71C1689.58 238.2 1680.51 245.667 1680.51 260.6C1680.51 266.36 1682.43 271.053 1686.27 274.68C1690.32 278.093 1695.87 279.8 1702.91 279.8ZM1805.32 307V95.8L1818.12 83H1850.12V215.8L1891.72 147H1941.32L1890.12 223.8L1944.52 307H1894.92L1850.12 231.8V307H1805.32Z" fill="white"/>
</svg>
